{
.appVersion = "913";
classes = (
{
code = "a d j l q t w  y G W";
name = aalt1;
},
{
code = "a.alt d.alt j.alt l.alt q.alt t.alt w.alt y.alt G.alt W.alt";
name = aalt2;
},
{
code = "zero.lnum one.lnum two.lnum three.lnum four.lnum five.lnum six.lnum seven.lnum eight.lnum nine.lnum";
name = lnum1;
},
{
code = "zero one two three four five six seven eight nine";
name = onum1;
},
{
code = "a b c d e f g h i j k l m n o p q r s t u v w x y z";
name = smcp1;
},
{
code = "A.sc B.sc C.sc D.sc E.sc F.sc G.sc H.sc I.sc J.sc K.sc L.sc M.sc N.sc O.sc P.sc Q.sc R.sc S.sc T.sc U.sc V.sc W.sc X.sc Y.sc Z.sc";
name = smcp2;
}
);
copyright = "Copyright (c) 2010 - 2013, Matt McInerney (matt@pixelspread.com), Pablo Impallari (impallari@gmail.com), Rodrigo Fuenzalida (hello@rfuenzalida.com) with Reserved Font Name \"Raleway\"";
customParameters = (
{
name = licenseURL;
value = "http://scripts.sil.org/OFL";
},
{
name = description;
value = "Raleway is an elegant sans-serif typeface family. Initially designed by Matt McInerney as a single thin weight, it was expanded into a 9 weight family by Pablo Impallari and Rodrigo Fuenzalida in 2012 and iKerned by Igino Marini. It is a display face and the download features both old style and lining numerals, standard and discretionary ligatures, a pretty complete set of diacritics, as well as a stylistic alternate inspired by more geometric sans-serif typefaces than its neo-grotesque inspired default character set.";
},
{
name = trademark;
value = "Raleway is a trademark of Matt McInerney.";
},
{
name = license;
value = "This Font Software is licensed under the SIL Open Font License, Version 1.1. This license is available with a FAQ at: http://scripts.sil.org/OFL";
},
{
name = panose;
value = (
2,
11,
6,
3,
3,
1,
1,
6,
0,
3
);
},
{
name = glyphOrder;
value = (
A,
A.sc,
AE,
AEacute,
acute,
Aacute,
Abreve,
breve,
Acircumflex,
circumflex,
Adieresis,
dieresis,
Agrave,
grave,
Amacron,
macron,
Aogonek,
ogonek,
Aring,
ring,
Aringacute,
Atilde,
tilde,

glyphs = (
{
glyphname = A;
lastChange = "2016-08-18 22:37:14 +0000";
layers = (
{
anchors = (
{
name = bottom;
position = "{616, 5}";
},
{
name = top;
position = "{339, 708}";
}
);
background = {
paths = (
{
closed = 1;
nodes = (
"10 0 LINE",
"106 0 LINE",
"189 208 LINE",
"487 208 LINE",
"571 0 LINE",
"667 0 LINE",
"377 710 LINE",
"301 710 LINE"
);
},
{
closed = 1;
nodes = (
"207 278 LINE",
"339 606 LINE",
"467 278 LINE"
);
}
);
};
layerId = UUID0;
paths = (
{
closed = 1;
nodes = (
"10 0 LINE",
"106 0 LINE",
"189 208 LINE",
"487 208 LINE",
"571 0 LINE",
"667 0 LINE",
"377 710 LINE",
"301 710 LINE"
);
},
{
closed = 1;
nodes = (
"207 278 LINE",
"339 606 LINE",
"467 278 LINE"
);
}
);
width = 677;
}
);
leftKerningGroup = A;
rightKerningGroup = A;
unicode = 0041;
},
{
glyphname = A.sc;
lastChange = "2016-08-18 22:37:14 +0000";
layers = (
{
anchors = (
{
name = bottom;
position = "{626, 8}";
},
{
name = top;
position = "{322, 707}";
}
);
background = {
paths = (
{
closed = 1;
nodes = (
"99 0 LINE",
"169 155 LINE",
"419 155 LINE",
"489 0 LINE",
"574 0 LINE",
"327 551 LINE",
"261 551 LINE",
"13 0 LINE"
);
},
{
closed = 1;
nodes = (
"399 225 LINE",
"187 225 LINE",
"294 452 LINE"
);
}
);
};
layerId = UUID0;
paths = (
{
closed = 1;
nodes = (
"99 0 LINE",
"169 155 LINE",
"419 155 LINE",
"489 0 LINE",
"574 0 LINE",
"327 551 LINE",
"261 551 LINE",
"13 0 LINE"
);
},
{
closed = 1;
nodes = (
"399 225 LINE",
"187 225 LINE",
"294 452 LINE"
);
}
);
width = 588;
}
);
},
{
glyphname = AE;
lastChange = "2016-08-18 22:37:14 +0000";
layers = (
{
anchors = (
{
name = top;
position = "{531, 708}";
}
);
background = {
paths = (
{
closed = 1;
nodes = (
"-25 0 LINE",
"73 0 LINE",
"203 208 LINE",
"452 208 LINE",
"452 0 LINE",
"925 0 LINE",
"925 80 LINE",
"541 80 LINE",
"541 322 LINE",
"862 322 LINE",
"862 402 LINE",
"541 402 LINE",
"541 630 LINE",
"916 630 LINE",
"916 710 LINE",
"428 710 LINE"
);
},
{
closed = 1;
nodes = (
"243 288 LINE",
"446 605 LINE",
"446 288 LINE"
);
}
);
};
layerId = UUID0;
paths = (
{
closed = 1;
nodes = (
"-25 0 LINE",
"73 0 LINE",
"203 208 LINE",
"452 208 LINE",
"452 0 LINE",
"925 0 LINE",
"925 80 LINE",
"541 80 LINE",
"541 322 LINE",
"862 322 LINE",
"862 402 LINE",
"541 402 LINE",
"541 630 LINE",
"916 630 LINE",
"916 710 LINE",
"428 710 LINE"
);
},
{
closed = 1;
nodes = (
"243 288 LINE",
"446 605 LINE",
"446 288 LINE"
);
}
);
width = 961;
}
);
leftKerningGroup = AE;
rightKerningGroup = E;
unicode = 00C6;
},
{
glyphname = acute;
lastChange = "2016-08-18 22:37:14 +0000";
layers = (
{
anchors = (
{
name = _top;
position = "{91, 522}";
}
);
background = {
paths = (
{
closed = 1;
nodes = (
"194 730 LINE",
"106 730 LINE",
"48 629 LINE",
"106 609 LINE"
);
}
);
};
layerId = UUID0;
paths = (
{
closed = 1;
nodes = (
"194 730 LINE",
"106 730 LINE",
"48 629 LINE",
"106 609 LINE"
);
}
);
width = 232;
}
);
unicode = 00B4;
},
{
glyphname = breve;
lastChange = "2016-08-18 22:37:14 +0000";
layers = (
{
anchors = (
{
name = _top;
position = "{148, 522}";
}
);
background = {
paths = (
{
closed = 1;
nodes = (
"118 662 OFFCURVE",
"91 694 OFFCURVE",
"91 730 CURVE",
"40 730 LINE",
"40 667 OFFCURVE",
"87 619 OFFCURVE",
"148 619 CURVE SMOOTH",
"209 619 OFFCURVE",
"256 667 OFFCURVE",
"256 730 CURVE",
"206 730 LINE",
"202 691 OFFCURVE",
"177 662 OFFCURVE",
"148 662 CURVE SMOOTH"
);
}
);
};
layerId = UUID0;
paths = (
{
closed = 1;
nodes = (
"148 662 LINE SMOOTH",
"118 662 OFFCURVE",
"91 694 OFFCURVE",
"91 730 CURVE",
"40 730 LINE",
"40 667 OFFCURVE",
"87 619 OFFCURVE",
"148 619 CURVE SMOOTH",
"209 619 OFFCURVE",
"256 667 OFFCURVE",
"256 730 CURVE",
"206 730 LINE",
"202 691 OFFCURVE",
"177 662 OFFCURVE",
"148 662 CURVE SMOOTH"
);
}
);
width = 296;
}
);
unicode = 02D8;
},
{
glyphname = circumflex;
lastChange = "2016-08-18 22:37:14 +0000";
layers = (
{
anchors = (
{
name = _top;
position = "{171, 522}";
}
);
background = {
paths = (
{
closed = 1;
nodes = (
"86 616 LINE",
"171 679 LINE",
"256 616 LINE",
"304 640 LINE",
"203 730 LINE",
"139 730 LINE",
"38 640 LINE"
);
}
);
};
layerId = UUID0;
paths = (
{
closed = 1;
nodes = (
"86 616 LINE",
"171 679 LINE",
"256 616 LINE",
"304 640 LINE",
"203 730 LINE",
"139 730 LINE",
"38 640 LINE"
);
}
);
width = 342;
}
);
unicode = 02C6;
},
{
glyphname = dieresis;
lastChange = "2016-08-18 22:37:14 +0000";
layers = (
{
anchors = (
{
name = _top;
position = "{184, 521}";
}
);
background = {
paths = (
{
closed = 1;
nodes = (
"140 624 LINE",
"140 726 LINE",
"66 726 LINE",
"66 624 LINE"
);
},
{
closed = 1;
nodes = (
"302 624 LINE",
"302 726 LINE",
"228 726 LINE",
"228 624 LINE"
);
}
);
};
layerId = UUID0;
paths = (
{
closed = 1;
nodes = (
"140 624 LINE",
"140 726 LINE",
"66 726 LINE",
"66 624 LINE"
);
},
{
closed = 1;
nodes = (
"302 624 LINE",
"302 726 LINE",
"228 726 LINE",
"228 624 LINE"
);
}
);
width = 368;
}
);
unicode = 00A8;
},
{
glyphname = grave;
lastChange = "2016-08-18 22:37:14 +0000";
layers = (
{
anchors = (
{
name = _top;
position = "{152, 521}";
}
);
background = {
paths = (
{
closed = 1;
nodes = (
"137 609 LINE",
"194 629 LINE",
"135 730 LINE",
"48 730 LINE"
);
}
);
};
layerId = UUID0;
paths = (
{
closed = 1;
nodes = (
"137 609 LINE",
"194 629 LINE",
"135 730 LINE",
"48 730 LINE"
);
}
);
width = 232;
}
);
unicode = 0060;
},
{
glyphname = macron;
lastChange = "2016-08-18 22:37:14 +0000";
layers = (
{
anchors = (
{
name = _top;
position = "{201, 522}";
}
);
background = {
paths = (
{
closed = 1;
nodes = (
"348 654 LINE",
"348 712 LINE",
"56 712 LINE",
"56 654 LINE"
);
}
);
};
layerId = UUID0;
paths = (
{
closed = 1;
nodes = (
"348 654 LINE",
"348 712 LINE",
"56 712 LINE",
"56 654 LINE"
);
}
);
width = 403;
}
);
unicode = 00AF;
},
{
glyphname = ogonek;
lastChange = "2016-08-18 22:37:14 +0000";
layers = (
{
anchors = (
{
name = _bottom;
position = "{167, 0}";
}
);
background = {
paths = (
{
closed = 1;
nodes = (
"164 -135 LINE",
"127 -131 OFFCURVE",
"109 -116 OFFCURVE",
"109 -92 CURVE SMOOTH",
"109 -63 OFFCURVE",
"133 -36 OFFCURVE",
"191 0 CURVE",
"165 18 LINE",
"91 -24 OFFCURVE",
"58 -64 OFFCURVE",
"58 -104 CURVE SMOOTH",
"58 -141 OFFCURVE",
"87 -171 OFFCURVE",
"142 -181 CURVE"
);
}
);
};
layerId = UUID0;
paths = (
{
closed = 1;
nodes = (
"142 -181 LINE",
"164 -135 LINE",
"127 -131 OFFCURVE",
"109 -116 OFFCURVE",
"109 -92 CURVE SMOOTH",
"109 -63 OFFCURVE",
"133 -36 OFFCURVE",
"191 0 CURVE",
"165 18 LINE",
"91 -24 OFFCURVE",
"58 -64 OFFCURVE",
"58 -104 CURVE SMOOTH",
"58 -141 OFFCURVE",
"87 -171 OFFCURVE",
"142 -181 CURVE"
);
}
);
width = 255;
}
);
unicode = 02DB;
},
{
glyphname = ring;
lastChange = "2016-08-18 22:37:14 +0000";
layers = (
{
anchors = (
{
name = _top;
position = "{126, 522}";
}
);
background = {
paths = (
{
closed = 1;
nodes = (
"45 619 OFFCURVE",
"79 592 OFFCURVE",
"126 592 CURVE SMOOTH",
"174 592 OFFCURVE",
"207 619 OFFCURVE",
"207 661 CURVE SMOOTH",
"207 703 OFFCURVE",
"174 730 OFFCURVE",
"126 730 CURVE SMOOTH",
"79 730 OFFCURVE",
"45 703 OFFCURVE",
"45 661 CURVE SMOOTH"
);
},
{
closed = 1;
nodes = (
"149 699 OFFCURVE",
"167 684 OFFCURVE",
"167 661 CURVE SMOOTH",
"167 639 OFFCURVE",
"147 623 OFFCURVE",
"126 623 CURVE SMOOTH",
"103 623 OFFCURVE",
"86 640 OFFCURVE",
"86 661 CURVE SMOOTH",
"86 684 OFFCURVE",
"104 699 OFFCURVE",
"126 699 CURVE SMOOTH"
);
}
);
};
layerId = UUID0;
paths = (
{
closed = 1;
nodes = (
"45 661 LINE SMOOTH",
"45 619 OFFCURVE",
"79 592 OFFCURVE",
"126 592 CURVE SMOOTH",
"174 592 OFFCURVE",
"207 619 OFFCURVE",
"207 661 CURVE SMOOTH",
"207 703 OFFCURVE",
"174 730 OFFCURVE",
"126 730 CURVE SMOOTH",
"79 730 OFFCURVE",
"45 703 OFFCURVE",
"45 661 CURVE SMOOTH"
);
},
{
closed = 1;
nodes = (
"126 699 LINE SMOOTH",
"149 699 OFFCURVE",
"167 684 OFFCURVE",
"167 661 CURVE SMOOTH",
"167 639 OFFCURVE",
"147 623 OFFCURVE",
"126 623 CURVE SMOOTH",
"103 623 OFFCURVE",
"86 640 OFFCURVE",
"86 661 CURVE SMOOTH",
"86 684 OFFCURVE",
"104 699 OFFCURVE",
"126 699 CURVE SMOOTH"
);
}
);
width = 252;
}
);
unicode = 02DA;
},
{
glyphname = tilde;
lastChange = "2016-08-18 22:37:14 +0000";
layers = (
{
anchors = (
{
name = _top;
position = "{208, 522}";
}
);
background = {
paths = (
{
closed = 1;
nodes = (
"355 627 OFFCURVE",
"376 715 OFFCURVE",
"376 730 CURVE",
"324 730 LINE",
"324 726 OFFCURVE",
"319 681 OFFCURVE",
"268 681 CURVE SMOOTH",
"219 681 OFFCURVE",
"196 724 OFFCURVE",
"139 724 CURVE SMOOTH",
"60 724 OFFCURVE",
"40 638 OFFCURVE",
"40 621 CURVE",
"92 621 LINE",
"92 625 OFFCURVE",
"97 669 OFFCURVE",
"141 669 CURVE SMOOTH",
"184 669 OFFCURVE",
"210 627 OFFCURVE",
"270 627 CURVE SMOOTH"
);
}
);
};
layerId = UUID0;
paths = (
{
closed = 1;
nodes = (
"270 627 LINE SMOOTH",
"355 627 OFFCURVE",
"376 715 OFFCURVE",
"376 730 CURVE",
"324 730 LINE",
"324 726 OFFCURVE",
"319 681 OFFCURVE",
"268 681 CURVE SMOOTH",
"219 681 OFFCURVE",
"196 724 OFFCURVE",
"139 724 CURVE SMOOTH",
"60 724 OFFCURVE",
"40 638 OFFCURVE",
"40 621 CURVE",
"92 621 LINE",
"92 625 OFFCURVE",
"97 669 OFFCURVE",
"141 669 CURVE SMOOTH",
"184 669 OFFCURVE",
"210 627 OFFCURVE",
"270 627 CURVE SMOOTH"
);
}
);
width = 415;
}
);
unicode = 02DC;
},
{
glyphname = B;
lastChange = "2016-08-18 22:37:14 +0000";
layers = (
{
background = {
paths = (
{
closed = 1;
nodes = (
"630 271 OFFCURVE",
"579 340 OFFCURVE",
"498 364 CURVE",
"563 393 OFFCURVE",
"600 459 OFFCURVE",
"600 529 CURVE SMOOTH",
"600 618 OFFCURVE",
"538 710 OFFCURVE",
"438 710 CURVE SMOOTH",
"85 710 LINE",
"85 0 LINE",
"422 0 LINE SMOOTH",
"536 0 OFFCURVE",
"630 73 OFFCURVE",
"630 183 CURVE SMOOTH"
);
},
{
closed = 1;
nodes = (
"539 135 OFFCURVE",
"488 78 OFFCURVE",
"422 78 CURVE SMOOTH",
"175 78 LINE",
"175 322 LINE",
"429 322 LINE SMOOTH",
"492 322 OFFCURVE",
"539 264 OFFCURVE",
"539 199 CURVE SMOOTH"
);
},
{
closed = 1;
nodes = (
"407 632 LINE",
"467 632 OFFCURVE",
"511 580 OFFCURVE",
"511 513 CURVE SMOOTH",
"511 448 OFFCURVE",
"464 395 OFFCURVE",
"401 395 CURVE SMOOTH",
"175 395 LINE",
"175 632 LINE"
);
}
);
};
layerId = UUID0;
paths = (
{
closed = 1;
nodes = (
"630 183 LINE SMOOTH",
"630 271 OFFCURVE",
"579 340 OFFCURVE",
"498 364 CURVE",
"563 393 OFFCURVE",
"600 459 OFFCURVE",
"600 529 CURVE SMOOTH",
"600 618 OFFCURVE",
"538 710 OFFCURVE",
"438 710 CURVE SMOOTH",
"85 710 LINE",
"85 0 LINE",
"422 0 LINE SMOOTH",
"536 0 OFFCURVE",
"630 73 OFFCURVE",
"630 183 CURVE SMOOTH"
);
},
{
closed = 1;
nodes = (
"539 199 LINE SMOOTH",
"539 135 OFFCURVE",
"488 78 OFFCURVE",
"422 78 CURVE SMOOTH",
"175 78 LINE",
"175 322 LINE",
"429 322 LINE SMOOTH",
"492 322 OFFCURVE",
"539 264 OFFCURVE",
"539 199 CURVE SMOOTH"
);
},
{
closed = 1;
nodes = (
"407 632 LINE",
"467 632 OFFCURVE",
"511 580 OFFCURVE",
"511 513 CURVE SMOOTH",
"511 448 OFFCURVE",
"464 395 OFFCURVE",
"401 395 CURVE SMOOTH",
"175 395 LINE",
"175 632 LINE"
);
}
);
width = 671;
}
);
leftKerningGroup = I;
unicode = 0042;
},
{
glyphname = B.sc;
lastChange = "2016-08-18 22:37:14 +0000";
layers = (
{
background = {
paths = (
{
closed = 1;
nodes = (
"542 212 OFFCURVE",
"499 264 OFFCURVE",
"431 283 CURVE",
"485 305 OFFCURVE",
"516 356 OFFCURVE",
"516 410 CURVE SMOOTH",
"516 480 OFFCURVE",
"464 551 OFFCURVE",
"380 551 CURVE SMOOTH",
"79 551 LINE",
"79 0 LINE",
"364 0 LINE SMOOTH",
"462 0 OFFCURVE",
"542 55 OFFCURVE",
"542 142 CURVE SMOOTH"
);
},
{
closed = 1;
nodes = (
"461 110 OFFCURVE",
"418 69 OFFCURVE",
"364 69 CURVE SMOOTH",
"159 69 LINE",
"159 246 LINE",
"370 246 LINE SMOOTH",
"422 246 OFFCURVE",
"461 204 OFFCURVE",
"461 157 CURVE SMOOTH"
);
},
{
closed = 1;
nodes = (
"352 481 LINE",
"401 481 OFFCURVE",
"437 445 OFFCURVE",
"437 396 CURVE SMOOTH",
"437 348 OFFCURVE",
"398 311 OFFCURVE",
"347 311 CURVE SMOOTH",
"159 311 LINE",
"159 481 LINE"
);
}
);
};
layerId = UUID0;
paths = (
{
closed = 1;
nodes = (
"542 142 LINE SMOOTH",
"542 212 OFFCURVE",
"499 264 OFFCURVE",
"431 283 CURVE",
"485 305 OFFCURVE",
"516 356 OFFCURVE",
"516 410 CURVE SMOOTH",
"516 480 OFFCURVE",
"464 551 OFFCURVE",
"380 551 CURVE SMOOTH",
"79 551 LINE",
"79 0 LINE",
"364 0 LINE SMOOTH",
"462 0 OFFCURVE",
"542 55 OFFCURVE",
"542 142 CURVE SMOOTH"
);
},
{
closed = 1;
nodes = (
"461 157 LINE SMOOTH",
"461 110 OFFCURVE",
"418 69 OFFCURVE",
"364 69 CURVE SMOOTH",
"159 69 LINE",
"159 246 LINE",
"370 246 LINE SMOOTH",
"422 246 OFFCURVE",
"461 204 OFFCURVE",
"461 157 CURVE SMOOTH"
);
},
{
closed = 1;
nodes = (
"352 481 LINE",
"401 481 OFFCURVE",
"437 445 OFFCURVE",
"437 396 CURVE SMOOTH",
"437 348 OFFCURVE",
"398 311 OFFCURVE",
"347 311 CURVE SMOOTH",
"159 311 LINE",
"159 481 LINE"
);
}
);
width = 584;
}
);
leftKerningGroup = I.sc;
},
{
glyphname = C;
lastChange = "2016-08-18 22:37:14 +0000";
layers = (
{
anchors = (
{
name = bottom;
position = "{373, 0}";
},
{
name = top;
position = "{376, 708}";
}
);
background = {
paths = (
{
closed = 1;
nodes = (
"39 180 OFFCURVE",
"177 -6 OFFCURVE",
"372 -6 CURVE SMOOTH",
"482 -6 OFFCURVE",
"609 53 OFFCURVE",
"654 159 CURVE",
"579 200 LINE",
"538 112 OFFCURVE",
"450 75 OFFCURVE",
"376 75 CURVE SMOOTH",
"235 75 OFFCURVE",
"130 208 OFFCURVE",
"130 356 CURVE SMOOTH",
"130 490 OFFCURVE",
"215 633 OFFCURVE",
"373 633 CURVE SMOOTH",
"445 633 OFFCURVE",
"528 603 OFFCURVE",
"570 513 CURVE",
"641 559 LINE",
"597 650 OFFCURVE",
"503 714 OFFCURVE",
"377 714 CURVE SMOOTH",
"163 714 OFFCURVE",
"39 532 OFFCURVE",
"39 360 CURVE SMOOTH"
);
}
);
};
layerId = UUID0;
paths = (
{
closed = 1;
nodes = (
"39 360 LINE SMOOTH",
"39 180 OFFCURVE",
"177 -6 OFFCURVE",
"372 -6 CURVE SMOOTH",
"482 -6 OFFCURVE",
"609 53 OFFCURVE",
"654 159 CURVE",
"579 200 LINE",
"538 112 OFFCURVE",
"450 75 OFFCURVE",
"376 75 CURVE SMOOTH",
"235 75 OFFCURVE",
"130 208 OFFCURVE",
"130 356 CURVE SMOOTH",
"130 490 OFFCURVE",
"215 633 OFFCURVE",
"373 633 CURVE SMOOTH",
"445 633 OFFCURVE",
"528 603 OFFCURVE",
"570 513 CURVE",
"641 559 LINE",
"597 650 OFFCURVE",
"503 714 OFFCURVE",
"377 714 CURVE SMOOTH",
"163 714 OFFCURVE",
"39 532 OFFCURVE",
"39 360 CURVE SMOOTH"
);
}
);
width = 682;
}
);
leftKerningGroup = O;
rightKerningGroup = C;
unicode = 0043;
},
{
glyphname = C.sc;
lastChange = "2016-08-18 22:37:14 +0000";
layers = (
{
anchors = (
{
name = bottom;
position = "{377, 0}";
},
{
name = top;
position = "{378, 707}";
}
);
background = {
paths = (
{
closed = 1;
nodes = (
"40 139 OFFCURVE",
"157 -5 OFFCURVE",
"323 -5 CURVE SMOOTH",
"417 -5 OFFCURVE",
"525 41 OFFCURVE",
"564 123 CURVE",
"497 161 LINE",
"463 95 OFFCURVE",
"389 67 OFFCURVE",
"327 67 CURVE SMOOTH",
"208 67 OFFCURVE",
"121 166 OFFCURVE",
"121 276 CURVE SMOOTH",
"121 376 OFFCURVE",
"192 482 OFFCURVE",
"325 482 CURVE SMOOTH",
"385 482 OFFCURVE",
"455 460 OFFCURVE",
"490 392 CURVE",
"553 434 LINE",
"516 505 OFFCURVE",
"435 554 OFFCURVE",
"328 554 CURVE SMOOTH",
"145 554 OFFCURVE",
"40 413 OFFCURVE",
"40 280 CURVE SMOOTH"
);
}
);
};
layerId = UUID0;
paths = (
{
closed = 1;
nodes = (
"40 280 LINE SMOOTH",
"40 139 OFFCURVE",
"157 -5 OFFCURVE",
"323 -5 CURVE SMOOTH",
"417 -5 OFFCURVE",
"525 41 OFFCURVE",
"564 123 CURVE",
"497 161 LINE",
"463 95 OFFCURVE",
"389 67 OFFCURVE",
"327 67 CURVE SMOOTH",
"208 67 OFFCURVE",
"121 166 OFFCURVE",
"121 276 CURVE SMOOTH",
"121 376 OFFCURVE",
"192 482 OFFCURVE",
"325 482 CURVE SMOOTH",
"385 482 OFFCURVE",
"455 460 OFFCURVE",
"490 392 CURVE",
"553 434 LINE",
"516 505 OFFCURVE",
"435 554 OFFCURVE",
"328 554 CURVE SMOOTH",
"145 554 OFFCURVE",
"40 413 OFFCURVE",
"40 280 CURVE SMOOTH"
);
}
);
width = 594;
}
);
leftKerningGroup = O.sc;
},
{
glyphname = caron;
lastChange = "2016-08-18 22:37:14 +0000";
layers = (
{
anchors = (
{
name = _top;
position = "{171, 522}";
}
);
background = {
paths = (
{
closed = 1;
nodes = (
"38 706 LINE",
"139 616 LINE",
"203 616 LINE",
"304 706 LINE",
"256 730 LINE",
"171 667 LINE",
"86 730 LINE"
);
}
);
};
layerId = UUID0;
paths = (
{
closed = 1;
nodes = (
"38 706 LINE",
"139 616 LINE",
"203 616 LINE",
"304 706 LINE",
"256 730 LINE",
"171 667 LINE",
"86 730 LINE"
);
}
);
width = 342;
}
);
unicode = 02C7;
},
{
glyphname = cedilla;
lastChange = "2016-08-18 22:37:14 +0000";
layers = (
{
anchors = (
{
name = _bottom;
position = "{120, 0}";
}
);
background = {
paths = (
{
closed = 1;
nodes = (
"22 -163 LINE",
"48 -173 OFFCURVE",
"83 -182 OFFCURVE",
"123 -182 CURVE SMOOTH",
"195 -182 OFFCURVE",
"233 -153 OFFCURVE",
"233 -107 CURVE SMOOTH",
"233 -64 OFFCURVE",
"201 -43 OFFCURVE",
"154 -43 CURVE SMOOTH",
"144 -43 OFFCURVE",
"129 -44 OFFCURVE",
"118 -48 CURVE",
"153 7 LINE",
"114 21 LINE",
"56 -88 LINE",
"73 -83 OFFCURVE",
"108 -75 OFFCURVE",
"136 -75 CURVE SMOOTH",
"166 -75 OFFCURVE",
"187 -84 OFFCURVE",
"187 -110 CURVE SMOOTH",
"187 -135 OFFCURVE",
"166 -145 OFFCURVE",
"130 -145 CURVE SMOOTH",
"95 -145 OFFCURVE",
"59 -135 OFFCURVE",
"42 -126 CURVE"
);
}
);
};
layerId = UUID0;
paths = (
{
closed = 1;
nodes = (
"22 -163 LINE",
"48 -173 OFFCURVE",
"83 -182 OFFCURVE",
"123 -182 CURVE SMOOTH",
"195 -182 OFFCURVE",
"233 -153 OFFCURVE",
"233 -107 CURVE SMOOTH",
"233 -64 OFFCURVE",
"201 -43 OFFCURVE",
"154 -43 CURVE SMOOTH",
"144 -43 OFFCURVE",
"129 -44 OFFCURVE",
"118 -48 CURVE",
"153 7 LINE",
"114 21 LINE",
"56 -88 LINE",
"73 -83 OFFCURVE",
"108 -75 OFFCURVE",
"136 -75 CURVE SMOOTH",
"166 -75 OFFCURVE",
"187 -84 OFFCURVE",
"187 -110 CURVE SMOOTH",
"187 -135 OFFCURVE",
"166 -145 OFFCURVE",
"130 -145 CURVE SMOOTH",
"95 -145 OFFCURVE",
"59 -135 OFFCURVE",
"42 -126 CURVE"
);
}
);
width = 296;
}
);
unicode = 00B8;
},
{
glyphname = dotaccent;
lastChange = "2016-08-18 22:37:14 +0000";
layers = (
{
anchors = (
{
name = _top;
position = "{90, 522}";
}
);
background = {
paths = (
{
closed = 1;
nodes = (
"130 624 LINE",
"130 730 LINE",
"50 730 LINE",
"50 624 LINE"
);
}
);
};
layerId = UUID0;
paths = (
{
closed = 1;
nodes = (
"130 624 LINE",
"130 730 LINE",
"50 730 LINE",
"50 624 LINE"
);
}
);
width = 180;
}
);
unicode = 02D9;
},
{
glyphname = D;
lastChange = "2016-08-18 22:37:14 +0000";
layers = (
{
anchors = (
{
name = top;
position = "{340, 708}";
}
);
background = {
paths = (
{
closed = 1;
nodes = (
"331 0 LINE",
"540 0 OFFCURVE",
"674 141 OFFCURVE",
"674 356 CURVE SMOOTH",
"674 552 OFFCURVE",
"559 710 OFFCURVE",
"331 710 CURVE SMOOTH",
"85 710 LINE",
"85 0 LINE"
);
},
{
closed = 1;
nodes = (
"583 199 OFFCURVE",
"495 80 OFFCURVE",
"331 80 CURVE SMOOTH",
"175 80 LINE",
"175 630 LINE",
"331 630 LINE SMOOTH",
"492 630 OFFCURVE",
"583 516 OFFCURVE",
"583 356 CURVE SMOOTH"
);
}
);
};
layerId = UUID0;
paths = (
{
closed = 1;
nodes = (
"331 0 LINE",
"540 0 OFFCURVE",
"674 141 OFFCURVE",
"674 356 CURVE SMOOTH",
"674 552 OFFCURVE",
"559 710 OFFCURVE",
"331 710 CURVE SMOOTH",
"85 710 LINE",
"85 0 LINE"
);
},
{
closed = 1;
nodes = (
"583 356 LINE SMOOTH",
"583 199 OFFCURVE",
"495 80 OFFCURVE",
"331 80 CURVE SMOOTH",
"175 80 LINE",
"175 630 LINE",
"331 630 LINE SMOOTH",
"492 630 OFFCURVE",
"583 516 OFFCURVE",
"583 356 CURVE SMOOTH"
);
}
);
width = 716;
}
);
leftKerningGroup = I;
rightKerningGroup = D;
unicode = 0044;
},
{
glyphname = D.sc;
lastChange = "2016-08-18 22:37:14 +0000";
layers = (
{
anchors = (
{
name = top;
position = "{354, 707}";
}
);
background = {
paths = (
{
closed = 1;
nodes = (
"290 0 LINE",
"467 0 OFFCURVE",
"583 109 OFFCURVE",
"583 277 CURVE SMOOTH",
"583 429 OFFCURVE",
"484 551 OFFCURVE",
"290 551 CURVE SMOOTH",
"79 551 LINE",
"79 0 LINE"
);
},
{
closed = 1;
nodes = (
"501 159 OFFCURVE",
"428 71 OFFCURVE",
"290 71 CURVE SMOOTH",
"159 71 LINE",
"159 480 LINE",
"290 480 LINE SMOOTH",
"425 480 OFFCURVE",
"501 396 OFFCURVE",
"501 277 CURVE SMOOTH"
);
}
);
};
layerId = UUID0;
paths = (
{
closed = 1;
nodes = (
"290 0 LINE",
"467 0 OFFCURVE",
"583 109 OFFCURVE",
"583 277 CURVE SMOOTH",
"583 429 OFFCURVE",
"484 551 OFFCURVE",
"290 551 CURVE SMOOTH",
"79 551 LINE",
"79 0 LINE"
);
},
{
closed = 1;
nodes = (
"501 277 LINE SMOOTH",
"501 159 OFFCURVE",
"428 71 OFFCURVE",
"290 71 CURVE SMOOTH",
"159 71 LINE",
"159 480 LINE",
"290 480 LINE SMOOTH",
"425 480 OFFCURVE",
"501 396 OFFCURVE",
"501 277 CURVE SMOOTH"
);
}
);
width = 625;
}
);
leftKerningGroup = I.sc;
},
{
glyphname = Dcroat;
lastChange = "2016-08-18 22:37:14 +0000";
layers = (
{
background = {
paths = (
{
closed = 1;
nodes = (
"342 323 LINE",
"342 391 LINE",
"34 391 LINE",
"34 323 LINE"
);
}
);
};
components = (
{
name = D;
transform = "{1, 0, 0, 1, 6, 0}";
}
);
layerId = UUID0;
paths = (
{
closed = 1;
nodes = (
"342 323 LINE",
"342 391 LINE",
"34 391 LINE",
"34 323 LINE"
);
}
);
width = 722;
}
);
leftKerningGroup = I;
rightKerningGroup = D;
unicode = 0110;
},
{
glyphname = E;
lastChange = "2016-08-18 22:37:14 +0000";
layers = (
{
anchors = (
{
name = bottom;
position = "{334, 0}";
},
{
name = top;
position = "{334, 708}";
}
);
background = {
paths = (
{
closed = 1;
nodes = (
"175 80 LINE",
"175 325 LINE",
"508 325 LINE",
"508 400 LINE",
"175 400 LINE",
"175 630 LINE",
"558 630 LINE",
"558 710 LINE",
"85 710 LINE",
"85 0 LINE",
"567 0 LINE",
"567 80 LINE"
);
}
);
};
layerId = UUID0;
paths = (
{
closed = 1;
nodes = (
"175 80 LINE",
"175 325 LINE",
"508 325 LINE",
"508 400 LINE",
"175 400 LINE",
"175 630 LINE",
"558 630 LINE",
"558 710 LINE",
"85 710 LINE",
"85 0 LINE",
"567 0 LINE",
"567 80 LINE"
);
}
);
width = 605;
}
);
leftKerningGroup = I;
rightKerningGroup = E;
unicode = 0045;
},
{
glyphname = E.sc;
lastChange = "2016-08-18 22:37:14 +0000";
layers = (
{
anchors = (
{
name = bottom;
position = "{345, 0}";
},
{
name = top;
position = "{345, 707}";
}
);
background = {
paths = (
{
closed = 1;
nodes = (
"159 71 LINE",
"159 248 LINE",
"441 248 LINE",
"441 314 LINE",
"159 314 LINE",
"159 480 LINE",
"483 480 LINE",
"483 551 LINE",
"79 551 LINE",
"79 0 LINE",
"491 0 LINE",
"491 71 LINE"
);
}
);
};
layerId = UUID0;
paths = (
{
closed = 1;
nodes = (
"159 71 LINE",
"159 248 LINE",
"441 248 LINE",
"441 314 LINE",
"159 314 LINE",
"159 480 LINE",
"483 480 LINE",
"483 551 LINE",
"79 551 LINE",
"79 0 LINE",
"491 0 LINE",
"491 71 LINE"
);
}
);
width = 530;
}
);
leftKerningGroup = I.sc;
},
{
glyphname = Eng;
lastChange = "2016-08-18 22:37:14 +0000";
layers = (
{
background = {
paths = (
{
closed = 1;
nodes = (
"589 15 LINE",
"589 -23 LINE SMOOTH",
"589 -72 OFFCURVE",
"547 -108 OFFCURVE",
"504 -108 CURVE SMOOTH",
"480 -108 OFFCURVE",
"454 -102 OFFCURVE",
"436 -85 CURVE",
"395 -144 LINE",
"427 -173 OFFCURVE",
"469 -186 OFFCURVE",
"514 -186 CURVE SMOOTH",
"598 -186 OFFCURVE",
"677 -118 OFFCURVE",
"677 -20 CURVE SMOOTH",
"677 709 LINE",
"587 709 LINE",
"587 161 LINE",
"154 710 LINE",
"85 710 LINE",
"85 0 LINE",
"175 0 LINE",
"175 540 LINE"
);
}
);
};
layerId = UUID0;
paths = (
{
closed = 1;
nodes = (
"589 15 LINE",
"589 -23 LINE SMOOTH",
"589 -72 OFFCURVE",
"547 -108 OFFCURVE",
"504 -108 CURVE SMOOTH",
"480 -108 OFFCURVE",
"454 -102 OFFCURVE",
"436 -85 CURVE",
"395 -144 LINE",
"427 -173 OFFCURVE",
"469 -186 OFFCURVE",
"514 -186 CURVE SMOOTH",
"598 -186 OFFCURVE",
"677 -118 OFFCURVE",
"677 -20 CURVE SMOOTH",
"677 709 LINE",
"587 709 LINE",
"587 161 LINE",
"154 710 LINE",
"85 710 LINE",
"85 0 LINE",
"175 0 LINE",
"175 540 LINE"
);
}
);
width = 762;
}
);
leftKerningGroup = I;
rightKerningGroup = I;
unicode = 014A;
},
{
glyphname = Eth;
lastChange = "2016-08-18 22:37:14 +0000";
layers = (
{
background = {
paths = (
{
closed = 1;
nodes = (
"342 323 LINE",
"342 391 LINE",
"34 391 LINE",
"34 323 LINE"
);
}
);
};
components = (
{
name = D;
transform = "{1, 0, 0, 1, 6, 0}";
}
);
layerId = UUID0;
paths = (
{
closed = 1;
nodes = (
"342 323 LINE",
"342 391 LINE",
"34 391 LINE",
"34 323 LINE"
);
}
);
width = 722;
}
);
leftKerningGroup = I;
rightKerningGroup = D;
unicode = 00D0;
},
{
glyphname = Euro;
lastChange = "2016-08-18 22:37:14 +0000";
layers = (
{
background = {
paths = (
{
closed = 1;
nodes = (
"485 259 LINE",
"507 311 LINE",
"55 311 LINE",
"33 259 LINE"
);
},
{
closed = 1;
nodes = (
"79 422 LINE",
"57 370 LINE",
"520 370 LINE",
"542 422 LINE"
);
}
);
};
components = (
{
name = C;
transform = "{1, 0, 0, 1, 91, 0}";
}
);
layerId = UUID0;
paths = (
{
closed = 1;
nodes = (
"485 259 LINE",
"507 311 LINE",
"55 311 LINE",
"33 259 LINE"
);
},
{
closed = 1;
nodes = (
"79 422 LINE",
"57 370 LINE",
"520 370 LINE",
"542 422 LINE"
);
}
);
width = 795;
}
);
unicode = 20AC;
},
{
glyphname = F;
lastChange = "2016-08-18 22:37:14 +0000";
layers = (
{
background = {
paths = (
{
closed = 1;
nodes = (
"175 0 LINE",
"175 318 LINE",
"494 318 LINE",
"494 393 LINE",
"175 393 LINE",
"175 630 LINE",
"554 630 LINE",
"554 710 LINE",
"85 710 LINE",
"85 0 LINE"
);
}
);
};
layerId = UUID0;
paths = (
{
closed = 1;
nodes = (
"175 0 LINE",
"175 318 LINE",
"494 318 LINE",
"494 393 LINE",
"175 393 LINE",
"175 630 LINE",
"554 630 LINE",
"554 710 LINE",
"85 710 LINE",
"85 0 LINE"
);
}
);
width = 583;
}
);
leftKerningGroup = I;
unicode = 0046;
},
{
glyphname = F.sc;
lastChange = "2016-08-18 22:37:14 +0000";
layers = (
{
background = {
paths = (
{
closed = 1;
nodes = (
"159 0 LINE",
"159 241 LINE",
"429 241 LINE",
"429 308 LINE",
"159 308 LINE",
"159 480 LINE",
"479 480 LINE",
"479 551 LINE",
"79 551 LINE",
"79 0 LINE"
);
}
);
};
layerId = UUID0;
paths = (
{
closed = 1;
nodes = (
"159 0 LINE",
"159 241 LINE",
"429 241 LINE",
"429 308 LINE",
"159 308 LINE",
"159 480 LINE",
"479 480 LINE",
"479 551 LINE",
"79 551 LINE",
"79 0 LINE"
);
}
);
width = 511;
}
);
leftKerningGroup = I.sc;
},
{
glyphname = G;
lastChange = "2016-08-18 22:37:14 +0000";
layers = (
{
anchors = (
{
name = bottom;
position = "{375, 0}";
},
{
name = top;
position = "{369, 708}";
}
);
background = {
paths = (
{
closed = 1;
nodes = (
"457 -5 OFFCURVE",
"532 32 OFFCURVE",
"597 109 CURVE",
"597 202 LINE",
"531 116 OFFCURVE",
"458 76 OFFCURVE",
"377 76 CURVE SMOOTH",
"237 76 OFFCURVE",
"130 203 OFFCURVE",
"130 355 CURVE SMOOTH",
"130 499 OFFCURVE",
"223 634 OFFCURVE",
"368 634 CURVE SMOOTH",
"455 634 OFFCURVE",
"530 594 OFFCURVE",
"572 512 CURVE",
"641 560 LINE",
"595 652 OFFCURVE",
"507 715 OFFCURVE",
"370 715 CURVE SMOOTH",
"180 715 OFFCURVE",
"39 548 OFFCURVE",
"39 357 CURVE SMOOTH",
"39 174 OFFCURVE",
"182 -5 OFFCURVE",
"370 -5 CURVE SMOOTH"
);
},
{
closed = 1;
nodes = (
"586 0 LINE",
"662 0 LINE",
"662 354 LINE",
"433 354 LINE",
"433 286 LINE",
"586 286 LINE"
);
}
);
};
layerId = UUID0;
paths = (
{
closed = 1;
nodes = (
"370 -5 LINE SMOOTH",
"457 -5 OFFCURVE",
"532 32 OFFCURVE",
"597 109 CURVE",
"597 202 LINE",
"531 116 OFFCURVE",
"458 76 OFFCURVE",
"377 76 CURVE SMOOTH",
"237 76 OFFCURVE",
"130 203 OFFCURVE",
"130 355 CURVE SMOOTH",
"130 499 OFFCURVE",
"223 634 OFFCURVE",
"368 634 CURVE SMOOTH",
"455 634 OFFCURVE",
"530 594 OFFCURVE",
"572 512 CURVE",
"641 560 LINE",
"595 652 OFFCURVE",
"507 715 OFFCURVE",
"370 715 CURVE SMOOTH",
"180 715 OFFCURVE",
"39 548 OFFCURVE",
"39 357 CURVE SMOOTH",
"39 174 OFFCURVE",
"182 -5 OFFCURVE",
"370 -5 CURVE SMOOTH"
);
},
{
closed = 1;
nodes = (
"586 0 LINE",
"662 0 LINE",
"662 354 LINE",
"433 354 LINE",
"433 286 LINE",
"586 286 LINE"
);
}
);
width = 714;
}
);
leftKerningGroup = O;
rightKerningGroup = G;
unicode = 0047;
},
{
glyphname = G.alt;
lastChange = "2016-08-18 22:37:14 +0000";
layers = (
{
background = {
paths = (
{
closed = 1;
nodes = (
"562 -5 OFFCURVE",
"690 141 OFFCURVE",
"703 308 CURVE SMOOTH",
"703 314 OFFCURVE",
"704 353 OFFCURVE",
"704 357 CURVE",
"414 357 LINE",
"414 277 LINE",
"606 277 LINE",
"587 174 OFFCURVE",
"497 76 OFFCURVE",
"374 76 CURVE SMOOTH",
"224 76 OFFCURVE",
"131 217 OFFCURVE",
"131 354 CURVE SMOOTH",
"131 493 OFFCURVE",
"224 634 OFFCURVE",
"374 634 CURVE SMOOTH",
"475 634 OFFCURVE",
"544 565 OFFCURVE",
"579 506 CURVE",
"650 563 LINE",
"594 655 OFFCURVE",
"498 715 OFFCURVE",
"379 715 CURVE SMOOTH",
"178 715 OFFCURVE",
"40 543 OFFCURVE",
"40 358 CURVE SMOOTH",
"40 172 OFFCURVE",
"181 -5 OFFCURVE",
"381 -5 CURVE SMOOTH"
);
}
);
};
layerId = UUID0;
paths = (
{
closed = 1;
nodes = (
"381 -5 LINE SMOOTH",
"562 -5 OFFCURVE",
"690 141 OFFCURVE",
"703 308 CURVE SMOOTH",
"703 314 OFFCURVE",
"704 353 OFFCURVE",
"704 357 CURVE",
"414 357 LINE",
"414 277 LINE",
"606 277 LINE",
"587 174 OFFCURVE",
"497 76 OFFCURVE",
"374 76 CURVE SMOOTH",
"224 76 OFFCURVE",
"131 217 OFFCURVE",
"131 354 CURVE SMOOTH",
"131 493 OFFCURVE",
"224 634 OFFCURVE",
"374 634 CURVE SMOOTH",
"475 634 OFFCURVE",
"544 565 OFFCURVE",
"579 506 CURVE",
"650 563 LINE",
"594 655 OFFCURVE",
"498 715 OFFCURVE",
"379 715 CURVE SMOOTH",
"178 715 OFFCURVE",
"40 543 OFFCURVE",
"40 358 CURVE SMOOTH",
"40 172 OFFCURVE",
"181 -5 OFFCURVE",
"381 -5 CURVE SMOOTH"
);
}
);
width = 730;
}
);
leftKerningGroup = O;
},
{
glyphname = G.sc;
lastChange = "2016-08-18 22:37:14 +0000";
layers = (
{
anchors = (
{
name = bottom;
position = "{379, 0}";
},
{
name = top;
position = "{367, 707}";
}
);
background = {
paths = (
{
closed = 1;
nodes = (
"392 -4 OFFCURVE",
"454 23 OFFCURVE",
"509 80 CURVE",
"509 162 LINE",
"454 99 OFFCURVE",
"393 68 OFFCURVE",
"326 68 CURVE SMOOTH",
"210 68 OFFCURVE",
"121 162 OFFCURVE",
"121 275 CURVE SMOOTH",
"121 383 OFFCURVE",
"198 483 OFFCURVE",
"318 483 CURVE SMOOTH",
"391 483 OFFCURVE",
"454 453 OFFCURVE",
"488 391 CURVE",
"550 435 LINE",
"511 506 OFFCURVE",
"435 555 OFFCURVE",
"321 555 CURVE SMOOTH",
"159 555 OFFCURVE",
"40 427 OFFCURVE",
"40 278 CURVE SMOOTH",
"40 134 OFFCURVE",
"161 -4 OFFCURVE",
"320 -4 CURVE SMOOTH"
);
},
{
closed = 1;
nodes = (
"500 0 LINE",
"568 0 LINE",
"568 277 LINE",
"371 277 LINE",
"371 217 LINE",
"500 217 LINE"
);
}
);
};
layerId = UUID0;
paths = (
{
closed = 1;
nodes = (
"320 -4 LINE SMOOTH",
"392 -4 OFFCURVE",
"454 23 OFFCURVE",
"509 80 CURVE",
"509 162 LINE",
"454 99 OFFCURVE",
"393 68 OFFCURVE",
"326 68 CURVE SMOOTH",
"210 68 OFFCURVE",
"121 162 OFFCURVE",
"121 275 CURVE SMOOTH",
"121 383 OFFCURVE",
"198 483 OFFCURVE",
"318 483 CURVE SMOOTH",
"391 483 OFFCURVE",
"454 453 OFFCURVE",
"488 391 CURVE",
"550 435 LINE",
"511 506 OFFCURVE",
"435 555 OFFCURVE",
"321 555 CURVE SMOOTH",
"159 555 OFFCURVE",
"40 427 OFFCURVE",
"40 278 CURVE SMOOTH",
"40 134 OFFCURVE",
"161 -4 OFFCURVE",
"320 -4 CURVE SMOOTH"
);
},
{
closed = 1;
nodes = (
"500 0 LINE",
"568 0 LINE",
"568 277 LINE",
"371 277 LINE",
"371 217 LINE",
"500 217 LINE"
);
}
);
width = 619;
}
);
leftKerningGroup = O.sc;
},
{
glyphname = commaaccent;
lastChange = "2016-08-18 22:37:14 +0000";
layers = (
{
anchors = (
{
name = _bottom;
position = "{100, 0}";
}
);
background = {
paths = (
{
closed = 1;
nodes = (
"106 -213 LINE",
"136 -132 LINE",
"136 -48 LINE",
"58 -48 LINE",
"58 -132 LINE",
"83 -132 LINE",
"63 -213 LINE"
);
}
);
};
layerId = UUID0;
paths = (
{
closed = 1;
nodes = (
"106 -213 LINE",
"136 -132 LINE",
"136 -48 LINE",
"58 -48 LINE",
"58 -132 LINE",
"83 -132 LINE",
"63 -213 LINE"
);
}
);
width = 168;
}
);
unicode = F6C3;
},
{
glyphname = H;
lastChange = "2016-08-18 22:37:14 +0000";
layers = (
{
anchors = (
{
name = top;
position = "{373, 708}";
}
);
background = {
paths = (
{
closed = 1;
nodes = (
"566 710 LINE",
"566 403 LINE",
"175 403 LINE",
"175 710 LINE",
"85 710 LINE",
"85 0 LINE",
"175 0 LINE",
"175 323 LINE",
"566 323 LINE",
"566 0 LINE",
"656 0 LINE",
"656 710 LINE"
);
}
);
};
layerId = UUID0;
paths = (
{
closed = 1;
nodes = (
"566 710 LINE",
"566 403 LINE",
"175 403 LINE",
"175 710 LINE",
"85 710 LINE",
"85 0 LINE",
"175 0 LINE",
"175 323 LINE",
"566 323 LINE",
"566 0 LINE",
"656 0 LINE",
"656 710 LINE"
);
}
);
width = 741;
}
);
leftKerningGroup = I;
rightKerningGroup = I;
unicode = 0048;
},
{
glyphname = H.sc;
lastChange = "2016-08-18 22:37:14 +0000";
layers = (
{
anchors = (
{
name = top;
position = "{368, 707}";
}
);
background = {
paths = (
{
closed = 1;
nodes = (
"487 551 LINE",
"487 318 LINE",
"159 318 LINE",
"159 551 LINE",
"79 551 LINE",
"79 0 LINE",
"159 0 LINE",
"159 246 LINE",
"487 246 LINE",
"487 0 LINE",
"567 0 LINE",
"567 551 LINE"
);
}
);
};
layerId = UUID0;
paths = (
{
closed = 1;
nodes = (
"487 551 LINE",
"487 318 LINE",
"159 318 LINE",
"159 551 LINE",
"79 551 LINE",
"79 0 LINE",
"159 0 LINE",
"159 246 LINE",
"487 246 LINE",
"487 0 LINE",
"567 0 LINE",
"567 551 LINE"
);
}
);
width = 646;
}
);
leftKerningGroup = I.sc;
rightKerningGroup = I.sc;
},
{
glyphname = Hbar;
lastChange = "2016-08-18 22:37:14 +0000";
layers = (
{
background = {
paths = (
{
closed = 1;
nodes = (
"711 548 LINE",
"711 595 LINE",
"40 595 LINE",
"40 548 LINE"
);
}
);
};
components = (
{
name = H;
transform = "{1, 0, 0, 1, 5, 0}";
}
);
layerId = UUID0;
paths = (
{
closed = 1;
nodes = (
"711 548 LINE",
"711 595 LINE",
"40 595 LINE",
"40 548 LINE"
);
}
);
width = 751;
}
);
leftKerningGroup = I;
rightKerningGroup = I;
unicode = 0126;
},
{
glyphname = I;
lastChange = "2016-08-18 22:37:14 +0000";
layers = (
{
anchors = (
{
name = bottom;
position = "{130, 0}";
},
{
name = top;
position = "{130, 708}";
}
);
background = {
paths = (
{
closed = 1;
nodes = (
"175 0 LINE",
"175 710 LINE",
"85 710 LINE",
"85 0 LINE"
);
}
);
};
layerId = UUID0;
paths = (
{
closed = 1;
nodes = (
"175 0 LINE",
"175 710 LINE",
"85 710 LINE",
"85 0 LINE"
);
}
);
width = 260;
}
);
leftKerningGroup = I;
rightKerningGroup = I;
unicode = 0049;
},
{
glyphname = I.sc;
lastChange = "2016-08-18 22:37:14 +0000";
layers = (
{
anchors = (
{
name = bottom;
position = "{111, 0}";
},
{
name = top;
position = "{110, 707}";
}
);
background = {
paths = (
{
closed = 1;
nodes = (
"159 0 LINE",
"159 551 LINE",
"79 551 LINE",
"79 0 LINE"
);
}
);
};
layerId = UUID0;
paths = (
{
closed = 1;
nodes = (
"159 0 LINE",
"159 551 LINE",
"79 551 LINE",
"79 0 LINE"
);
}
);
width = 238;
}
);
leftKerningGroup = I.sc;
rightKerningGroup = I.sc;
},
{
glyphname = J;
lastChange = "2016-08-18 22:37:14 +0000";
layers = (
{
anchors = (
{
name = top;
position = "{364, 708}";
}
);
background = {
paths = (
{
closed = 1;
nodes = (
"12 33 LINE",
"54 4 OFFCURVE",
"105 -11 OFFCURVE",
"166 -11 CURVE SMOOTH",
"381 -11 OFFCURVE",
"408 133 OFFCURVE",
"408 349 CURVE SMOOTH",
"408 710 LINE",
"318 710 LINE",
"318 349 LINE SMOOTH",
"318 168 OFFCURVE",
"301 70 OFFCURVE",
"166 70 CURVE SMOOTH",
"109 70 OFFCURVE",
"61 88 OFFCURVE",
"35 106 CURVE"
);
}
);
};
layerId = UUID0;
paths = (
{
closed = 1;
nodes = (
"12 33 LINE",
"54 4 OFFCURVE",
"105 -11 OFFCURVE",
"166 -11 CURVE SMOOTH",
"381 -11 OFFCURVE",
"408 133 OFFCURVE",
"408 349 CURVE SMOOTH",
"408 710 LINE",
"318 710 LINE",
"318 349 LINE SMOOTH",
"318 168 OFFCURVE",
"301 70 OFFCURVE",
"166 70 CURVE SMOOTH",
"109 70 OFFCURVE",
"61 88 OFFCURVE",
"35 106 CURVE"
);
}
);
width = 485;
}
);
leftKerningGroup = J;
rightKerningGroup = J;
unicode = 004A;
},
{
glyphname = J.sc;
lastChange = "2016-08-18 22:37:14 +0000";
layers = (
{
anchors = (
{
name = top;
position = "{366, 707}";
}
);
background = {
paths = (
{
closed = 1;
nodes = (
"18 25 LINE",
"54 3 OFFCURVE",
"98 -8 OFFCURVE",
"150 -8 CURVE SMOOTH",
"335 -8 OFFCURVE",
"357 103 OFFCURVE",
"357 271 CURVE SMOOTH",
"357 551 LINE",
"277 551 LINE",
"277 271 LINE SMOOTH",
"277 135 OFFCURVE",
"263 63 OFFCURVE",
"150 63 CURVE SMOOTH",
"101 63 OFFCURVE",
"60 78 OFFCURVE",
"39 91 CURVE"
);
}
);
};
layerId = UUID0;
paths = (
{
closed = 1;
nodes = (
"18 25 LINE",
"54 3 OFFCURVE",
"98 -8 OFFCURVE",
"150 -8 CURVE SMOOTH",
"335 -8 OFFCURVE",
"357 103 OFFCURVE",
"357 271 CURVE SMOOTH",
"357 551 LINE",
"277 551 LINE",
"277 271 LINE SMOOTH",
"277 135 OFFCURVE",
"263 63 OFFCURVE",
"150 63 CURVE SMOOTH",
"101 63 OFFCURVE",
"60 78 OFFCURVE",
"39 91 CURVE"
);
}
);
width = 429;
}
);
},
{
glyphname = K;
lastChange = "2016-08-18 22:37:14 +0000";
layers = (
{
anchors = (
{
name = bottom;
position = "{338, 0}";
}
);
background = {
paths = (
{
closed = 1;
nodes = (
"175 0 LINE",
"175 217 LINE",
"298 345 LINE",
"556 0 LINE",
"654 0 LINE",
"353 397 LINE",
"638 710 LINE",
"541 710 LINE",
"175 317 LINE",
"175 709 LINE",
"85 709 LINE",
"85 0 LINE"
);
}
);
};
layerId = UUID0;
paths = (
{
closed = 1;
nodes = (
"175 0 LINE",
"175 217 LINE",
"298 345 LINE",
"556 0 LINE",
"654 0 LINE",
"353 397 LINE",
"638 710 LINE",
"541 710 LINE",
"175 317 LINE",
"175 709 LINE",
"85 709 LINE",
"85 0 LINE"
);
}
);
width = 652;
}
);
leftKerningGroup = I;
rightKerningGroup = K;
unicode = 004B;
},
{
glyphname = K.sc;
lastChange = "2016-08-18 22:37:14 +0000";
layers = (
{
anchors = (
{
name = bottom;
position = "{315, 0}";
}
);
background = {
paths = (
{
closed = 1;
nodes = (
"159 0 LINE",
"159 168 LINE",
"262 261 LINE",
"480 0 LINE",
"566 0 LINE",
"311 308 LINE",
"553 551 LINE",
"466 551 LINE",
"159 256 LINE",
"159 551 LINE",
"79 551 LINE",
"79 0 LINE"
);
}
);
};
layerId = UUID0;
paths = (
{
closed = 1;
nodes = (
"159 0 LINE",
"159 168 LINE",
"262 261 LINE",
"480 0 LINE",
"566 0 LINE",
"311 308 LINE",
"553 551 LINE",
"466 551 LINE",
"159 256 LINE",
"159 551 LINE",
"79 551 LINE",
"79 0 LINE"
);
}
);
width = 572;
}
);
leftKerningGroup = I.sc;
},
{
glyphname = L;
lastChange = "2016-08-18 22:37:14 +0000";
layers = (
{
anchors = (
{
name = bottom;
position = "{335, 0}";
},
{
name = top;
position = "{348, 708}";
}
);
background = {
paths = (
{
closed = 1;
nodes = (
"571 0 LINE",
"571 80 LINE",
"175 80 LINE",
"175 710 LINE",
"85 710 LINE",
"85 0 LINE"
);
}
);
};
layerId = UUID0;
paths = (
{
closed = 1;
nodes = (
"571 0 LINE",
"571 80 LINE",
"175 80 LINE",
"175 710 LINE",
"85 710 LINE",
"85 0 LINE"
);
}
);
width = 584;
}
);
leftKerningGroup = I;
rightKerningGroup = L;
unicode = 004C;
},
{
glyphname = L.sc;
lastChange = "2016-08-18 22:37:14 +0000";
layers = (
{
anchors = (
{
name = bottom;
position = "{332, 0}";
},
{
name = top;
position = "{332, 707}";
}
);
background = {
paths = (
{
closed = 1;
nodes = (
"476 0 LINE",
"476 71 LINE",
"159 71 LINE",
"159 551 LINE",
"79 551 LINE",
"79 0 LINE"
);
}
);
};
layerId = UUID0;
paths = (
{
closed = 1;
nodes = (
"476 0 LINE",
"476 71 LINE",
"159 71 LINE",
"159 551 LINE",
"79 551 LINE",
"79 0 LINE"
);
}
);
width = 492;
}
);
leftKerningGroup = I.sc;
},
{
glyphname = caron.alt;
lastChange = "2016-08-18 22:37:14 +0000";
layers = (
{
anchors = (
{
name = _top;
position = "{91, 522}";
}
);
background = {
paths = (
{
closed = 1;
nodes = (
"194 730 LINE",
"106 730 LINE",
"48 629 LINE",
"106 609 LINE"
);
}
);
};
layerId = UUID0;
paths = (
{
closed = 1;
nodes = (
"194 730 LINE",
"106 730 LINE",
"48 629 LINE",
"106 609 LINE"
);
}
);
width = 232;
}
);
},
{
glyphname = periodcentered;
lastChange = "2016-08-18 22:37:14 +0000";
layers = (
{
background = {
paths = (
{
closed = 1;
nodes = (
"138 245 LINE",
"138 369 LINE",
"64 369 LINE",
"64 245 LINE"
);
}
);
};
layerId = UUID0;
paths = (
{
closed = 1;
nodes = (
"138 245 LINE",
"138 369 LINE",
"64 369 LINE",
"64 245 LINE"
);
}
);
width = 202;
}
);
unicode = 00B7;
},
{
glyphname = Lslash;
lastChange = "2016-08-18 22:37:14 +0000";
layers = (
{
background = {
paths = (
{
closed = 1;
nodes = (
"349 474 LINE",
"324 523 LINE",
"10 283 LINE",
"36 233 LINE"
);
}
);
};
components = (
{
name = L;
transform = "{1, 0, 0, 1, 7, 0}";
}
);
layerId = UUID0;
paths = (
{
closed = 1;
nodes = (
"349 474 LINE",
"324 523 LINE",
"10 283 LINE",
"36 233 LINE"
);
}
);
width = 591;
}
);
leftKerningGroup = I;
rightKerningGroup = L;
unicode = 0141;
},
{
glyphname = M;
lastChange = "2016-08-18 22:37:14 +0000";
layers = (
{
background = {
paths = (
{
closed = 1;
nodes = (
"789 0 LINE",
"789 710 LINE",
"695 710 LINE",
"437 249 LINE",
"180 710 LINE",
"85 710 LINE",
"85 0 LINE",
"175 0 LINE",
"175 549 LINE",
"412 128 LINE",
"463 128 LINE",
"699 549 LINE",
"699 0 LINE"
);
}
);
};
layerId = UUID0;
paths = (
{
closed = 1;
nodes = (
"789 0 LINE",
"789 710 LINE",
"695 710 LINE",
"437 249 LINE",
"180 710 LINE",
"85 710 LINE",
"85 0 LINE",
"175 0 LINE",
"175 549 LINE",
"412 128 LINE",
"463 128 LINE",
"699 549 LINE",
"699 0 LINE"
);
}
);
width = 874;
}
);
leftKerningGroup = I;
rightKerningGroup = I;
unicode = 004D;
},
{
glyphname = M.sc;
lastChange = "2016-08-18 22:37:14 +0000";
layers = (
{
background = {
paths = (
{
closed = 1;
nodes = (
"680 0 LINE",
"680 551 LINE",
"596 551 LINE",
"380 206 LINE",
"164 551 LINE",
"79 551 LINE",
"79 0 LINE",
"159 0 LINE",
"159 409 LINE",
"357 98 LINE",
"402 98 LINE",
"600 409 LINE",
"600 0 LINE"
);
}
);
};
layerId = UUID0;
paths = (
{
closed = 1;
nodes = (
"680 0 LINE",
"680 551 LINE",
"596 551 LINE",
"380 206 LINE",
"164 551 LINE",
"79 551 LINE",
"79 0 LINE",
"159 0 LINE",
"159 409 LINE",
"357 98 LINE",
"402 98 LINE",
"600 409 LINE",
"600 0 LINE"
);
}
);
width = 759;
}
);
leftKerningGroup = I.sc;
rightKerningGroup = I.sc;
},
{
glyphname = N;
lastChange = "2016-08-18 22:37:14 +0000";
layers = (
{
anchors = (
{
name = bottom;
position = "{387, 0}";
},
{
name = top;
position = "{387, 708}";
}
);
background = {
paths = (
{
closed = 1;
nodes = (
"609 0 LINE",
"685 0 LINE",
"685 709 LINE",
"595 709 LINE",
"595 157 LINE",
"155 710 LINE",
"85 710 LINE",
"85 0 LINE",
"175 0 LINE",
"175 542 LINE"
);
}
);
};
layerId = UUID0;
paths = (
{
closed = 1;
nodes = (
"609 0 LINE",
"685 0 LINE",
"685 709 LINE",
"595 709 LINE",
"595 157 LINE",
"155 710 LINE",
"85 710 LINE",
"85 0 LINE",
"175 0 LINE",
"175 542 LINE"
);
}
);
width = 770;
}
);
leftKerningGroup = I;
rightKerningGroup = I;
unicode = 004E;
},
{
glyphname = N.sc;
lastChange = "2016-08-18 22:37:14 +0000";
layers = (
{
anchors = (
{
name = bottom;
position = "{395, 0}";
},
{
name = top;
position = "{394, 707}";
}
);
background = {
paths = (
{
closed = 1;
nodes = (
"524 0 LINE",
"591 0 LINE",
"591 551 LINE",
"511 551 LINE",
"511 141 LINE",
"141 551 LINE",
"79 551 LINE",
"79 0 LINE",
"159 0 LINE",
"159 402 LINE"
);
}
);
};
layerId = UUID0;
paths = (
{
closed = 1;
nodes = (
"524 0 LINE",
"591 0 LINE",
"591 551 LINE",
"511 551 LINE",
"511 141 LINE",
"141 551 LINE",
"79 551 LINE",
"79 0 LINE",
"159 0 LINE",
"159 402 LINE"
);
}
);
width = 670;
}
);
leftKerningGroup = I.sc;
rightKerningGroup = I.sc;
},
{
glyphname = O;
lastChange = "2016-08-18 22:37:14 +0000";
layers = (
{
anchors = (
{
name = bottom;
position = "{373, 0}";
},
{
name = top;
position = "{375, 708}";
}
);
background = {
paths = (
{
closed = 1;
nodes = (
"565 -5 OFFCURVE",
"708 165 OFFCURVE",
"708 354 CURVE SMOOTH",
"708 532 OFFCURVE",
"574 715 OFFCURVE",
"375 715 CURVE SMOOTH",
"183 715 OFFCURVE",
"39 544 OFFCURVE",
"39 355 CURVE SMOOTH",
"39 173 OFFCURVE",
"174 -5 OFFCURVE",
"373 -5 CURVE SMOOTH"
);
},
{
closed = 1;
nodes = (
"130 493 OFFCURVE",
"223 633 OFFCURVE",
"374 633 CURVE SMOOTH",
"518 633 OFFCURVE",
"617 500 OFFCURVE",
"617 355 CURVE SMOOTH",
"617 218 OFFCURVE",
"525 76 OFFCURVE",
"374 76 CURVE SMOOTH",
"227 76 OFFCURVE",
"130 210 OFFCURVE",
"130 355 CURVE SMOOTH"
);
}
);
};
layerId = UUID0;
paths = (
{
closed = 1;
nodes = (
"373 -5 LINE SMOOTH",
"565 -5 OFFCURVE",
"708 165 OFFCURVE",
"708 354 CURVE SMOOTH",
"708 532 OFFCURVE",
"574 715 OFFCURVE",
"375 715 CURVE SMOOTH",
"183 715 OFFCURVE",
"39 544 OFFCURVE",
"39 355 CURVE SMOOTH",
"39 173 OFFCURVE",
"174 -5 OFFCURVE",
"373 -5 CURVE SMOOTH"
);
},
{
closed = 1;
nodes = (
"130 355 LINE SMOOTH",
"130 493 OFFCURVE",
"223 633 OFFCURVE",
"374 633 CURVE SMOOTH",
"518 633 OFFCURVE",
"617 500 OFFCURVE",
"617 355 CURVE SMOOTH",
"617 218 OFFCURVE",
"525 76 OFFCURVE",
"374 76 CURVE SMOOTH",
"227 76 OFFCURVE",
"130 210 OFFCURVE",
"130 355 CURVE SMOOTH"
);
}
);
width = 748;
}
);
leftKerningGroup = O;
rightKerningGroup = O;
unicode = 004F;
},
{
glyphname = O.sc;
lastChange = "2016-08-18 22:37:14 +0000";
layers = (
{
anchors = (
{
name = bottom;
position = "{376, 0}";
},
{
name = top;
position = "{376, 707}";
}
);
background = {
paths = (
{
closed = 1;
nodes = (
"489 -4 OFFCURVE",
"610 128 OFFCURVE",
"610 274 CURVE SMOOTH",
"610 413 OFFCURVE",
"496 554 OFFCURVE",
"326 554 CURVE SMOOTH",
"162 554 OFFCURVE",
"40 422 OFFCURVE",
"40 276 CURVE SMOOTH",
"40 134 OFFCURVE",
"155 -4 OFFCURVE",
"325 -4 CURVE SMOOTH"
);
},
{
closed = 1;
nodes = (
"121 377 OFFCURVE",
"199 482 OFFCURVE",
"325 482 CURVE SMOOTH",
"446 482 OFFCURVE",
"528 383 OFFCURVE",
"528 276 CURVE SMOOTH",
"528 174 OFFCURVE",
"452 68 OFFCURVE",
"326 68 CURVE SMOOTH",
"202 68 OFFCURVE",
"121 168 OFFCURVE",
"121 275 CURVE SMOOTH"
);
}
);
};
layerId = UUID0;
paths = (
{
closed = 1;
nodes = (
"325 -4 LINE SMOOTH",
"489 -4 OFFCURVE",
"610 128 OFFCURVE",
"610 274 CURVE SMOOTH",
"610 413 OFFCURVE",
"496 554 OFFCURVE",
"326 554 CURVE SMOOTH",
"162 554 OFFCURVE",
"40 422 OFFCURVE",
"40 276 CURVE SMOOTH",
"40 134 OFFCURVE",
"155 -4 OFFCURVE",
"325 -4 CURVE SMOOTH"
);
},
{
closed = 1;
nodes = (
"121 275 LINE SMOOTH",
"121 377 OFFCURVE",
"199 482 OFFCURVE",
"325 482 CURVE SMOOTH",
"446 482 OFFCURVE",
"528 383 OFFCURVE",
"528 276 CURVE SMOOTH",
"528 174 OFFCURVE",
"452 68 OFFCURVE",
"326 68 CURVE SMOOTH",
"202 68 OFFCURVE",
"121 168 OFFCURVE",
"121 275 CURVE SMOOTH"
);
}
);
width = 650;
}
);
leftKerningGroup = O.sc;
rightKerningGroup = O.sc;
},
{
glyphname = OE;
lastChange = "2016-08-18 22:37:14 +0000";
layers = (
{
background = {
paths = (
{
closed = 1;
nodes = (
"710 80 LINE",
"710 322 LINE",
"1031 322 LINE",
"1031 402 LINE",
"710 402 LINE",
"710 630 LINE",
"1085 630 LINE",
"1085 710 LINE",
"620 710 LINE",
"620 553 LINE",
"576 643 OFFCURVE",
"487 715 OFFCURVE",
"375 715 CURVE SMOOTH",
"183 715 OFFCURVE",
"39 544 OFFCURVE",
"39 355 CURVE SMOOTH",
"39 173 OFFCURVE",
"175 -5 OFFCURVE",
"374 -5 CURVE SMOOTH",
"483 -5 OFFCURVE",
"575 65 OFFCURVE",
"620 157 CURVE",
"620 0 LINE",
"1094 0 LINE",
"1094 80 LINE"
);
},
{
closed = 1;
nodes = (
"227 76 OFFCURVE",
"130 210 OFFCURVE",
"130 355 CURVE SMOOTH",
"130 493 OFFCURVE",
"223 634 OFFCURVE",
"374 634 CURVE SMOOTH",
"518 634 OFFCURVE",
"617 500 OFFCURVE",
"617 356 CURVE SMOOTH",
"617 217 OFFCURVE",
"525 76 OFFCURVE",
"374 76 CURVE SMOOTH"
);
}
);
};
layerId = UUID0;
paths = (
{
closed = 1;
nodes = (
"710 80 LINE",
"710 322 LINE",
"1031 322 LINE",
"1031 402 LINE",
"710 402 LINE",
"710 630 LINE",
"1085 630 LINE",
"1085 710 LINE",
"620 710 LINE",
"620 553 LINE",
"576 643 OFFCURVE",
"487 715 OFFCURVE",
"375 715 CURVE SMOOTH",
"183 715 OFFCURVE",
"39 544 OFFCURVE",
"39 355 CURVE SMOOTH",
"39 173 OFFCURVE",
"175 -5 OFFCURVE",
"374 -5 CURVE SMOOTH",
"483 -5 OFFCURVE",
"575 65 OFFCURVE",
"620 157 CURVE",
"620 0 LINE",
"1094 0 LINE",
"1094 80 LINE"
);
},
{
closed = 1;
nodes = (
"374 76 LINE SMOOTH",
"227 76 OFFCURVE",
"130 210 OFFCURVE",
"130 355 CURVE SMOOTH",
"130 493 OFFCURVE",
"223 634 OFFCURVE",
"374 634 CURVE SMOOTH",
"518 634 OFFCURVE",
"617 500 OFFCURVE",
"617 356 CURVE SMOOTH",
"617 217 OFFCURVE",
"525 76 OFFCURVE",
"374 76 CURVE SMOOTH"
);
}
);
width = 1131;
}
);
leftKerningGroup = O;
rightKerningGroup = E;
unicode = 0152;
},
{
glyphname = hungarumlaut;
lastChange = "2016-08-18 22:37:14 +0000";
layers = (
{
anchors = (
{
name = _top;
position = "{149, 521}";
}
);
background = {
paths = (
{
closed = 1;
nodes = (
"170 730 LINE",
"94 730 LINE",
"40 629 LINE",
"86 609 LINE"
);
},
{
closed = 1;
nodes = (
"306 730 LINE",
"230 730 LINE",
"176 629 LINE",
"222 609 LINE"
);
}
);
};
layerId = UUID0;
paths = (
{
closed = 1;
nodes = (
"170 730 LINE",
"94 730 LINE",
"40 629 LINE",
"86 609 LINE"
);
},
{
closed = 1;
nodes = (
"306 730 LINE",
"230 730 LINE",
"176 629 LINE",
"222 609 LINE"
);
}
);
width = 338;
}
);
unicode = 02DD;
},
{
glyphname = slash;
lastChange = "2016-08-18 22:37:14 +0000";
layers = (
{
background = {
paths = (
{
closed = 1;
nodes = (
"506 710 LINE",
"27 0 LINE",
"125 0 LINE",
"605 710 LINE"
);
}
);
};
layerId = UUID0;
paths = (
{
closed = 1;
nodes = (
"506 710 LINE",
"27 0 LINE",
"125 0 LINE",
"605 710 LINE"
);
}
);
width = 633;
}
);
unicode = 002F;
},
{
glyphname = P;
lastChange = "2016-08-18 22:37:14 +0000";
layers = (
{
background = {
paths = (
{
closed = 1;
nodes = (
"175 0 LINE",
"175 255 LINE",
"387 255 LINE SMOOTH",
"512 255 OFFCURVE",
"596 366 OFFCURVE",
"596 483 CURVE SMOOTH",
"596 595 OFFCURVE",
"506 710 OFFCURVE",
"381 710 CURVE SMOOTH",
"85 710 LINE",
"85 0 LINE"
);
},
{
closed = 1;
nodes = (
"175 630 LINE",
"376 630 LINE SMOOTH",
"445 630 OFFCURVE",
"505 567 OFFCURVE",
"505 483 CURVE SMOOTH",
"505 402 OFFCURVE",
"456 335 OFFCURVE",
"382 335 CURVE SMOOTH",
"175 335 LINE"
);
}
);
};
layerId = UUID0;
paths = (
{
closed = 1;
nodes = (
"175 0 LINE",
"175 255 LINE",
"387 255 LINE SMOOTH",
"512 255 OFFCURVE",
"596 366 OFFCURVE",
"596 483 CURVE SMOOTH",
"596 595 OFFCURVE",
"506 710 OFFCURVE",
"381 710 CURVE SMOOTH",
"85 710 LINE",
"85 0 LINE"
);
},
{
closed = 1;
nodes = (
"175 630 LINE",
"376 630 LINE SMOOTH",
"445 630 OFFCURVE",
"505 567 OFFCURVE",
"505 483 CURVE SMOOTH",
"505 402 OFFCURVE",
"456 335 OFFCURVE",
"382 335 CURVE SMOOTH",
"175 335 LINE"
);
}
);
width = 623;
}
);
leftKerningGroup = I;
unicode = 0050;
},
{
glyphname = P.sc;
lastChange = "2016-08-18 22:37:14 +0000";
layers = (
{
background = {
paths = (
{
closed = 1;
nodes = (
"159 0 LINE",
"159 194 LINE",
"337 194 LINE SMOOTH",
"444 194 OFFCURVE",
"516 281 OFFCURVE",
"516 373 CURVE SMOOTH",
"516 460 OFFCURVE",
"439 551 OFFCURVE",
"331 551 CURVE SMOOTH",
"79 551 LINE",
"79 0 LINE"
);
},
{
closed = 1;
nodes = (
"159 480 LINE",
"327 480 LINE SMOOTH",
"385 480 OFFCURVE",
"435 435 OFFCURVE",
"435 373 CURVE SMOOTH",
"435 312 OFFCURVE",
"394 265 OFFCURVE",
"332 265 CURVE SMOOTH",
"159 265 LINE"
);
}
);
};
layerId = UUID0;
paths = (
{
closed = 1;
nodes = (
"159 0 LINE",
"159 194 LINE",
"337 194 LINE SMOOTH",
"444 194 OFFCURVE",
"516 281 OFFCURVE",
"516 373 CURVE SMOOTH",
"516 460 OFFCURVE",
"439 551 OFFCURVE",
"331 551 CURVE SMOOTH",
"79 551 LINE",
"79 0 LINE"
);
},
{
closed = 1;
nodes = (
"159 480 LINE",
"327 480 LINE SMOOTH",
"385 480 OFFCURVE",
"435 435 OFFCURVE",
"435 373 CURVE SMOOTH",
"435 312 OFFCURVE",
"394 265 OFFCURVE",
"332 265 CURVE SMOOTH",
"159 265 LINE"
);
}
);
width = 546;
}
);
leftKerningGroup = I.sc;
},
{
glyphname = Q;
lastChange = "2016-08-18 22:37:14 +0000";
layers = (
{
background = {
paths = (
{
closed = 1;
nodes = (
"565 -5 OFFCURVE",
"708 165 OFFCURVE",
"708 354 CURVE SMOOTH",
"708 532 OFFCURVE",
"574 715 OFFCURVE",
"375 715 CURVE SMOOTH",
"183 715 OFFCURVE",
"39 544 OFFCURVE",
"39 355 CURVE SMOOTH",
"39 173 OFFCURVE",
"174 -4 OFFCURVE",
"373 -5 CURVE SMOOTH"
);
},
{
closed = 1;
nodes = (
"227 76 OFFCURVE",
"130 210 OFFCURVE",
"130 355 CURVE SMOOTH",
"130 493 OFFCURVE",
"223 634 OFFCURVE",
"374 634 CURVE SMOOTH",
"518 634 OFFCURVE",
"617 500 OFFCURVE",
"617 355 CURVE SMOOTH",
"617 218 OFFCURVE",
"525 76 OFFCURVE",
"374 76 CURVE SMOOTH"
);
},
{
closed = 1;
nodes = (
"613 0 LINE",
"701 0 LINE",
"502 232 LINE",
"414 232 LINE"
);
}
);
};
layerId = UUID0;
paths = (
{
closed = 1;
nodes = (
"373 -5 LINE SMOOTH",
"565 -5 OFFCURVE",
"708 165 OFFCURVE",
"708 354 CURVE SMOOTH",
"708 532 OFFCURVE",
"574 715 OFFCURVE",
"375 715 CURVE SMOOTH",
"183 715 OFFCURVE",
"39 544 OFFCURVE",
"39 355 CURVE SMOOTH",
"39 173 OFFCURVE",
"174 -4 OFFCURVE",
"373 -5 CURVE SMOOTH"
);
},
{
closed = 1;
nodes = (
"374 76 LINE SMOOTH",
"227 76 OFFCURVE",
"130 210 OFFCURVE",
"130 355 CURVE SMOOTH",
"130 493 OFFCURVE",
"223 634 OFFCURVE",
"374 634 CURVE SMOOTH",
"518 634 OFFCURVE",
"617 500 OFFCURVE",
"617 355 CURVE SMOOTH",
"617 218 OFFCURVE",
"525 76 OFFCURVE",
"374 76 CURVE SMOOTH"
);
},
{
closed = 1;
nodes = (
"613 0 LINE",
"701 0 LINE",
"502 232 LINE",
"414 232 LINE"
);
}
);
width = 746;
}
);
leftKerningGroup = O;
rightKerningGroup = O;
unicode = 0051;
},
{
glyphname = Q.sc;
lastChange = "2016-08-18 22:37:14 +0000";
layers = (
{
background = {
paths = (
{
closed = 1;
nodes = (
"489 -4 OFFCURVE",
"610 128 OFFCURVE",
"610 274 CURVE SMOOTH",
"610 413 OFFCURVE",
"496 555 OFFCURVE",
"326 555 CURVE SMOOTH",
"162 555 OFFCURVE",
"40 422 OFFCURVE",
"40 276 CURVE SMOOTH",
"40 134 OFFCURVE",
"155 -4 OFFCURVE",
"325 -4 CURVE SMOOTH"
);
},
{
closed = 1;
nodes = (
"202 68 OFFCURVE",
"121 168 OFFCURVE",
"121 275 CURVE SMOOTH",
"121 377 OFFCURVE",
"199 483 OFFCURVE",
"325 483 CURVE SMOOTH",
"446 483 OFFCURVE",
"528 383 OFFCURVE",
"528 276 CURVE SMOOTH",
"528 174 OFFCURVE",
"452 68 OFFCURVE",
"326 68 CURVE SMOOTH"
);
},
{
closed = 1;
nodes = (
"528 0 LINE",
"606 0 LINE",
"434 187 LINE",
"355 187 LINE"
);
}
);
};
layerId = UUID0;
paths = (
{
closed = 1;
nodes = (
"325 -4 LINE SMOOTH",
"489 -4 OFFCURVE",
"610 128 OFFCURVE",
"610 274 CURVE SMOOTH",
"610 413 OFFCURVE",
"496 555 OFFCURVE",
"326 555 CURVE SMOOTH",
"162 555 OFFCURVE",
"40 422 OFFCURVE",
"40 276 CURVE SMOOTH",
"40 134 OFFCURVE",
"155 -4 OFFCURVE",
"325 -4 CURVE SMOOTH"
);
},
{
closed = 1;
nodes = (
"326 68 LINE SMOOTH",
"202 68 OFFCURVE",
"121 168 OFFCURVE",
"121 275 CURVE SMOOTH",
"121 377 OFFCURVE",
"199 483 OFFCURVE",
"325 483 CURVE SMOOTH",
"446 483 OFFCURVE",
"528 383 OFFCURVE",
"528 276 CURVE SMOOTH",
"528 174 OFFCURVE",
"452 68 OFFCURVE",
"326 68 CURVE SMOOTH"
);
},
{
closed = 1;
nodes = (
"528 0 LINE",
"606 0 LINE",
"434 187 LINE",
"355 187 LINE"
);
}
);
width = 649;
}
);
leftKerningGroup = O.sc;
rightKerningGroup = O.sc;
},
{
glyphname = R;
lastChange = "2016-08-18 22:37:14 +0000";
layers = (
{
anchors = (
{
name = bottom;
position = "{332, 0}";
},
{
name = top;
position = "{318, 710}";
}
);
background = {
paths = (
{
closed = 1;
nodes = (
"175 0 LINE",
"175 255 LINE",
"363 255 LINE",
"525 0 LINE",
"627 0 LINE",
"455 272 LINE",
"545 295 OFFCURVE",
"604 384 OFFCURVE",
"604 483 CURVE SMOOTH",
"604 595 OFFCURVE",
"514 710 OFFCURVE",
"389 710 CURVE SMOOTH",
"85 710 LINE",
"85 0 LINE"
);
},
{
closed = 1;
nodes = (
"175 630 LINE",
"384 630 LINE SMOOTH",
"453 630 OFFCURVE",
"513 563 OFFCURVE",
"513 483 CURVE SMOOTH",
"513 405 OFFCURVE",
"464 335 OFFCURVE",
"390 335 CURVE SMOOTH",
"175 335 LINE"
);
}
);
};
layerId = UUID0;
paths = (
{
closed = 1;
nodes = (
"175 0 LINE",
"175 255 LINE",
"363 255 LINE",
"525 0 LINE",
"627 0 LINE",
"455 272 LINE",
"545 295 OFFCURVE",
"604 384 OFFCURVE",
"604 483 CURVE SMOOTH",
"604 595 OFFCURVE",
"514 710 OFFCURVE",
"389 710 CURVE SMOOTH",
"85 710 LINE",
"85 0 LINE"
);
},
{
closed = 1;
nodes = (
"175 630 LINE",
"384 630 LINE SMOOTH",
"453 630 OFFCURVE",
"513 563 OFFCURVE",
"513 483 CURVE SMOOTH",
"513 405 OFFCURVE",
"464 335 OFFCURVE",
"390 335 CURVE SMOOTH",
"175 335 LINE"
);
}
);
width = 657;
}
);
leftKerningGroup = I;
rightKerningGroup = R;
unicode = 0052;
},
{
glyphname = R.sc;
lastChange = "2016-08-18 22:37:14 +0000";
layers = (
{
anchors = (
{
name = bottom;
position = "{317, 0}";
},
{
name = top;
position = "{317, 710}";
}
);
background = {
paths = (
{
closed = 1;
nodes = (
"159 0 LINE",
"159 194 LINE",
"316 194 LINE",
"452 0 LINE",
"544 0 LINE",
"398 210 LINE",
"473 230 OFFCURVE",
"523 298 OFFCURVE",
"523 373 CURVE SMOOTH",
"523 460 OFFCURVE",
"446 551 OFFCURVE",
"339 551 CURVE SMOOTH",
"79 551 LINE",
"79 0 LINE"
);
},
{
closed = 1;
nodes = (
"159 480 LINE",
"334 480 LINE SMOOTH",
"393 480 OFFCURVE",
"442 432 OFFCURVE",
"442 373 CURVE SMOOTH",
"442 315 OFFCURVE",
"400 265 OFFCURVE",
"339 265 CURVE SMOOTH",
"159 265 LINE"
);
}
);
};
layerId = UUID0;
paths = (
{
closed = 1;
nodes = (
"159 0 LINE",
"159 194 LINE",
"316 194 LINE",
"452 0 LINE",
"544 0 LINE",
"398 210 LINE",
"473 230 OFFCURVE",
"523 298 OFFCURVE",
"523 373 CURVE SMOOTH",
"523 460 OFFCURVE",
"446 551 OFFCURVE",
"339 551 CURVE SMOOTH",
"79 551 LINE",
"79 0 LINE"
);
},
{
closed = 1;
nodes = (
"159 480 LINE",
"334 480 LINE SMOOTH",
"393 480 OFFCURVE",
"442 432 OFFCURVE",
"442 373 CURVE SMOOTH",
"442 315 OFFCURVE",
"400 265 OFFCURVE",
"339 265 CURVE SMOOTH",
"159 265 LINE"
);
}
);
width = 576;
}
);
leftKerningGroup = I.sc;
},
{
glyphname = S;
lastChange = "2016-08-18 22:37:14 +0000";
layers = (
{
anchors = (
{
name = bottom;
position = "{316, 0}";
},
{
name = top;
position = "{316, 721}";
}
);
background = {
paths = (
{
closed = 1;
nodes = (
"544 634 LINE",
"484 683 OFFCURVE",
"406 715 OFFCURVE",
"311 715 CURVE SMOOTH",
"164 715 OFFCURVE",
"56 641 OFFCURVE",
"56 505 CURVE SMOOTH",
"56 392 OFFCURVE",
"131 353 OFFCURVE",
"275 318 CURVE SMOOTH",
"407 286 OFFCURVE",
"480 262 OFFCURVE",
"480 182 CURVE SMOOTH",
"480 111 OFFCURVE",
"421 74 OFFCURVE",
"320 74 CURVE SMOOTH",
"212 74 OFFCURVE",
"115 124 OFFCURVE",
"72 169 CURVE",
"29 93 LINE",
"109 28 OFFCURVE",
"209 -7 OFFCURVE",
"318 -7 CURVE SMOOTH",
"464 -7 OFFCURVE",
"576 54 OFFCURVE",
"576 191 CURVE SMOOTH",
"576 319 OFFCURVE",
"484 361 OFFCURVE",
"336 394 CURVE SMOOTH",
"208 423 OFFCURVE",
"149 443 OFFCURVE",
"149 519 CURVE SMOOTH",
"149 591 OFFCURVE",
"199 635 OFFCURVE",
"309 635 CURVE SMOOTH",
"394 635 OFFCURVE",
"469 598 OFFCURVE",
"502 561 CURVE"
);
}
);
};
layerId = UUID0;
paths = (
{
closed = 1;
nodes = (
"544 634 LINE",
"484 683 OFFCURVE",
"406 715 OFFCURVE",
"311 715 CURVE SMOOTH",
"164 715 OFFCURVE",
"56 641 OFFCURVE",
"56 505 CURVE SMOOTH",
"56 392 OFFCURVE",
"131 353 OFFCURVE",
"275 318 CURVE SMOOTH",
"407 286 OFFCURVE",
"480 262 OFFCURVE",
"480 182 CURVE SMOOTH",
"480 111 OFFCURVE",
"421 74 OFFCURVE",
"320 74 CURVE SMOOTH",
"212 74 OFFCURVE",
"115 124 OFFCURVE",
"72 169 CURVE",
"29 93 LINE",
"109 28 OFFCURVE",
"209 -7 OFFCURVE",
"318 -7 CURVE SMOOTH",
"464 -7 OFFCURVE",
"576 54 OFFCURVE",
"576 191 CURVE SMOOTH",
"576 319 OFFCURVE",
"484 361 OFFCURVE",
"336 394 CURVE SMOOTH",
"208 423 OFFCURVE",
"149 443 OFFCURVE",
"149 519 CURVE SMOOTH",
"149 591 OFFCURVE",
"199 635 OFFCURVE",
"309 635 CURVE SMOOTH",
"394 635 OFFCURVE",
"469 598 OFFCURVE",
"502 561 CURVE"
);
}
);
width = 609;
}
);
leftKerningGroup = S;
rightKerningGroup = S;
unicode = 0053;
},
{
glyphname = S.sc;
lastChange = "2016-08-18 22:37:14 +0000";
layers = (
{
anchors = (
{
name = bottom;
position = "{306, 0}";
},
{
name = top;
position = "{306, 729}";
}
);
background = {
paths = (
{
closed = 1;
nodes = (
"464 492 LINE",
"414 530 OFFCURVE",
"348 555 OFFCURVE",
"268 555 CURVE SMOOTH",
"146 555 OFFCURVE",
"54 498 OFFCURVE",
"54 392 CURVE SMOOTH",
"54 303 OFFCURVE",
"115 270 OFFCURVE",
"235 243 CURVE SMOOTH",
"344 219 OFFCURVE",
"405 201 OFFCURVE",
"405 143 CURVE SMOOTH",
"405 92 OFFCURVE",
"356 66 OFFCURVE",
"276 66 CURVE SMOOTH",
"185 66 OFFCURVE",
"108 101 OFFCURVE",
"69 138 CURVE",
"31 70 LINE",
"98 21 OFFCURVE",
"183 -6 OFFCURVE",
"274 -6 CURVE SMOOTH",
"396 -6 OFFCURVE",
"491 41 OFFCURVE",
"491 151 CURVE SMOOTH",
"491 251 OFFCURVE",
"413 282 OFFCURVE",
"291 309 CURVE SMOOTH",
"186 332 OFFCURVE",
"136 347 OFFCURVE",
"136 401 CURVE SMOOTH",
"136 453 OFFCURVE",
"177 484 OFFCURVE",
"267 484 CURVE SMOOTH",
"337 484 OFFCURVE",
"397 457 OFFCURVE",
"428 427 CURVE"
);
}
);
};
layerId = UUID0;
paths = (
{
closed = 1;
nodes = (
"464 492 LINE",
"414 530 OFFCURVE",
"348 555 OFFCURVE",
"268 555 CURVE SMOOTH",
"146 555 OFFCURVE",
"54 498 OFFCURVE",
"54 392 CURVE SMOOTH",
"54 303 OFFCURVE",
"115 270 OFFCURVE",
"235 243 CURVE SMOOTH",
"344 219 OFFCURVE",
"405 201 OFFCURVE",
"405 143 CURVE SMOOTH",
"405 92 OFFCURVE",
"356 66 OFFCURVE",
"276 66 CURVE SMOOTH",
"185 66 OFFCURVE",
"108 101 OFFCURVE",
"69 138 CURVE",
"31 70 LINE",
"98 21 OFFCURVE",
"183 -6 OFFCURVE",
"274 -6 CURVE SMOOTH",
"396 -6 OFFCURVE",
"491 41 OFFCURVE",
"491 151 CURVE SMOOTH",
"491 251 OFFCURVE",
"413 282 OFFCURVE",
"291 309 CURVE SMOOTH",
"186 332 OFFCURVE",
"136 347 OFFCURVE",
"136 401 CURVE SMOOTH",
"136 453 OFFCURVE",
"177 484 OFFCURVE",
"267 484 CURVE SMOOTH",
"337 484 OFFCURVE",
"397 457 OFFCURVE",
"428 427 CURVE"
);
}
);
width = 525;
}
);
},
{
glyphname = T;
lastChange = "2016-08-18 22:37:14 +0000";
layers = (
{
anchors = (
{
name = bottom;
position = "{310, 0}";
},
{
name = top;
position = "{310, 708}";
}
);
background = {
paths = (
{
closed = 1;
nodes = (
"597 710 LINE",
"17 710 LINE",
"17 630 LINE",
"262 630 LINE",
"262 0 LINE",
"352 0 LINE",
"352 630 LINE",
"597 630 LINE"
);
}
);
};
layerId = UUID0;
paths = (
{
closed = 1;
nodes = (
"597 710 LINE",
"17 710 LINE",
"17 630 LINE",
"262 630 LINE",
"262 0 LINE",
"352 0 LINE",
"352 630 LINE",
"597 630 LINE"
);
}
);
width = 614;
}
);
leftKerningGroup = T;
rightKerningGroup = T;
unicode = 0054;
},
{
glyphname = T.sc;
lastChange = "2016-08-18 22:37:14 +0000";
layers = (
{
anchors = (
{
name = bottom;
position = "{298, 0}";
},
{
name = top;
position = "{298, 707}";
}
);
background = {
paths = (
{
closed = 1;
nodes = (
"516 551 LINE",
"21 551 LINE",
"21 480 LINE",
"229 480 LINE",
"229 0 LINE",
"309 0 LINE",
"309 480 LINE",
"516 480 LINE"
);
}
);
};
layerId = UUID0;
paths = (
{
closed = 1;
nodes = (
"516 551 LINE",
"21 551 LINE",
"21 480 LINE",
"229 480 LINE",
"229 0 LINE",
"309 0 LINE",
"309 480 LINE",
"516 480 LINE"
);
}
);
width = 537;
}
);
},
{
glyphname = Tbar;
lastChange = "2016-08-18 22:37:14 +0000";
layers = (
{
background = {
paths = (
{
closed = 1;
nodes = (
"577 350 LINE",
"577 397 LINE",
"65 397 LINE",
"65 350 LINE"
);
}
);
};
components = (
{
name = T;
transform = "{1, 0, 0, 1, 14, 0}";
}
);
layerId = UUID0;
paths = (
{
closed = 1;
nodes = (
"577 350 LINE",
"577 397 LINE",
"65 397 LINE",
"65 350 LINE"
);
}
);
width = 642;
}
);
leftKerningGroup = T;
rightKerningGroup = T;
unicode = 0166;
},
{
glyphname = Thorn;
lastChange = "2016-08-18 22:37:14 +0000";
layers = (
{
background = {
paths = (
{
closed = 1;
nodes = (
"175 573 LINE",
"175 710 LINE",
"85 710 LINE",
"85 0 LINE",
"175 0 LINE",
"175 118 LINE",
"369 118 LINE SMOOTH",
"494 118 OFFCURVE",
"578 228 OFFCURVE",
"578 346 CURVE SMOOTH",
"578 458 OFFCURVE",
"488 573 OFFCURVE",
"363 573 CURVE"
);
},
{
closed = 1;
nodes = (
"175 198 LINE",
"175 493 LINE",
"359 493 LINE SMOOTH",
"429 493 OFFCURVE",
"488 426 OFFCURVE",
"488 346 CURVE SMOOTH",
"488 269 OFFCURVE",
"440 198 OFFCURVE",
"365 198 CURVE"
);
}
);
};
layerId = UUID0;
paths = (
{
closed = 1;
nodes = (
"363 573 LINE",
"175 573 LINE",
"175 710 LINE",
"85 710 LINE",
"85 0 LINE",
"175 0 LINE",
"175 118 LINE",
"369 118 LINE SMOOTH",
"494 118 OFFCURVE",
"578 228 OFFCURVE",
"578 346 CURVE SMOOTH",
"578 458 OFFCURVE",
"488 573 OFFCURVE",
"363 573 CURVE"
);
},
{
closed = 1;
nodes = (
"365 198 LINE",
"175 198 LINE",
"175 493 LINE",
"359 493 LINE SMOOTH",
"429 493 OFFCURVE",
"488 426 OFFCURVE",
"488 346 CURVE SMOOTH",
"488 269 OFFCURVE",
"440 198 OFFCURVE",
"365 198 CURVE"
);
}
);
width = 604;
}
);
leftKerningGroup = I;
unicode = 00DE;
},
{
glyphname = U;
lastChange = "2016-08-18 22:37:14 +0000";
layers = (
{
anchors = (
{
name = bottom;
position = "{378, 0}";
},
{
name = top;
position = "{378, 708}";
}
);
background = {
paths = (
{
closed = 1;
nodes = (
"215 76 OFFCURVE",
"165 211 OFFCURVE",
"165 351 CURVE SMOOTH",
"165 710 LINE",
"75 710 LINE",
"75 351 LINE SMOOTH",
"75 169 OFFCURVE",
"152 -5 OFFCURVE",
"378 -5 CURVE SMOOTH",
"596 -5 OFFCURVE",
"680 159 OFFCURVE",
"680 351 CURVE SMOOTH",
"680 710 LINE",
"590 710 LINE",
"590 351 LINE SMOOTH",
"590 215 OFFCURVE",
"542 76 OFFCURVE",
"377 76 CURVE SMOOTH"
);
}
);
};
layerId = UUID0;
paths = (
{
closed = 1;
nodes = (
"377 76 LINE SMOOTH",
"215 76 OFFCURVE",
"165 211 OFFCURVE",
"165 351 CURVE SMOOTH",
"165 710 LINE",
"75 710 LINE",
"75 351 LINE SMOOTH",
"75 169 OFFCURVE",
"152 -5 OFFCURVE",
"378 -5 CURVE SMOOTH",
"596 -5 OFFCURVE",
"680 159 OFFCURVE",
"680 351 CURVE SMOOTH",
"680 710 LINE",
"590 710 LINE",
"590 351 LINE SMOOTH",
"590 215 OFFCURVE",
"542 76 OFFCURVE",
"377 76 CURVE SMOOTH"
);
}
);
width = 755;
}
);
leftKerningGroup = U;
rightKerningGroup = U;
unicode = 0055;
},
{
glyphname = U.sc;
lastChange = "2016-08-18 22:37:14 +0000";
layers = (
{
anchors = (
{
name = bottom;
position = "{380, 0}";
},
{
name = top;
position = "{380, 707}";
}
);
background = {
paths = (
{
closed = 1;
nodes = (
"193 68 OFFCURVE",
"151 168 OFFCURVE",
"151 272 CURVE SMOOTH",
"151 551 LINE",
"71 551 LINE",
"71 272 LINE SMOOTH",
"71 130 OFFCURVE",
"137 -4 OFFCURVE",
"327 -4 CURVE SMOOTH",
"511 -4 OFFCURVE",
"582 122 OFFCURVE",
"582 272 CURVE SMOOTH",
"582 551 LINE",
"502 551 LINE",
"502 272 LINE SMOOTH",
"502 170 OFFCURVE",
"463 68 OFFCURVE",
"326 68 CURVE SMOOTH"
);
}
);
};
layerId = UUID0;
paths = (
{
closed = 1;
nodes = (
"326 68 LINE SMOOTH",
"193 68 OFFCURVE",
"151 168 OFFCURVE",
"151 272 CURVE SMOOTH",
"151 551 LINE",
"71 551 LINE",
"71 272 LINE SMOOTH",
"71 130 OFFCURVE",
"137 -4 OFFCURVE",
"327 -4 CURVE SMOOTH",
"511 -4 OFFCURVE",
"582 122 OFFCURVE",
"582 272 CURVE SMOOTH",
"582 551 LINE",
"502 551 LINE",
"502 272 LINE SMOOTH",
"502 170 OFFCURVE",
"463 68 OFFCURVE",
"326 68 CURVE SMOOTH"
);
}
);
width = 653;
}
);
},
{
glyphname = V;
lastChange = "2016-08-18 22:37:14 +0000";
layers = (
{
background = {
paths = (
{
closed = 1;
nodes = (
"10 710 LINE",
"301 0 LINE",
"379 0 LINE",
"669 710 LINE",
"574 710 LINE",
"340 113 LINE",
"105 710 LINE"
);
}
);
};
layerId = UUID0;
paths = (
{
closed = 1;
nodes = (
"10 710 LINE",
"301 0 LINE",
"379 0 LINE",
"669 710 LINE",
"574 710 LINE",
"340 113 LINE",
"105 710 LINE"
);
}
);
width = 680;
}
);
unicode = 0056;
},
{
glyphname = V.sc;
lastChange = "2016-08-18 22:37:14 +0000";
layers = (
{
background = {
paths = (
{
closed = 1;
nodes = (
"14 551 LINE",
"261 0 LINE",
"330 0 LINE",
"577 551 LINE",
"492 551 LINE",
"296 112 LINE",
"99 551 LINE"
);
}
);
};
layerId = UUID0;
paths = (
{
closed = 1;
nodes = (
"14 551 LINE",
"261 0 LINE",
"330 0 LINE",
"577 551 LINE",
"492 551 LINE",
"296 112 LINE",
"99 551 LINE"
);
}
);
width = 591;
}
);
},
{
glyphname = W;
lastChange = "2016-08-18 22:37:14 +0000";
layers = (
{
anchors = (
{
name = top;
position = "{524, 708}";
}
);
background = {
paths = (
{
closed = 1;
nodes = (
"468 397 LINE",
"347 104 LINE",
"106 710 LINE",
"9 710 LINE",
"305 0 LINE",
"383 0 LINE",
"525 335 LINE",
"666 0 LINE",
"744 0 LINE",
"1041 710 LINE",
"943 710 LINE",
"703 104 LINE",
"581 397 LINE",
"704 706 LINE",
"619 706 LINE",
"524 459 LINE",
"430 706 LINE",
"345 706 LINE"
);
}
);
};
layerId = UUID0;
paths = (
{
closed = 1;
nodes = (
"468 397 LINE",
"347 104 LINE",
"106 710 LINE",
"9 710 LINE",
"305 0 LINE",
"383 0 LINE",
"525 335 LINE",
"666 0 LINE",
"744 0 LINE",
"1041 710 LINE",
"943 710 LINE",
"703 104 LINE",
"581 397 LINE",
"704 706 LINE",
"619 706 LINE",
"524 459 LINE",
"430 706 LINE",
"345 706 LINE"
);
}
);
width = 1049;
}
);
leftKerningGroup = W;
rightKerningGroup = W;
unicode = 0057;
},
{
glyphname = W.alt;
lastChange = "2016-08-18 22:37:14 +0000";
layers = (
{
background = {
paths = (
{
closed = 1;
nodes = (
"957 710 LINE",
"779 133 LINE",
"584 710 LINE",
"486 710 LINE",
"298 133 LINE",
"119 710 LINE",
"18 710 LINE",
"243 0 LINE",
"337 0 LINE",
"536 563 LINE",
"740 0 LINE",
"834 0 LINE",
"1059 710 LINE"
);
}
);
};
layerId = UUID0;
paths = (
{
closed = 1;
nodes = (
"957 710 LINE",
"779 133 LINE",
"584 710 LINE",
"486 710 LINE",
"298 133 LINE",
"119 710 LINE",
"18 710 LINE",
"243 0 LINE",
"337 0 LINE",
"536 563 LINE",
"740 0 LINE",
"834 0 LINE",
"1059 710 LINE"
);
}
);
width = 1077;
}
);
},
{
glyphname = W.sc;
lastChange = "2016-08-18 22:37:14 +0000";
layers = (
{
anchors = (
{
name = top;
position = "{502, 707}";
}
);
background = {
paths = (
{
closed = 1;
nodes = (
"403 305 LINE",
"306 97 LINE",
"100 551 LINE",
"13 551 LINE",
"265 0 LINE",
"335 0 LINE",
"454 252 LINE",
"573 0 LINE",
"642 0 LINE",
"895 551 LINE",
"807 551 LINE",
"602 97 LINE",
"503 305 LINE",
"608 548 LINE",
"533 548 LINE",
"453 359 LINE",
"374 548 LINE",
"299 548 LINE"
);
}
);
};
layerId = UUID0;
paths = (
{
closed = 1;
nodes = (
"403 305 LINE",
"306 97 LINE",
"100 551 LINE",
"13 551 LINE",
"265 0 LINE",
"335 0 LINE",
"454 252 LINE",
"573 0 LINE",
"642 0 LINE",
"895 551 LINE",
"807 551 LINE",
"602 97 LINE",
"503 305 LINE",
"608 548 LINE",
"533 548 LINE",
"453 359 LINE",
"374 548 LINE",
"299 548 LINE"
);
}
);
width = 908;
}
);
},
{
glyphname = X;
lastChange = "2016-08-18 22:37:14 +0000";
layers = (
{
background = {
paths = (
{
closed = 1;
nodes = (
"3 710 LINE",
"270 350 LINE",
"11 0 LINE",
"111 0 LINE",
"319 286 LINE",
"527 0 LINE",
"626 0 LINE",
"367 350 LINE",
"634 710 LINE",
"535 710 LINE",
"319 414 LINE",
"103 710 LINE"
);
}
);
};
layerId = UUID0;
paths = (
{
closed = 1;
nodes = (
"3 710 LINE",
"270 350 LINE",
"11 0 LINE",
"111 0 LINE",
"319 286 LINE",
"527 0 LINE",
"626 0 LINE",
"367 350 LINE",
"634 710 LINE",
"535 710 LINE",
"319 414 LINE",
"103 710 LINE"
);
}
);
width = 637;
}
);
unicode = 0058;
},
{
glyphname = X.sc;
lastChange = "2016-08-18 22:37:14 +0000";
layers = (
{
background = {
paths = (
{
closed = 1;
nodes = (
"10 551 LINE",
"237 272 LINE",
"17 0 LINE",
"106 0 LINE",
"280 214 LINE",
"455 0 LINE",
"543 0 LINE",
"323 272 LINE",
"550 551 LINE",
"461 551 LINE",
"280 329 LINE",
"99 551 LINE"
);
}
);
};
layerId = UUID0;
paths = (
{
closed = 1;
nodes = (
"10 551 LINE",
"237 272 LINE",
"17 0 LINE",
"106 0 LINE",
"280 214 LINE",
"455 0 LINE",
"543 0 LINE",
"323 272 LINE",
"550 551 LINE",
"461 551 LINE",
"280 329 LINE",
"99 551 LINE"
);
}
);
width = 560;
}
);
},
{
glyphname = Y;
lastChange = "2016-08-18 22:37:14 +0000";
layers = (
{
anchors = (
{
name = top;
position = "{327, 708}";
}
);
background = {
paths = (
{
closed = 1;
nodes = (
"13 710 LINE",
"282 261 LINE",
"282 0 LINE",
"372 0 LINE",
"372 259 LINE",
"642 710 LINE",
"544 710 LINE",
"327 340 LINE",
"112 710 LINE"
);
}
);
};
layerId = UUID0;
paths = (
{
closed = 1;
nodes = (
"13 710 LINE",
"282 261 LINE",
"282 0 LINE",
"372 0 LINE",
"372 259 LINE",
"642 710 LINE",
"544 710 LINE",
"327 340 LINE",
"112 710 LINE"
);
}
);
width = 655;
}
);
leftKerningGroup = Y;
rightKerningGroup = Y;
unicode = 0059;
},
{
glyphname = Y.sc;
lastChange = "2016-08-18 22:37:14 +0000";
layers = (
{
anchors = (
{
name = top;
position = "{299, 707}";
}
);
background = {
paths = (
{
closed = 1;
nodes = (
"15 551 LINE",
"243 200 LINE",
"243 0 LINE",
"323 0 LINE",
"323 199 LINE",
"553 551 LINE",
"465 551 LINE",
"283 270 LINE",
"102 551 LINE"
);
}
);
};
layerId = UUID0;
paths = (
{
closed = 1;
nodes = (
"15 551 LINE",
"243 200 LINE",
"243 0 LINE",
"323 0 LINE",
"323 199 LINE",
"553 551 LINE",
"465 551 LINE",
"283 270 LINE",
"102 551 LINE"
);
}
);
width = 567;
}
);
},
{
glyphname = Z;
lastChange = "2016-08-18 22:37:14 +0000";
layers = (
{
anchors = (
{
name = top;
position = "{331, 708}";
}
);
background = {
paths = (
{
closed = 1;
nodes = (
"32 0 LINE",
"595 0 LINE",
"595 80 LINE",
"145 80 LINE",
"595 640 LINE",
"595 710 LINE",
"41 710 LINE",
"41 630 LINE",
"490 630 LINE",
"32 70 LINE"
);
}
);
};
layerId = UUID0;
paths = (
{
closed = 1;
nodes = (
"32 0 LINE",
"595 0 LINE",
"595 80 LINE",
"145 80 LINE",
"595 640 LINE",
"595 710 LINE",
"41 710 LINE",
"41 630 LINE",
"490 630 LINE",
"32 70 LINE"
);
}
);
width = 631;
}
);
leftKerningGroup = Z;
rightKerningGroup = Z;
unicode = 005A;
},
{
glyphname = Z.sc;
lastChange = "2016-08-18 22:37:14 +0000";
layers = (
{
anchors = (
{
name = top;
position = "{336, 707}";
}
);
background = {
paths = (
{
closed = 1;
nodes = (
"36 0 LINE",
"516 0 LINE",
"516 71 LINE",
"137 71 LINE",
"516 489 LINE",
"516 551 LINE",
"44 551 LINE",
"44 480 LINE",
"422 480 LINE",
"36 62 LINE"
);
}
);
};
layerId = UUID0;
paths = (
{
closed = 1;
nodes = (
"36 0 LINE",
"516 0 LINE",
"516 71 LINE",
"137 71 LINE",
"516 489 LINE",
"516 551 LINE",
"44 551 LINE",
"44 480 LINE",
"422 480 LINE",
"36 62 LINE"
);
}
);
width = 556;
}
);
},
{
glyphname = a;
lastChange = "2016-08-18 22:37:14 +0000";
layers = (
{
anchors = (
{
name = bottom;
position = "{477, 7}";
},
{
name = top;
position = "{266, 522}";
}
);
background = {
paths = (
{
closed = 1;
nodes = (
"286 -10 OFFCURVE",
"361 24 OFFCURVE",
"408 86 CURVE",
"410 49 LINE SMOOTH",
"414 20 OFFCURVE",
"435 -4 OFFCURVE",
"470 -4 CURVE SMOOTH",
"483 -4 OFFCURVE",
"494 -3 OFFCURVE",
"512 0 CURVE",
"512 76 LINE",
"492 77 OFFCURVE",
"484 86 OFFCURVE",
"484 108 CURVE SMOOTH",
"484 321 LINE SMOOTH",
"484 453 OFFCURVE",
"402 531 OFFCURVE",
"266 531 CURVE SMOOTH",
"197 531 OFFCURVE",
"130 508 OFFCURVE",
"63 463 CURVE",
"92 406 LINE",
"149 446 OFFCURVE",
"204 467 OFFCURVE",
"258 467 CURVE SMOOTH",
"345 467 OFFCURVE",
"396 415 OFFCURVE",
"396 330 CURVE SMOOTH",
"396 288 LINE",
"356 304 OFFCURVE",
"301 314 OFFCURVE",
"250 314 CURVE SMOOTH",
"121 314 OFFCURVE",
"30 248 OFFCURVE",
"30 153 CURVE SMOOTH",
"30 61 OFFCURVE",
"106 -10 OFFCURVE",
"205 -10 CURVE SMOOTH"
);
},
{
closed = 1;
nodes = (
"163 56 OFFCURVE",
"114 101 OFFCURVE",
"114 160 CURVE SMOOTH",
"114 220 OFFCURVE",
"175 261 OFFCURVE",
"263 261 CURVE SMOOTH",
"308 261 OFFCURVE",
"355 252 OFFCURVE",
"396 236 CURVE",
"396 159 LINE SMOOTH",
"396 147 OFFCURVE",
"389 132 OFFCURVE",
"377 120 CURVE SMOOTH",
"349 81 OFFCURVE",
"290 56 OFFCURVE",
"228 56 CURVE SMOOTH"
);
}
);
};
layerId = UUID0;
paths = (
{
closed = 1;
nodes = (
"205 -10 LINE SMOOTH",
"286 -10 OFFCURVE",
"361 24 OFFCURVE",
"408 86 CURVE",
"410 49 LINE SMOOTH",
"414 20 OFFCURVE",
"435 -4 OFFCURVE",
"470 -4 CURVE SMOOTH",
"483 -4 OFFCURVE",
"494 -3 OFFCURVE",
"512 0 CURVE",
"512 76 LINE",
"492 77 OFFCURVE",
"484 86 OFFCURVE",
"484 108 CURVE SMOOTH",
"484 321 LINE SMOOTH",
"484 453 OFFCURVE",
"402 531 OFFCURVE",
"266 531 CURVE SMOOTH",
"197 531 OFFCURVE",
"130 508 OFFCURVE",
"63 463 CURVE",
"92 406 LINE",
"149 446 OFFCURVE",
"204 467 OFFCURVE",
"258 467 CURVE SMOOTH",
"345 467 OFFCURVE",
"396 415 OFFCURVE",
"396 330 CURVE SMOOTH",
"396 288 LINE",
"356 304 OFFCURVE",
"301 314 OFFCURVE",
"250 314 CURVE SMOOTH",
"121 314 OFFCURVE",
"30 248 OFFCURVE",
"30 153 CURVE SMOOTH",
"30 61 OFFCURVE",
"106 -10 OFFCURVE",
"205 -10 CURVE SMOOTH"
);
},
{
closed = 1;
nodes = (
"228 56 LINE SMOOTH",
"163 56 OFFCURVE",
"114 101 OFFCURVE",
"114 160 CURVE SMOOTH",
"114 220 OFFCURVE",
"175 261 OFFCURVE",
"263 261 CURVE SMOOTH",
"308 261 OFFCURVE",
"355 252 OFFCURVE",
"396 236 CURVE",
"396 159 LINE SMOOTH",
"396 147 OFFCURVE",
"389 132 OFFCURVE",
"377 120 CURVE SMOOTH",
"349 81 OFFCURVE",
"290 56 OFFCURVE",
"228 56 CURVE SMOOTH"
);
}
);
width = 554;
}
);
leftKerningGroup = a;
rightKerningGroup = a;
unicode = 0061;
},
{
glyphname = a.alt;
lastChange = "2016-08-18 22:37:14 +0000";
layers = (
{
background = {
paths = (
{
closed = 1;
nodes = (
"366 -10 OFFCURVE",
"430 33 OFFCURVE",
"467 99 CURVE",
"467 0 LINE",
"555 0 LINE",
"555 517 LINE",
"467 517 LINE",
"467 417 LINE",
"430 484 OFFCURVE",
"361 531 OFFCURVE",
"277 531 CURVE SMOOTH",
"142 531 OFFCURVE",
"37 409 OFFCURVE",
"37 260 CURVE SMOOTH",
"37 115 OFFCURVE",
"139 -10 OFFCURVE",
"285 -10 CURVE SMOOTH"
);
},
{
closed = 1;
nodes = (
"467 182 LINE",
"438 116 OFFCURVE",
"381 66 OFFCURVE",
"305 66 CURVE SMOOTH",
"202 66 OFFCURVE",
"128 155 OFFCURVE",
"128 259 CURVE SMOOTH",
"128 355 OFFCURVE",
"198 455 OFFCURVE",
"302 455 CURVE SMOOTH",
"375 455 OFFCURVE",
"439 402 OFFCURVE",
"467 330 CURVE"
);
}
);
};
layerId = UUID0;
paths = (
{
closed = 1;
nodes = (
"285 -10 LINE SMOOTH",
"366 -10 OFFCURVE",
"430 33 OFFCURVE",
"467 99 CURVE",
"467 0 LINE",
"555 0 LINE",
"555 517 LINE",
"467 517 LINE",
"467 417 LINE",
"430 484 OFFCURVE",
"361 531 OFFCURVE",
"277 531 CURVE SMOOTH",
"142 531 OFFCURVE",
"37 409 OFFCURVE",
"37 260 CURVE SMOOTH",
"37 115 OFFCURVE",
"139 -10 OFFCURVE",
"285 -10 CURVE SMOOTH"
);
},
{
closed = 1;
nodes = (
"467 182 LINE",
"438 116 OFFCURVE",
"381 66 OFFCURVE",
"305 66 CURVE SMOOTH",
"202 66 OFFCURVE",
"128 155 OFFCURVE",
"128 259 CURVE SMOOTH",
"128 355 OFFCURVE",
"198 455 OFFCURVE",
"302 455 CURVE SMOOTH",
"375 455 OFFCURVE",
"439 402 OFFCURVE",
"467 330 CURVE"
);
}
);
width = 625;
}
);
leftKerningGroup = d;
rightKerningGroup = a.alt;
},
{
glyphname = a.alt2;
lastChange = "2016-08-18 22:37:14 +0000";
layers = (
{
background = {
paths = (
{
closed = 1;
nodes = (
"484 0 LINE",
"484 321 LINE SMOOTH",
"484 447 OFFCURVE",
"407 531 OFFCURVE",
"266 531 CURVE SMOOTH",
"191 531 OFFCURVE",
"123 503 OFFCURVE",
"63 463 CURVE",
"92 406 LINE",
"149 446 OFFCURVE",
"204 467 OFFCURVE",
"258 467 CURVE SMOOTH",
"345 467 OFFCURVE",
"396 413 OFFCURVE",
"396 330 CURVE SMOOTH",
"396 288 LINE",
"369 300 OFFCURVE",
"317 314 OFFCURVE",
"250 314 CURVE SMOOTH",
"142 314 OFFCURVE",
"30 263 OFFCURVE",
"30 153 CURVE SMOOTH",
"30 61 OFFCURVE",
"106 -10 OFFCURVE",
"205 -10 CURVE SMOOTH",
"281 -10 OFFCURVE",
"354 18 OFFCURVE",
"399 79 CURVE",
"399 0 LINE"
);
},
{
closed = 1;
nodes = (
"346 76 OFFCURVE",
"282 56 OFFCURVE",
"228 56 CURVE SMOOTH",
"167 56 OFFCURVE",
"114 98 OFFCURVE",
"114 160 CURVE SMOOTH",
"114 232 OFFCURVE",
"193 261 OFFCURVE",
"263 261 CURVE SMOOTH",
"306 261 OFFCURVE",
"353 253 OFFCURVE",
"396 236 CURVE",
"396 159 LINE SMOOTH",
"396 147 OFFCURVE",
"389 133 OFFCURVE",
"377 120 CURVE SMOOTH"
);
}
);
};
layerId = UUID0;
paths = (
{
closed = 1;
nodes = (
"484 0 LINE",
"484 321 LINE SMOOTH",
"484 447 OFFCURVE",
"407 531 OFFCURVE",
"266 531 CURVE SMOOTH",
"191 531 OFFCURVE",
"123 503 OFFCURVE",
"63 463 CURVE",
"92 406 LINE",
"149 446 OFFCURVE",
"204 467 OFFCURVE",
"258 467 CURVE SMOOTH",
"345 467 OFFCURVE",
"396 413 OFFCURVE",
"396 330 CURVE SMOOTH",
"396 288 LINE",
"369 300 OFFCURVE",
"317 314 OFFCURVE",
"250 314 CURVE SMOOTH",
"142 314 OFFCURVE",
"30 263 OFFCURVE",
"30 153 CURVE SMOOTH",
"30 61 OFFCURVE",
"106 -10 OFFCURVE",
"205 -10 CURVE SMOOTH",
"281 -10 OFFCURVE",
"354 18 OFFCURVE",
"399 79 CURVE",
"399 0 LINE"
);
},
{
closed = 1;
nodes = (
"377 120 LINE SMOOTH",
"346 76 OFFCURVE",
"282 56 OFFCURVE",
"228 56 CURVE SMOOTH",
"167 56 OFFCURVE",
"114 98 OFFCURVE",
"114 160 CURVE SMOOTH",
"114 232 OFFCURVE",
"193 261 OFFCURVE",
"263 261 CURVE SMOOTH",
"306 261 OFFCURVE",
"353 253 OFFCURVE",
"396 236 CURVE",
"396 159 LINE SMOOTH",
"396 147 OFFCURVE",
"389 133 OFFCURVE",
"377 120 CURVE SMOOTH"
);
}
);
width = 549;
}
);
leftKerningGroup = a;
},
{
glyphname = ae;
lastChange = "2016-08-18 22:37:14 +0000";
layers = (
{
anchors = (
{
name = top;
position = "{445, 522}";
}
);
background = {
paths = (
{
closed = 1;
nodes = (
"282 -10 OFFCURVE",
"381 23 OFFCURVE",
"426 103 CURVE",
"472 35 OFFCURVE",
"550 -10 OFFCURVE",
"644 -10 CURVE SMOOTH",
"749 -10 OFFCURVE",
"838 45 OFFCURVE",
"872 122 CURVE",
"796 143 LINE",
"774 91 OFFCURVE",
"711 56 OFFCURVE",
"647 56 CURVE SMOOTH",
"550 56 OFFCURVE",
"469 128 OFFCURVE",
"461 231 CURVE",
"904 231 LINE",
"905 237 OFFCURVE",
"906 253 OFFCURVE",
"906 261 CURVE SMOOTH",
"905 408 OFFCURVE",
"799 531 OFFCURVE",
"641 531 CURVE SMOOTH",
"559 531 OFFCURVE",
"490 493 OFFCURVE",
"446 436 CURVE",
"413 496 OFFCURVE",
"350 531 OFFCURVE",
"265 531 CURVE SMOOTH",
"197 531 OFFCURVE",
"130 508 OFFCURVE",
"62 463 CURVE",
"91 406 LINE",
"149 446 OFFCURVE",
"204 467 OFFCURVE",
"257 467 CURVE SMOOTH",
"334 467 OFFCURVE",
"382 427 OFFCURVE",
"392 360 CURVE",
"384 341 OFFCURVE",
"380 315 OFFCURVE",
"378 294 CURVE",
"341 306 OFFCURVE",
"294 314 OFFCURVE",
"249 314 CURVE SMOOTH",
"120 314 OFFCURVE",
"30 248 OFFCURVE",
"30 153 CURVE SMOOTH",
"30 61 OFFCURVE",
"106 -10 OFFCURVE",
"204 -10 CURVE SMOOTH"
);
},
{
closed = 1;
nodes = (
"163 56 OFFCURVE",
"113 101 OFFCURVE",
"113 160 CURVE SMOOTH",
"113 220 OFFCURVE",
"174 261 OFFCURVE",
"262 261 CURVE SMOOTH",
"301 261 OFFCURVE",
"342 254 OFFCURVE",
"378 242 CURVE",
"379 217 OFFCURVE",
"385 177 OFFCURVE",
"396 155 CURVE",
"395 144 OFFCURVE",
"388 131 OFFCURVE",
"377 120 CURVE SMOOTH",
"348 81 OFFCURVE",
"290 56 OFFCURVE",
"227 56 CURVE SMOOTH"
);
},
{
closed = 1;
nodes = (
"460 288 LINE",
"466 391 OFFCURVE",
"541 465 OFFCURVE",
"640 465 CURVE SMOOTH",
"739 465 OFFCURVE",
"814 392 OFFCURVE",
"822 288 CURVE"
);
}
);
};
layerId = UUID0;
paths = (
{
closed = 1;
nodes = (
"204 -10 LINE SMOOTH",
"282 -10 OFFCURVE",
"381 23 OFFCURVE",
"426 103 CURVE",
"472 35 OFFCURVE",
"550 -10 OFFCURVE",
"644 -10 CURVE SMOOTH",
"749 -10 OFFCURVE",
"838 45 OFFCURVE",
"872 122 CURVE",
"796 143 LINE",
"774 91 OFFCURVE",
"711 56 OFFCURVE",
"647 56 CURVE SMOOTH",
"550 56 OFFCURVE",
"469 128 OFFCURVE",
"461 231 CURVE",
"904 231 LINE",
"905 237 OFFCURVE",
"906 253 OFFCURVE",
"906 261 CURVE SMOOTH",
"905 408 OFFCURVE",
"799 531 OFFCURVE",
"641 531 CURVE SMOOTH",
"559 531 OFFCURVE",
"490 493 OFFCURVE",
"446 436 CURVE",
"413 496 OFFCURVE",
"350 531 OFFCURVE",
"265 531 CURVE SMOOTH",
"197 531 OFFCURVE",
"130 508 OFFCURVE",
"62 463 CURVE",
"91 406 LINE",
"149 446 OFFCURVE",
"204 467 OFFCURVE",
"257 467 CURVE SMOOTH",
"334 467 OFFCURVE",
"382 427 OFFCURVE",
"392 360 CURVE",
"384 341 OFFCURVE",
"380 315 OFFCURVE",
"378 294 CURVE",
"341 306 OFFCURVE",
"294 314 OFFCURVE",
"249 314 CURVE SMOOTH",
"120 314 OFFCURVE",
"30 248 OFFCURVE",
"30 153 CURVE SMOOTH",
"30 61 OFFCURVE",
"106 -10 OFFCURVE",
"204 -10 CURVE SMOOTH"
);
},
{
closed = 1;
nodes = (
"227 56 LINE SMOOTH",
"163 56 OFFCURVE",
"113 101 OFFCURVE",
"113 160 CURVE SMOOTH",
"113 220 OFFCURVE",
"174 261 OFFCURVE",
"262 261 CURVE SMOOTH",
"301 261 OFFCURVE",
"342 254 OFFCURVE",
"378 242 CURVE",
"379 217 OFFCURVE",
"385 177 OFFCURVE",
"396 155 CURVE",
"395 144 OFFCURVE",
"388 131 OFFCURVE",
"377 120 CURVE SMOOTH",
"348 81 OFFCURVE",
"290 56 OFFCURVE",
"227 56 CURVE SMOOTH"
);
},
{
closed = 1;
nodes = (
"460 288 LINE",
"466 391 OFFCURVE",
"541 465 OFFCURVE",
"640 465 CURVE SMOOTH",
"739 465 OFFCURVE",
"814 392 OFFCURVE",
"822 288 CURVE"
);
}
);
width = 933;
}
);
leftKerningGroup = a;
rightKerningGroup = e;
unicode = 00E6;
},
{
glyphname = ampersand;
lastChange = "2016-08-18 22:37:14 +0000";
layers = (
{
background = {
paths = (
{
closed = 1;
nodes = (
"676 0 LINE",
"279 415 LINE SMOOTH",
"196 502 OFFCURVE",
"177 529 OFFCURVE",
"177 561 CURVE SMOOTH",
"177 611 OFFCURVE",
"220 652 OFFCURVE",
"279 652 CURVE SMOOTH",
"332 652 OFFCURVE",
"371 619 OFFCURVE",
"371 572 CURVE SMOOTH",
"371 513 OFFCURVE",
"307 473 OFFCURVE",
"220 418 CURVE SMOOTH",
"133 363 OFFCURVE",
"45 297 OFFCURVE",
"45 188 CURVE SMOOTH",
"45 74 OFFCURVE",
"144 -10 OFFCURVE",
"275 -10 CURVE SMOOTH",
"454 -10 OFFCURVE",
"599 148 OFFCURVE",
"600 366 CURVE",
"527 366 LINE",
"527 195 OFFCURVE",
"420 60 OFFCURVE",
"284 60 CURVE SMOOTH",
"205 60 OFFCURVE",
"130 106 OFFCURVE",
"130 187 CURVE SMOOTH",
"130 261 OFFCURVE",
"191 313 OFFCURVE",
"272 365 CURVE SMOOTH",
"369 427 OFFCURVE",
"452 482 OFFCURVE",
"452 574 CURVE SMOOTH",
"452 663 OFFCURVE",
"374 719 OFFCURVE",
"279 719 CURVE SMOOTH",
"175 719 OFFCURVE",
"96 651 OFFCURVE",
"96 559 CURVE SMOOTH",
"96 503 OFFCURVE",
"126 458 OFFCURVE",
"212 367 CURVE SMOOTH",
"560 0 LINE"
);
}
);
};
layerId = UUID0;
paths = (
{
closed = 1;
nodes = (
"676 0 LINE",
"279 415 LINE SMOOTH",
"196 502 OFFCURVE",
"177 529 OFFCURVE",
"177 561 CURVE SMOOTH",
"177 611 OFFCURVE",
"220 652 OFFCURVE",
"279 652 CURVE SMOOTH",
"332 652 OFFCURVE",
"371 619 OFFCURVE",
"371 572 CURVE SMOOTH",
"371 513 OFFCURVE",
"307 473 OFFCURVE",
"220 418 CURVE SMOOTH",
"133 363 OFFCURVE",
"45 297 OFFCURVE",
"45 188 CURVE SMOOTH",
"45 74 OFFCURVE",
"144 -10 OFFCURVE",
"275 -10 CURVE SMOOTH",
"454 -10 OFFCURVE",
"599 148 OFFCURVE",
"600 366 CURVE",
"527 366 LINE",
"527 195 OFFCURVE",
"420 60 OFFCURVE",
"284 60 CURVE SMOOTH",
"205 60 OFFCURVE",
"130 106 OFFCURVE",
"130 187 CURVE SMOOTH",
"130 261 OFFCURVE",
"191 313 OFFCURVE",
"272 365 CURVE SMOOTH",
"369 427 OFFCURVE",
"452 482 OFFCURVE",
"452 574 CURVE SMOOTH",
"452 663 OFFCURVE",
"374 719 OFFCURVE",
"279 719 CURVE SMOOTH",
"175 719 OFFCURVE",
"96 651 OFFCURVE",
"96 559 CURVE SMOOTH",
"96 503 OFFCURVE",
"126 458 OFFCURVE",
"212 367 CURVE SMOOTH",
"560 0 LINE"
);
}
);
width = 681;
}
);
unicode = 0026;
},
{
glyphname = apostrophe;
lastChange = "2016-08-18 22:37:14 +0000";
layers = (
{
anchors = (
{
name = _top;
position = "{251, 522}";
}
);
background = {
paths = (
{
closed = 1;
nodes = (
"354 730 LINE",
"242 730 LINE",
"245 692 LINE",
"208 629 LINE",
"265 609 LINE"
);
}
);
};
layerId = UUID0;
paths = (
{
closed = 1;
nodes = (
"354 730 LINE",
"242 730 LINE",
"245 692 LINE",
"208 629 LINE",
"265 609 LINE"
);
}
);
width = 543;
}
);
unicode = 02BC;
},
{
glyphname = asciicircum;
lastChange = "2016-08-18 22:37:14 +0000";
layers = (
{
background = {
paths = (
{
closed = 1;
nodes = (
"115 303 LINE",
"277 631 LINE",
"436 303 LINE",
"511 303 LINE",
"314 710 LINE",
"240 710 LINE",
"42 303 LINE"
);
}
);
};
layerId = UUID0;
paths = (
{
closed = 1;
nodes = (
"115 303 LINE",
"277 631 LINE",
"436 303 LINE",
"511 303 LINE",
"314 710 LINE",
"240 710 LINE",
"42 303 LINE"
);
}
);
width = 553;
}
);
unicode = 005E;
},
{
glyphname = asciitilde;
lastChange = "2016-08-18 22:37:14 +0000";
layers = (
{
background = {
paths = (
{
closed = 1;
nodes = (
"117 237 LINE",
"117 239 OFFCURVE",
"132 293 OFFCURVE",
"181 293 CURVE SMOOTH",
"232 293 OFFCURVE",
"278 237 OFFCURVE",
"346 237 CURVE SMOOTH",
"439 237 OFFCURVE",
"468 336 OFFCURVE",
"468 344 CURVE",
"416 344 LINE",
"416 339 OFFCURVE",
"399 292 OFFCURVE",
"347 292 CURVE SMOOTH",
"290 292 OFFCURVE",
"246 349 OFFCURVE",
"182 349 CURVE SMOOTH",
"95 349 OFFCURVE",
"65 253 OFFCURVE",
"65 237 CURVE"
);
}
);
};
layerId = UUID0;
paths = (
{
closed = 1;
nodes = (
"65 237 LINE",
"117 237 LINE",
"117 239 OFFCURVE",
"132 293 OFFCURVE",
"181 293 CURVE SMOOTH",
"232 293 OFFCURVE",
"278 237 OFFCURVE",
"346 237 CURVE SMOOTH",
"439 237 OFFCURVE",
"468 336 OFFCURVE",
"468 344 CURVE",
"416 344 LINE",
"416 339 OFFCURVE",
"399 292 OFFCURVE",
"347 292 CURVE SMOOTH",
"290 292 OFFCURVE",
"246 349 OFFCURVE",
"182 349 CURVE SMOOTH",
"95 349 OFFCURVE",
"65 253 OFFCURVE",
"65 237 CURVE"
);
}
);
width = 532;
}
);
unicode = 007E;
},
{
glyphname = asterisk;
lastChange = "2016-08-18 22:37:14 +0000";
layers = (
{
background = {
paths = (
{
closed = 1;
nodes = (
"121 513 LINE",
"165 580 LINE",
"208 513 LINE",
"246 538 LINE",
"201 603 LINE",
"270 625 LINE",
"257 667 LINE",
"187 640 LINE",
"190 714 LINE",
"139 714 LINE",
"142 640 LINE",
"72 667 LINE",
"59 625 LINE",
"128 603 LINE",
"84 538 LINE"
);
}
);
};
layerId = UUID0;
paths = (
{
closed = 1;
nodes = (
"121 513 LINE",
"165 580 LINE",
"208 513 LINE",
"246 538 LINE",
"201 603 LINE",
"270 625 LINE",
"257 667 LINE",
"187 640 LINE",
"190 714 LINE",
"139 714 LINE",
"142 640 LINE",
"72 667 LINE",
"59 625 LINE",
"128 603 LINE",
"84 538 LINE"
);
}
);
width = 329;
}
);
unicode = 002A;
},
{
glyphname = at;
lastChange = "2016-08-18 22:37:14 +0000";
layers = (
{
background = {
paths = (
{
closed = 1;
nodes = (
"224 603 OFFCURVE",
"46 459 OFFCURVE",
"46 230 CURVE SMOOTH",
"46 11 OFFCURVE",
"210 -146 OFFCURVE",
"409 -146 CURVE SMOOTH",
"466 -146 OFFCURVE",
"524 -133 OFFCURVE",
"578 -106 CURVE",
"564 -68 LINE",
"515 -91 OFFCURVE",
"469 -106 OFFCURVE",
"410 -106 CURVE SMOOTH",
"223 -106 OFFCURVE",
"88 44 OFFCURVE",
"88 230 CURVE SMOOTH",
"88 423 OFFCURVE",
"233 563 OFFCURVE",
"417 563 CURVE SMOOTH",
"605 563 OFFCURVE",
"744 415 OFFCURVE",
"744 224 CURVE SMOOTH",
"744 156 OFFCURVE",
"725 28 OFFCURVE",
"645 28 CURVE SMOOTH",
"599 28 OFFCURVE",
"594 73 OFFCURVE",
"594 132 CURVE SMOOTH",
"594 251 LINE SMOOTH",
"594 345 OFFCURVE",
"581 457 OFFCURVE",
"425 457 CURVE SMOOTH",
"363 457 OFFCURVE",
"307 438 OFFCURVE",
"259 406 CURVE",
"279 357 LINE",
"316 385 OFFCURVE",
"364 403 OFFCURVE",
"417 403 CURVE SMOOTH",
"513 403 OFFCURVE",
"538 342 OFFCURVE",
"538 254 CURVE",
"517 262 OFFCURVE",
"472 277 OFFCURVE",
"415 277 CURVE SMOOTH",
"326 277 OFFCURVE",
"228 243 OFFCURVE",
"228 138 CURVE SMOOTH",
"228 60 OFFCURVE",
"283 2 OFFCURVE",
"380 2 CURVE SMOOTH",
"450 2 OFFCURVE",
"512 33 OFFCURVE",
"550 73 CURVE",
"555 28 OFFCURVE",
"569 -16 OFFCURVE",
"637 -16 CURVE SMOOTH",
"775 -16 OFFCURVE",
"786 165 OFFCURVE",
"786 222 CURVE SMOOTH",
"786 455 OFFCURVE",
"616 603 OFFCURVE",
"419 603 CURVE SMOOTH"
);
},
{
closed = 1;
nodes = (
"451 64 OFFCURVE",
"416 54 OFFCURVE",
"384 54 CURVE SMOOTH",
"324 54 OFFCURVE",
"285 92 OFFCURVE",
"285 142 CURVE SMOOTH",
"285 208 OFFCURVE",
"346 230 OFFCURVE",
"414 230 CURVE SMOOTH",
"474 230 OFFCURVE",
"520 211 OFFCURVE",
"537 208 CURVE",
"537 171 LINE SMOOTH",
"537 136 OFFCURVE",
"528 100 OFFCURVE",
"476 76 CURVE SMOOTH"
);
}
);
};
layerId = UUID0;
paths = (
{
closed = 1;
nodes = (
"419 603 LINE SMOOTH",
"224 603 OFFCURVE",
"46 459 OFFCURVE",
"46 230 CURVE SMOOTH",
"46 11 OFFCURVE",
"210 -146 OFFCURVE",
"409 -146 CURVE SMOOTH",
"466 -146 OFFCURVE",
"524 -133 OFFCURVE",
"578 -106 CURVE",
"564 -68 LINE",
"515 -91 OFFCURVE",
"469 -106 OFFCURVE",
"410 -106 CURVE SMOOTH",
"223 -106 OFFCURVE",
"88 44 OFFCURVE",
"88 230 CURVE SMOOTH",
"88 423 OFFCURVE",
"233 563 OFFCURVE",
"417 563 CURVE SMOOTH",
"605 563 OFFCURVE",
"744 415 OFFCURVE",
"744 224 CURVE SMOOTH",
"744 156 OFFCURVE",
"725 28 OFFCURVE",
"645 28 CURVE SMOOTH",
"599 28 OFFCURVE",
"594 73 OFFCURVE",
"594 132 CURVE SMOOTH",
"594 251 LINE SMOOTH",
"594 345 OFFCURVE",
"581 457 OFFCURVE",
"425 457 CURVE SMOOTH",
"363 457 OFFCURVE",
"307 438 OFFCURVE",
"259 406 CURVE",
"279 357 LINE",
"316 385 OFFCURVE",
"364 403 OFFCURVE",
"417 403 CURVE SMOOTH",
"513 403 OFFCURVE",
"538 342 OFFCURVE",
"538 254 CURVE",
"517 262 OFFCURVE",
"472 277 OFFCURVE",
"415 277 CURVE SMOOTH",
"326 277 OFFCURVE",
"228 243 OFFCURVE",
"228 138 CURVE SMOOTH",
"228 60 OFFCURVE",
"283 2 OFFCURVE",
"380 2 CURVE SMOOTH",
"450 2 OFFCURVE",
"512 33 OFFCURVE",
"550 73 CURVE",
"555 28 OFFCURVE",
"569 -16 OFFCURVE",
"637 -16 CURVE SMOOTH",
"775 -16 OFFCURVE",
"786 165 OFFCURVE",
"786 222 CURVE SMOOTH",
"786 455 OFFCURVE",
"616 603 OFFCURVE",
"419 603 CURVE SMOOTH"
);
},
{
closed = 1;
nodes = (
"476 76 LINE SMOOTH",
"451 64 OFFCURVE",
"416 54 OFFCURVE",
"384 54 CURVE SMOOTH",
"324 54 OFFCURVE",
"285 92 OFFCURVE",
"285 142 CURVE SMOOTH",
"285 208 OFFCURVE",
"346 230 OFFCURVE",
"414 230 CURVE SMOOTH",
"474 230 OFFCURVE",
"520 211 OFFCURVE",
"537 208 CURVE",
"537 171 LINE SMOOTH",
"537 136 OFFCURVE",
"528 100 OFFCURVE",
"476 76 CURVE SMOOTH"
);
}
);
width = 840;
}
);
unicode = 0040;
},
{
glyphname = b;
lastChange = "2016-08-18 22:37:14 +0000";
layers = (
{
background = {
paths = (
{
closed = 1;
nodes = (
"479 -10 OFFCURVE",
"586 112 OFFCURVE",
"586 259 CURVE SMOOTH",
"586 399 OFFCURVE",
"495 531 OFFCURVE",
"352 531 CURVE SMOOTH",
"267 531 OFFCURVE",
"203 486 OFFCURVE",
"159 418 CURVE",
"159 730 LINE",
"71 730 LINE",
"71 0 LINE",
"149 0 LINE",
"149 98 LINE",
"187 34 OFFCURVE",
"258 -10 OFFCURVE",
"339 -10 CURVE SMOOTH"
);
},
{
closed = 1;
nodes = (
"254 66 OFFCURVE",
"172 116 OFFCURVE",
"159 182 CURVE",
"159 333 LINE",
"190 399 OFFCURVE",
"250 455 OFFCURVE",
"325 455 CURVE SMOOTH",
"426 455 OFFCURVE",
"496 361 OFFCURVE",
"496 259 CURVE SMOOTH",
"496 159 OFFCURVE",
"422 66 OFFCURVE",
"317 66 CURVE SMOOTH"
);
}
);
};
layerId = UUID0;
paths = (
{
closed = 1;
nodes = (
"339 -10 LINE SMOOTH",
"479 -10 OFFCURVE",
"586 112 OFFCURVE",
"586 259 CURVE SMOOTH",
"586 399 OFFCURVE",
"495 531 OFFCURVE",
"352 531 CURVE SMOOTH",
"267 531 OFFCURVE",
"203 486 OFFCURVE",
"159 418 CURVE",
"159 730 LINE",
"71 730 LINE",
"71 0 LINE",
"149 0 LINE",
"149 98 LINE",
"187 34 OFFCURVE",
"258 -10 OFFCURVE",
"339 -10 CURVE SMOOTH"
);
},
{
closed = 1;
nodes = (
"317 66 LINE SMOOTH",
"254 66 OFFCURVE",
"172 116 OFFCURVE",
"159 182 CURVE",
"159 333 LINE",
"190 399 OFFCURVE",
"250 455 OFFCURVE",
"325 455 CURVE SMOOTH",
"426 455 OFFCURVE",
"496 361 OFFCURVE",
"496 259 CURVE SMOOTH",
"496 159 OFFCURVE",
"422 66 OFFCURVE",
"317 66 CURVE SMOOTH"
);
}
);
width = 623;
}
);
leftKerningGroup = h;
rightKerningGroup = b;
unicode = 0062;
},
{
glyphname = backslash;
lastChange = "2016-08-18 22:37:14 +0000";
layers = (
{
background = {
paths = (
{
closed = 1;
nodes = (
"28 710 LINE",
"464 0 LINE",
"562 0 LINE",
"127 710 LINE"
);
}
);
};
layerId = UUID0;
paths = (
{
closed = 1;
nodes = (
"28 710 LINE",
"464 0 LINE",
"562 0 LINE",
"127 710 LINE"
);
}
);
width = 590;
}
);
unicode = 005C;
},
{
glyphname = bar;
lastChange = "2016-08-18 22:37:14 +0000";
layers = (
{
background = {
paths = (
{
closed = 1;
nodes = (
"158 -130 LINE",
"158 775 LINE",
"82 775 LINE",
"82 -130 LINE"
);
}
);
};
layerId = UUID0;
paths = (
{
closed = 1;
nodes = (
"158 -130 LINE",
"158 775 LINE",
"82 775 LINE",
"82 -130 LINE"
);
}
);
width = 240;
}
);
unicode = 007C;
},
{
glyphname = braceleft;
lastChange = "2016-08-18 22:37:14 +0000";
layers = (
{
background = {
paths = (
{
closed = 1;
nodes = (
"224 668 LINE",
"224 740 LINE",
"112 740 LINE SMOOTH",
"105 740 OFFCURVE",
"89 735 OFFCURVE",
"89 710 CURVE SMOOTH",
"89 450 LINE SMOOTH",
"89 430 OFFCURVE",
"75 393 OFFCURVE",
"47 393 CURVE",
"47 329 LINE",
"72 325 OFFCURVE",
"89 299 OFFCURVE",
"89 270 CURVE SMOOTH",
"89 -1 LINE SMOOTH",
"89 -24 OFFCURVE",
"102 -31 OFFCURVE",
"112 -31 CURVE SMOOTH",
"224 -31 LINE",
"224 41 LINE",
"169 41 LINE",
"169 296 LINE SMOOTH",
"169 314 OFFCURVE",
"160 342 OFFCURVE",
"140 360 CURVE",
"161 379 OFFCURVE",
"169 405 OFFCURVE",
"169 424 CURVE SMOOTH",
"169 668 LINE"
);
}
);
};
layerId = UUID0;
paths = (
{
closed = 1;
nodes = (
"224 668 LINE",
"224 740 LINE",
"112 740 LINE SMOOTH",
"105 740 OFFCURVE",
"89 735 OFFCURVE",
"89 710 CURVE SMOOTH",
"89 450 LINE SMOOTH",
"89 430 OFFCURVE",
"75 393 OFFCURVE",
"47 393 CURVE",
"47 329 LINE",
"72 325 OFFCURVE",
"89 299 OFFCURVE",
"89 270 CURVE SMOOTH",
"89 -1 LINE SMOOTH",
"89 -24 OFFCURVE",
"102 -31 OFFCURVE",
"112 -31 CURVE SMOOTH",
"224 -31 LINE",
"224 41 LINE",
"169 41 LINE",
"169 296 LINE SMOOTH",
"169 314 OFFCURVE",
"160 342 OFFCURVE",
"140 360 CURVE",
"161 379 OFFCURVE",
"169 405 OFFCURVE",
"169 424 CURVE SMOOTH",
"169 668 LINE"
);
}
);
width = 271;
}
);
unicode = 007B;
},
{
glyphname = braceright;
lastChange = "2016-08-18 22:37:14 +0000";
layers = (
{
background = {
paths = (
{
closed = 1;
nodes = (
"102 668 LINE",
"102 424 LINE SMOOTH",
"102 405 OFFCURVE",
"110 379 OFFCURVE",
"131 360 CURVE",
"110 342 OFFCURVE",
"102 314 OFFCURVE",
"102 296 CURVE SMOOTH",
"102 41 LINE",
"47 41 LINE",
"47 -31 LINE",
"159 -31 LINE SMOOTH",
"168 -31 OFFCURVE",
"182 -24 OFFCURVE",
"182 -1 CURVE SMOOTH",
"182 270 LINE SMOOTH",
"182 299 OFFCURVE",
"198 325 OFFCURVE",
"224 329 CURVE",
"224 393 LINE",
"196 393 OFFCURVE",
"182 430 OFFCURVE",
"182 450 CURVE SMOOTH",
"182 710 LINE SMOOTH",
"182 735 OFFCURVE",
"165 740 OFFCURVE",
"159 740 CURVE SMOOTH",
"47 740 LINE",
"47 668 LINE"
);
}
);
};
layerId = UUID0;
paths = (
{
closed = 1;
nodes = (
"102 668 LINE",
"102 424 LINE SMOOTH",
"102 405 OFFCURVE",
"110 379 OFFCURVE",
"131 360 CURVE",
"110 342 OFFCURVE",
"102 314 OFFCURVE",
"102 296 CURVE SMOOTH",
"102 41 LINE",
"47 41 LINE",
"47 -31 LINE",
"159 -31 LINE SMOOTH",
"168 -31 OFFCURVE",
"182 -24 OFFCURVE",
"182 -1 CURVE SMOOTH",
"182 270 LINE SMOOTH",
"182 299 OFFCURVE",
"198 325 OFFCURVE",
"224 329 CURVE",
"224 393 LINE",
"196 393 OFFCURVE",
"182 430 OFFCURVE",
"182 450 CURVE SMOOTH",
"182 710 LINE SMOOTH",
"182 735 OFFCURVE",
"165 740 OFFCURVE",
"159 740 CURVE SMOOTH",
"47 740 LINE",
"47 668 LINE"
);
}
);
width = 271;
}
);
unicode = 007D;
},
{
glyphname = bracketleft;
lastChange = "2016-08-18 22:37:14 +0000";
layers = (
{
background = {
paths = (
{
closed = 1;
nodes = (
"224 -40 LINE",
"224 32 LINE",
"166 32 LINE",
"166 668 LINE",
"224 668 LINE",
"224 740 LINE",
"84 740 LINE",
"84 -40 LINE"
);
}
);
};
layerId = UUID0;
paths = (
{
closed = 1;
nodes = (
"224 -40 LINE",
"224 32 LINE",
"166 32 LINE",
"166 668 LINE",
"224 668 LINE",
"224 740 LINE",
"84 740 LINE",
"84 -40 LINE"
);
}
);
width = 270;
}
);
unicode = 005B;
},
{
glyphname = bracketright;
lastChange = "2016-08-18 22:37:14 +0000";
layers = (
{
background = {
paths = (
{
closed = 1;
nodes = (
"186 -40 LINE",
"186 740 LINE",
"46 740 LINE",
"46 668 LINE",
"104 668 LINE",
"104 32 LINE",
"46 32 LINE",
"46 -40 LINE"
);
}
);
};
layerId = UUID0;
paths = (
{
closed = 1;
nodes = (
"186 -40 LINE",
"186 740 LINE",
"46 740 LINE",
"46 668 LINE",
"104 668 LINE",
"104 32 LINE",
"46 32 LINE",
"46 -40 LINE"
);
}
);
width = 270;
}
);
unicode = 005D;
},
{
glyphname = brokenbar;
lastChange = "2016-08-18 22:37:14 +0000";
layers = (
{
background = {
paths = (
{
closed = 1;
nodes = (
"83 273 LINE",
"83 -130 LINE",
"159 -130 LINE",
"159 273 LINE"
);
},
{
closed = 1;
nodes = (
"83 775 LINE",
"83 372 LINE",
"159 372 LINE",
"159 775 LINE"
);
}
);
};
layerId = UUID0;
paths = (
{
closed = 1;
nodes = (
"83 273 LINE",
"83 -130 LINE",
"159 -130 LINE",
"159 273 LINE"
);
},
{
closed = 1;
nodes = (
"83 775 LINE",
"83 372 LINE",
"159 372 LINE",
"159 775 LINE"
);
}
);
width = 242;
}
);
unicode = 00A6;
},
{
glyphname = bullet;
lastChange = "2016-08-18 22:37:14 +0000";
layers = (
{
background = {
paths = (
{
closed = 1;
nodes = (
"272 398 OFFCURVE",
"230 441 OFFCURVE",
"178 441 CURVE SMOOTH",
"127 441 OFFCURVE",
"84 398 OFFCURVE",
"84 347 CURVE SMOOTH",
"84 295 OFFCURVE",
"127 253 OFFCURVE",
"178 253 CURVE SMOOTH",
"230 253 OFFCURVE",
"272 295 OFFCURVE",
"272 347 CURVE SMOOTH"
);
}
);
};
layerId = UUID0;
paths = (
{
closed = 1;
nodes = (
"272 347 LINE SMOOTH",
"272 398 OFFCURVE",
"230 441 OFFCURVE",
"178 441 CURVE SMOOTH",
"127 441 OFFCURVE",
"84 398 OFFCURVE",
"84 347 CURVE SMOOTH",
"84 295 OFFCURVE",
"127 253 OFFCURVE",
"178 253 CURVE SMOOTH",
"230 253 OFFCURVE",
"272 295 OFFCURVE",
"272 347 CURVE SMOOTH"
);
}
);
width = 356;
}
);
unicode = 2022;
},
{
glyphname = c;
lastChange = "2016-08-18 22:37:14 +0000";
layers = (
{
anchors = (
{
name = bottom;
position = "{302, 0}";
},
{
name = top;
position = "{300, 522}";
}
);
background = {
paths = (
{
closed = 1;
nodes = (
"36 115 OFFCURVE",
"145 -10 OFFCURVE",
"302 -10 CURVE SMOOTH",
"407 -10 OFFCURVE",
"494 45 OFFCURVE",
"525 121 CURVE",
"439 147 LINE",
"423 103 OFFCURVE",
"361 66 OFFCURVE",
"300 66 CURVE SMOOTH",
"205 66 OFFCURVE",
"126 152 OFFCURVE",
"126 262 CURVE SMOOTH",
"126 373 OFFCURVE",
"202 455 OFFCURVE",
"299 455 CURVE SMOOTH",
"357 455 OFFCURVE",
"408 426 OFFCURVE",
"435 377 CURVE",
"521 404 LINE",
"483 481 OFFCURVE",
"404 531 OFFCURVE",
"301 531 CURVE SMOOTH",
"142 531 OFFCURVE",
"36 409 OFFCURVE",
"36 262 CURVE SMOOTH"
);
}
);
};
layerId = UUID0;
paths = (
{
closed = 1;
nodes = (
"36 262 LINE SMOOTH",
"36 115 OFFCURVE",
"145 -10 OFFCURVE",
"302 -10 CURVE SMOOTH",
"407 -10 OFFCURVE",
"494 45 OFFCURVE",
"525 121 CURVE",
"439 147 LINE",
"423 103 OFFCURVE",
"361 66 OFFCURVE",
"300 66 CURVE SMOOTH",
"205 66 OFFCURVE",
"126 152 OFFCURVE",
"126 262 CURVE SMOOTH",
"126 373 OFFCURVE",
"202 455 OFFCURVE",
"299 455 CURVE SMOOTH",
"357 455 OFFCURVE",
"408 426 OFFCURVE",
"435 377 CURVE",
"521 404 LINE",
"483 481 OFFCURVE",
"404 531 OFFCURVE",
"301 531 CURVE SMOOTH",
"142 531 OFFCURVE",
"36 409 OFFCURVE",
"36 262 CURVE SMOOTH"
);
}
);
width = 554;
}
);
leftKerningGroup = o;
rightKerningGroup = c;
unicode = 0063;
},
{
glyphname = c_t;
lastChange = "2016-08-18 22:37:14 +0000";
layers = (
{
background = {
paths = (
{
closed = 1;
nodes = (
"870 96 LINE",
"859 91 OFFCURVE",
"828 74 OFFCURVE",
"793 74 CURVE SMOOTH",
"762 74 OFFCURVE",
"736 91 OFFCURVE",
"734 129 CURVE",
"734 453 LINE",
"850 453 LINE",
"850 522 LINE",
"734 522 LINE",
"734 645 OFFCURVE",
"734 744 OFFCURVE",
"568 744 CURVE SMOOTH",
"463 744 OFFCURVE",
"407 686 OFFCURVE",
"407 602 CURVE SMOOTH",
"407 559 OFFCURVE",
"427 520 OFFCURVE",
"445 488 CURVE",
"406 515 OFFCURVE",
"364 531 OFFCURVE",
"299 531 CURVE SMOOTH",
"135 531 OFFCURVE",
"36 401 OFFCURVE",
"36 260 CURVE SMOOTH",
"36 122 OFFCURVE",
"140 -10 OFFCURVE",
"301 -10 CURVE SMOOTH",
"398 -10 OFFCURVE",
"492 39 OFFCURVE",
"525 121 CURVE",
"439 147 LINE",
"422 97 OFFCURVE",
"352 66 OFFCURVE",
"301 66 CURVE SMOOTH",
"203 66 OFFCURVE",
"126 154 OFFCURVE",
"126 260 CURVE SMOOTH",
"126 359 OFFCURVE",
"191 455 OFFCURVE",
"296 455 CURVE SMOOTH",
"355 455 OFFCURVE",
"405 430 OFFCURVE",
"435 377 CURVE",
"521 404 LINE",
"505 439 OFFCURVE",
"449 531 OFFCURVE",
"449 598 CURVE SMOOTH",
"449 654 OFFCURVE",
"478 700 OFFCURVE",
"545 700 CURVE SMOOTH",
"647 700 OFFCURVE",
"646 623 OFFCURVE",
"646 522 CURVE",
"575 522 LINE",
"575 453 LINE",
"646 453 LINE",
"646 102 LINE SMOOTH",
"646 27 OFFCURVE",
"700 -7 OFFCURVE",
"763 -7 CURVE SMOOTH",
"820 -7 OFFCURVE",
"869 16 OFFCURVE",
"890 26 CURVE"
);
}
);
};
layerId = UUID0;
paths = (
{
closed = 1;
nodes = (
"870 96 LINE",
"859 91 OFFCURVE",
"828 74 OFFCURVE",
"793 74 CURVE SMOOTH",
"762 74 OFFCURVE",
"736 91 OFFCURVE",
"734 129 CURVE",
"734 453 LINE",
"850 453 LINE",
"850 522 LINE",
"734 522 LINE",
"734 645 OFFCURVE",
"734 744 OFFCURVE",
"568 744 CURVE SMOOTH",
"463 744 OFFCURVE",
"407 686 OFFCURVE",
"407 602 CURVE SMOOTH",
"407 559 OFFCURVE",
"427 520 OFFCURVE",
"445 488 CURVE",
"406 515 OFFCURVE",
"364 531 OFFCURVE",
"299 531 CURVE SMOOTH",
"135 531 OFFCURVE",
"36 401 OFFCURVE",
"36 260 CURVE SMOOTH",
"36 122 OFFCURVE",
"140 -10 OFFCURVE",
"301 -10 CURVE SMOOTH",
"398 -10 OFFCURVE",
"492 39 OFFCURVE",
"525 121 CURVE",
"439 147 LINE",
"422 97 OFFCURVE",
"352 66 OFFCURVE",
"301 66 CURVE SMOOTH",
"203 66 OFFCURVE",
"126 154 OFFCURVE",
"126 260 CURVE SMOOTH",
"126 359 OFFCURVE",
"191 455 OFFCURVE",
"296 455 CURVE SMOOTH",
"355 455 OFFCURVE",
"405 430 OFFCURVE",
"435 377 CURVE",
"521 404 LINE",
"505 439 OFFCURVE",
"449 531 OFFCURVE",
"449 598 CURVE SMOOTH",
"449 654 OFFCURVE",
"478 700 OFFCURVE",
"545 700 CURVE SMOOTH",
"646 700 OFFCURVE",
"646 635 OFFCURVE",
"646 522 CURVE",
"575 522 LINE",
"575 453 LINE",
"646 453 LINE",
"646 102 LINE SMOOTH",
"646 27 OFFCURVE",
"700 -7 OFFCURVE",
"763 -7 CURVE SMOOTH",
"820 -7 OFFCURVE",
"869 16 OFFCURVE",
"890 26 CURVE"
);
}
);
width = 901;
}
);
leftKerningGroup = o;
rightKerningGroup = t;
},
{
glyphname = cent;
lastChange = "2016-08-18 22:37:14 +0000";
layers = (
{
background = {
paths = (
{
closed = 1;
nodes = (
"320 -120 LINE",
"320 -10 LINE",
"391 -10 OFFCURVE",
"498 34 OFFCURVE",
"532 121 CURVE",
"446 147 LINE",
"432 102 OFFCURVE",
"367 72 OFFCURVE",
"320 68 CURVE",
"320 452 LINE",
"370 449 OFFCURVE",
"415 425 OFFCURVE",
"442 377 CURVE",
"527 404 LINE",
"488 481 OFFCURVE",
"417 527 OFFCURVE",
"320 530 CURVE",
"320 645 LINE",
"276 645 LINE",
"276 530 LINE",
"130 514 OFFCURVE",
"42 393 OFFCURVE",
"42 258 CURVE SMOOTH",
"42 131 OFFCURVE",
"139 2 OFFCURVE",
"276 -9 CURVE",
"276 -120 LINE"
);
},
{
closed = 1;
nodes = (
"132 347 OFFCURVE",
"185 438 OFFCURVE",
"276 449 CURVE",
"276 72 LINE",
"192 88 OFFCURVE",
"132 169 OFFCURVE",
"132 258 CURVE SMOOTH"
);
}
);
};
layerId = UUID0;
paths = (
{
closed = 1;
nodes = (
"320 -120 LINE",
"320 -10 LINE",
"391 -10 OFFCURVE",
"498 34 OFFCURVE",
"532 121 CURVE",
"446 147 LINE",
"432 102 OFFCURVE",
"367 72 OFFCURVE",
"320 68 CURVE",
"320 452 LINE",
"370 449 OFFCURVE",
"415 425 OFFCURVE",
"442 377 CURVE",
"527 404 LINE",
"488 481 OFFCURVE",
"417 527 OFFCURVE",
"320 530 CURVE",
"320 645 LINE",
"276 645 LINE",
"276 530 LINE",
"130 514 OFFCURVE",
"42 393 OFFCURVE",
"42 258 CURVE SMOOTH",
"42 131 OFFCURVE",
"139 2 OFFCURVE",
"276 -9 CURVE",
"276 -120 LINE"
);
},
{
closed = 1;
nodes = (
"132 258 LINE SMOOTH",
"132 347 OFFCURVE",
"185 438 OFFCURVE",
"276 449 CURVE",
"276 72 LINE",
"192 88 OFFCURVE",
"132 169 OFFCURVE",
"132 258 CURVE SMOOTH"
);
}
);
width = 570;
}
);
unicode = 00A2;
},
{
glyphname = colon;
lastChange = "2016-08-18 22:37:14 +0000";
layers = (
{
background = {
paths = (
{
closed = 1;
nodes = (
"137 406 LINE",
"137 518 LINE",
"64 518 LINE",
"64 406 LINE"
);
},
{
closed = 1;
nodes = (
"137 0 LINE",
"137 112 LINE",
"64 112 LINE",
"64 0 LINE"
);
}
);
};
layerId = UUID0;
paths = (
{
closed = 1;
nodes = (
"137 406 LINE",
"137 518 LINE",
"64 518 LINE",
"64 406 LINE"
);
},
{
closed = 1;
nodes = (
"137 0 LINE",
"137 112 LINE",
"64 112 LINE",
"64 0 LINE"
);
}
);
width = 201;
}
);
leftKerningGroup = colon;
rightKerningGroup = colon;
unicode = 003A;
},
{
glyphname = comma;
lastChange = "2016-08-18 22:37:14 +0000";
layers = (
{
background = {
paths = (
{
closed = 1;
nodes = (
"117 -81 LINE",
"147 8 LINE",
"147 112 LINE",
"64 112 LINE",
"64 8 LINE",
"94 8 LINE",
"74 -81 LINE"
);
}
);
};
layerId = UUID0;
paths = (
{
closed = 1;
nodes = (
"117 -81 LINE",
"147 8 LINE",
"147 112 LINE",
"64 112 LINE",
"64 8 LINE",
"94 8 LINE",
"74 -81 LINE"
);
}
);
width = 211;
}
);
leftKerningGroup = period;
rightKerningGroup = period;
unicode = 002C;
},
{
glyphname = copyright;
lastChange = "2016-08-18 22:37:14 +0000";
layers = (
{
background = {
paths = (
{
closed = 1;
nodes = (
"630 -7 OFFCURVE",
"789 148 OFFCURVE",
"789 355 CURVE SMOOTH",
"789 561 OFFCURVE",
"630 715 OFFCURVE",
"416 715 CURVE SMOOTH",
"204 715 OFFCURVE",
"47 561 OFFCURVE",
"47 355 CURVE SMOOTH",
"47 148 OFFCURVE",
"204 -7 OFFCURVE",
"416 -7 CURVE SMOOTH"
);
},
{
closed = 1;
nodes = (
"227 31 OFFCURVE",
"87 171 OFFCURVE",
"87 354 CURVE SMOOTH",
"87 538 OFFCURVE",
"228 677 OFFCURVE",
"416 677 CURVE SMOOTH",
"607 677 OFFCURVE",
"748 538 OFFCURVE",
"748 353 CURVE SMOOTH",
"748 162 OFFCURVE",
"603 31 OFFCURVE",
"416 31 CURVE SMOOTH"
);
},
{
closed = 1;
nodes = (
"529 121 OFFCURVE",
"604 187 OFFCURVE",
"626 241 CURVE",
"541 267 LINE",
"520 223 OFFCURVE",
"467 197 OFFCURVE",
"421 197 CURVE SMOOTH",
"354 197 OFFCURVE",
"275 254 OFFCURVE",
"275 355 CURVE SMOOTH",
"275 434 OFFCURVE",
"324 514 OFFCURVE",
"419 514 CURVE SMOOTH",
"456 514 OFFCURVE",
"510 501 OFFCURVE",
"535 447 CURVE",
"620 474 LINE",
"588 548 OFFCURVE",
"512 590 OFFCURVE",
"419 590 CURVE SMOOTH",
"261 590 OFFCURVE",
"185 470 OFFCURVE",
"185 355 CURVE SMOOTH",
"185 216 OFFCURVE",
"294 121 OFFCURVE",
"424 121 CURVE SMOOTH"
);
}
);
};
layerId = UUID0;
paths = (
{
closed = 1;
nodes = (
"416 -7 LINE SMOOTH",
"630 -7 OFFCURVE",
"789 148 OFFCURVE",
"789 355 CURVE SMOOTH",
"789 561 OFFCURVE",
"630 715 OFFCURVE",
"416 715 CURVE SMOOTH",
"204 715 OFFCURVE",
"47 561 OFFCURVE",
"47 355 CURVE SMOOTH",
"47 148 OFFCURVE",
"204 -7 OFFCURVE",
"416 -7 CURVE SMOOTH"
);
},
{
closed = 1;
nodes = (
"416 31 LINE SMOOTH",
"227 31 OFFCURVE",
"87 171 OFFCURVE",
"87 354 CURVE SMOOTH",
"87 538 OFFCURVE",
"228 677 OFFCURVE",
"416 677 CURVE SMOOTH",
"607 677 OFFCURVE",
"748 538 OFFCURVE",
"748 353 CURVE SMOOTH",
"748 162 OFFCURVE",
"603 31 OFFCURVE",
"416 31 CURVE SMOOTH"
);
},
{
closed = 1;
nodes = (
"424 121 LINE SMOOTH",
"529 121 OFFCURVE",
"604 187 OFFCURVE",
"626 241 CURVE",
"541 267 LINE",
"520 223 OFFCURVE",
"467 197 OFFCURVE",
"421 197 CURVE SMOOTH",
"354 197 OFFCURVE",
"275 254 OFFCURVE",
"275 355 CURVE SMOOTH",
"275 434 OFFCURVE",
"324 514 OFFCURVE",
"419 514 CURVE SMOOTH",
"456 514 OFFCURVE",
"510 501 OFFCURVE",
"535 447 CURVE",
"620 474 LINE",
"588 548 OFFCURVE",
"512 590 OFFCURVE",
"419 590 CURVE SMOOTH",
"261 590 OFFCURVE",
"185 470 OFFCURVE",
"185 355 CURVE SMOOTH",
"185 216 OFFCURVE",
"294 121 OFFCURVE",
"424 121 CURVE SMOOTH"
);
}
);
width = 836;
}
);
unicode = 00A9;
},
{
glyphname = d;
lastChange = "2016-08-18 22:37:14 +0000";
layers = (
{
anchors = (
{
name = top;
position = "{617, 522}";
}
);
background = {
paths = (
{
closed = 1;
nodes = (
"361 -10 OFFCURVE",
"436 31 OFFCURVE",
"477 98 CURVE",
"477 54 LINE SMOOTH",
"477 24 OFFCURVE",
"507 -4 OFFCURVE",
"542 -4 CURVE SMOOTH",
"553 -4 OFFCURVE",
"562 -3 OFFCURVE",
"581 0 CURVE",
"581 76 LINE",
"561 77 OFFCURVE",
"553 86 OFFCURVE",
"553 108 CURVE SMOOTH",
"553 730 LINE",
"465 730 LINE",
"465 418 LINE",
"427 481 OFFCURVE",
"358 531 OFFCURVE",
"274 531 CURVE SMOOTH",
"136 531 OFFCURVE",
"37 408 OFFCURVE",
"37 260 CURVE SMOOTH",
"37 116 OFFCURVE",
"141 -10 OFFCURVE",
"286 -10 CURVE SMOOTH"
);
},
{
closed = 1;
nodes = (
"206 66 OFFCURVE",
"128 154 OFFCURVE",
"128 259 CURVE SMOOTH",
"128 359 OFFCURVE",
"196 455 OFFCURVE",
"299 455 CURVE SMOOTH",
"365 455 OFFCURVE",
"440 401 OFFCURVE",
"465 333 CURVE",
"465 183 LINE",
"452 118 OFFCURVE",
"370 66 OFFCURVE",
"307 66 CURVE SMOOTH"
);
}
);
};
layerId = UUID0;
paths = (
{
closed = 1;
nodes = (
"286 -10 LINE SMOOTH",
"361 -10 OFFCURVE",
"436 31 OFFCURVE",
"477 98 CURVE",
"477 54 LINE SMOOTH",
"477 24 OFFCURVE",
"507 -4 OFFCURVE",
"542 -4 CURVE SMOOTH",
"553 -4 OFFCURVE",
"562 -3 OFFCURVE",
"581 0 CURVE",
"581 76 LINE",
"561 77 OFFCURVE",
"553 86 OFFCURVE",
"553 108 CURVE SMOOTH",
"553 730 LINE",
"465 730 LINE",
"465 418 LINE",
"427 481 OFFCURVE",
"358 531 OFFCURVE",
"274 531 CURVE SMOOTH",
"136 531 OFFCURVE",
"37 408 OFFCURVE",
"37 260 CURVE SMOOTH",
"37 116 OFFCURVE",
"141 -10 OFFCURVE",
"286 -10 CURVE SMOOTH"
);
},
{
closed = 1;
nodes = (
"307 66 LINE SMOOTH",
"206 66 OFFCURVE",
"128 154 OFFCURVE",
"128 259 CURVE SMOOTH",
"128 359 OFFCURVE",
"196 455 OFFCURVE",
"299 455 CURVE SMOOTH",
"365 455 OFFCURVE",
"440 401 OFFCURVE",
"465 333 CURVE",
"465 183 LINE",
"452 118 OFFCURVE",
"370 66 OFFCURVE",
"307 66 CURVE SMOOTH"
);
}
);
width = 629;
}
);
leftKerningGroup = d;
rightKerningGroup = d;
unicode = 0064;
},
{
glyphname = d.alt;
lastChange = "2016-08-18 22:37:14 +0000";
layers = (
{
background = {
paths = (
{
closed = 1;
nodes = (
"553 0 LINE",
"553 730 LINE",
"465 730 LINE",
"465 418 LINE",
"424 481 OFFCURVE",
"358 531 OFFCURVE",
"273 531 CURVE SMOOTH",
"137 531 OFFCURVE",
"37 408 OFFCURVE",
"37 260 CURVE SMOOTH",
"37 116 OFFCURVE",
"141 -10 OFFCURVE",
"286 -10 CURVE SMOOTH",
"361 -10 OFFCURVE",
"427 30 OFFCURVE",
"465 92 CURVE",
"465 0 LINE"
);
},
{
closed = 1;
nodes = (
"465 183 LINE",
"454 118 OFFCURVE",
"371 66 OFFCURVE",
"307 66 CURVE SMOOTH",
"206 66 OFFCURVE",
"128 154 OFFCURVE",
"128 259 CURVE SMOOTH",
"128 358 OFFCURVE",
"196 455 OFFCURVE",
"298 455 CURVE SMOOTH",
"365 455 OFFCURVE",
"441 402 OFFCURVE",
"465 333 CURVE"
);
}
);
};
layerId = UUID0;
paths = (
{
closed = 1;
nodes = (
"553 0 LINE",
"553 730 LINE",
"465 730 LINE",
"465 418 LINE",
"424 481 OFFCURVE",
"358 531 OFFCURVE",
"273 531 CURVE SMOOTH",
"137 531 OFFCURVE",
"37 408 OFFCURVE",
"37 260 CURVE SMOOTH",
"37 116 OFFCURVE",
"141 -10 OFFCURVE",
"286 -10 CURVE SMOOTH",
"361 -10 OFFCURVE",
"427 30 OFFCURVE",
"465 92 CURVE",
"465 0 LINE"
);
},
{
closed = 1;
nodes = (
"465 183 LINE",
"454 118 OFFCURVE",
"371 66 OFFCURVE",
"307 66 CURVE SMOOTH",
"206 66 OFFCURVE",
"128 154 OFFCURVE",
"128 259 CURVE SMOOTH",
"128 358 OFFCURVE",
"196 455 OFFCURVE",
"298 455 CURVE SMOOTH",
"365 455 OFFCURVE",
"441 402 OFFCURVE",
"465 333 CURVE"
);
}
);
width = 624;
}
);
leftKerningGroup = d;
},
{
glyphname = dagger;
lastChange = "2016-08-18 22:37:14 +0000";
layers = (
{
background = {
paths = (
{
closed = 1;
nodes = (
"253 -130 LINE",
"253 231 LINE",
"384 231 LINE",
"384 311 LINE",
"253 311 LINE",
"253 775 LINE",
"169 775 LINE",
"169 311 LINE",
"37 311 LINE",
"37 231 LINE",
"169 231 LINE",
"169 -130 LINE"
);
}
);
};
layerId = UUID0;
paths = (
{
closed = 1;
nodes = (
"253 -130 LINE",
"253 231 LINE",
"384 231 LINE",
"384 311 LINE",
"253 311 LINE",
"253 775 LINE",
"169 775 LINE",
"169 311 LINE",
"37 311 LINE",
"37 231 LINE",
"169 231 LINE",
"169 -130 LINE"
);
}
);
width = 421;
}
);
unicode = 2020;
},
{
glyphname = daggerdbl;
lastChange = "2016-08-18 22:37:14 +0000";
layers = (
{
background = {
paths = (
{
closed = 1;
nodes = (
"254 -130 LINE",
"254 142 LINE",
"385 142 LINE",
"385 222 LINE",
"254 222 LINE",
"254 333 LINE",
"385 333 LINE",
"385 413 LINE",
"254 413 LINE",
"254 775 LINE",
"170 775 LINE",
"170 413 LINE",
"38 413 LINE",
"38 333 LINE",
"170 333 LINE",
"170 222 LINE",
"38 222 LINE",
"38 142 LINE",
"170 142 LINE",
"170 -130 LINE"
);
}
);
};
layerId = UUID0;
paths = (
{
closed = 1;
nodes = (
"254 -130 LINE",
"254 142 LINE",
"385 142 LINE",
"385 222 LINE",
"254 222 LINE",
"254 333 LINE",
"385 333 LINE",
"385 413 LINE",
"254 413 LINE",
"254 775 LINE",
"170 775 LINE",
"170 413 LINE",
"38 413 LINE",
"38 333 LINE",
"170 333 LINE",
"170 222 LINE",
"38 222 LINE",
"38 142 LINE",
"170 142 LINE",
"170 -130 LINE"
);
}
);
width = 423;
}
);
unicode = 2021;
},
{
glyphname = dcroat;
lastChange = "2016-08-18 22:37:14 +0000";
layers = (
{
background = {
paths = (
{
closed = 1;
nodes = (
"621 611 LINE",
"621 667 LINE",
"355 667 LINE",
"355 611 LINE"
);
}
);
};
components = (
{
name = d;
}
);
layerId = UUID0;
paths = (
{
closed = 1;
nodes = (
"621 611 LINE",
"621 667 LINE",
"355 667 LINE",
"355 611 LINE"
);
}
);
width = 629;
}
);
leftKerningGroup = d;
rightKerningGroup = d;
unicode = 0111;
},
{
glyphname = degree;
lastChange = "2016-08-18 22:37:14 +0000";
layers = (
{
background = {
paths = (
{
closed = 1;
nodes = (
"47 585 OFFCURVE",
"86 546 OFFCURVE",
"136 546 CURVE SMOOTH",
"187 546 OFFCURVE",
"225 584 OFFCURVE",
"225 637 CURVE SMOOTH",
"225 686 OFFCURVE",
"187 724 OFFCURVE",
"136 724 CURVE SMOOTH",
"86 724 OFFCURVE",
"47 686 OFFCURVE",
"47 637 CURVE"
);
},
{
closed = 1;
nodes = (
"114 673 OFFCURVE",
"124 677 OFFCURVE",
"136 677 CURVE SMOOTH",
"147 677 OFFCURVE",
"159 673 OFFCURVE",
"166 665 CURVE SMOOTH",
"173 657 OFFCURVE",
"178 647 OFFCURVE",
"178 635 CURVE SMOOTH",
"178 624 OFFCURVE",
"173 613 OFFCURVE",
"166 606 CURVE SMOOTH",
"159 598 OFFCURVE",
"147 593 OFFCURVE",
"136 593 CURVE SMOOTH",
"124 593 OFFCURVE",
"114 598 OFFCURVE",
"106 606 CURVE SMOOTH",
"99 613 OFFCURVE",
"94 624 OFFCURVE",
"94 635 CURVE SMOOTH",
"94 647 OFFCURVE",
"99 657 OFFCURVE",
"106 665 CURVE"
);
}
);
};
layerId = UUID0;
paths = (
{
closed = 1;
nodes = (
"47 637 LINE",
"47 585 OFFCURVE",
"86 546 OFFCURVE",
"136 546 CURVE SMOOTH",
"187 546 OFFCURVE",
"225 584 OFFCURVE",
"225 637 CURVE SMOOTH",
"225 686 OFFCURVE",
"187 724 OFFCURVE",
"136 724 CURVE SMOOTH",
"86 724 OFFCURVE",
"47 686 OFFCURVE",
"47 637 CURVE"
);
},
{
closed = 1;
nodes = (
"106 665 LINE",
"114 673 OFFCURVE",
"124 677 OFFCURVE",
"136 677 CURVE SMOOTH",
"147 677 OFFCURVE",
"159 673 OFFCURVE",
"166 665 CURVE SMOOTH",
"173 657 OFFCURVE",
"178 647 OFFCURVE",
"178 635 CURVE SMOOTH",
"178 624 OFFCURVE",
"173 613 OFFCURVE",
"166 606 CURVE SMOOTH",
"159 598 OFFCURVE",
"147 593 OFFCURVE",
"136 593 CURVE SMOOTH",
"124 593 OFFCURVE",
"114 598 OFFCURVE",
"106 606 CURVE SMOOTH",
"99 613 OFFCURVE",
"94 624 OFFCURVE",
"94 635 CURVE SMOOTH",
"94 647 OFFCURVE",
"99 657 OFFCURVE",
"106 665 CURVE"
);
}
);
width = 272;
}
);
unicode = 00B0;
},
{
glyphname = divide;
lastChange = "2016-08-18 22:37:14 +0000";
layers = (
{
background = {
paths = (
{
closed = 1;
nodes = (
"304 405 LINE",
"304 507 LINE",
"229 507 LINE",
"229 405 LINE"
);
},
{
closed = 1;
nodes = (
"304 66 LINE",
"304 168 LINE",
"229 168 LINE",
"229 66 LINE"
);
},
{
closed = 1;
nodes = (
"468 251 LINE",
"468 323 LINE",
"65 323 LINE",
"65 251 LINE"
);
}
);
};
layerId = UUID0;
paths = (
{
closed = 1;
nodes = (
"304 405 LINE",
"304 507 LINE",
"229 507 LINE",
"229 405 LINE"
);
},
{
closed = 1;
nodes = (
"304 66 LINE",
"304 168 LINE",
"229 168 LINE",
"229 66 LINE"
);
},
{
closed = 1;
nodes = (
"468 251 LINE",
"468 323 LINE",
"65 323 LINE",
"65 251 LINE"
);
}
);
width = 533;
}
);
unicode = 00F7;
},
{
glyphname = dollar;
lastChange = "2016-08-18 22:37:14 +0000";
layers = (
{
background = {
paths = (
{
closed = 1;
nodes = (
"291 -107 LINE",
"335 -107 LINE",
"335 38 LINE",
"291 39 LINE"
);
},
{
closed = 1;
nodes = (
"329 48 LINE",
"329 666 LINE",
"296 659 LINE",
"296 50 LINE"
);
},
{
closed = 1;
nodes = (
"291 665 LINE",
"335 672 LINE",
"335 815 LINE",
"291 815 LINE"
);
}
);
};
components = (
{
name = S;
transform = "{1, 0, 0, 1, 6, 0}";
}
);
layerId = UUID0;
paths = (
{
closed = 1;
nodes = (
"291 -107 LINE",
"335 -107 LINE",
"335 38 LINE",
"291 38 LINE"
);
},
{
closed = 1;
nodes = (
"329 48 LINE",
"329 666 LINE",
"296 659 LINE",
"296 50 LINE"
);
},
{
closed = 1;
nodes = (
"291 665 LINE",
"335 672 LINE",
"335 815 LINE",
"291 815 LINE"
);
}
);
width = 622;
}
);
unicode = 0024;
},
{
glyphname = dotlessi;
lastChange = "2016-08-18 22:37:14 +0000";
layers = (
{
anchors = (
{
name = top;
position = "{115, 522}";
}
);
background = {
paths = (
{
closed = 1;
nodes = (
"159 0 LINE",
"159 522 LINE",
"71 522 LINE",
"71 0 LINE"
);
}
);
};
layerId = UUID0;
paths = (
{
closed = 1;
nodes = (
"159 0 LINE",
"159 522 LINE",
"71 522 LINE",
"71 0 LINE"
);
}
);
width = 230;
}
);
leftKerningGroup = i;
rightKerningGroup = i;
unicode = 0131;
},
{
glyphname = dotlessj;
lastChange = "2016-08-18 22:37:14 +0000";
layers = (
{
anchors = (
{
name = top;
position = "{115, 522}";
}
);
background = {
paths = (
{
closed = 1;
nodes = (
"82 -186 OFFCURVE",
"159 -116 OFFCURVE",
"159 -17 CURVE SMOOTH",
"159 522 LINE",
"71 522 LINE",
"71 -23 LINE SMOOTH",
"71 -72 OFFCURVE",
"30 -108 OFFCURVE",
"-13 -108 CURVE SMOOTH",
"-37 -108 OFFCURVE",
"-63 -102 OFFCURVE",
"-82 -85 CURVE",
"-123 -144 LINE",
"-91 -173 OFFCURVE",
"-49 -186 OFFCURVE",
"-3 -186 CURVE SMOOTH"
);
}
);
};
layerId = UUID0;
paths = (
{
closed = 1;
nodes = (
"-3 -186 LINE SMOOTH",
"82 -186 OFFCURVE",
"159 -116 OFFCURVE",
"159 -17 CURVE SMOOTH",
"159 522 LINE",
"71 522 LINE",
"71 -23 LINE SMOOTH",
"71 -72 OFFCURVE",
"30 -108 OFFCURVE",
"-13 -108 CURVE SMOOTH",
"-37 -108 OFFCURVE",
"-63 -102 OFFCURVE",
"-82 -85 CURVE",
"-123 -144 LINE",
"-91 -173 OFFCURVE",
"-49 -186 OFFCURVE",
"-3 -186 CURVE SMOOTH"
);
}
);
width = 230;
}
);
leftKerningGroup = i;
rightKerningGroup = i;
unicode = 0237;
},
{
glyphname = e;
lastChange = "2016-08-18 22:37:14 +0000";
layers = (
{
anchors = (
{
name = bottom;
position = "{301, 0}";
},
{
name = top;
position = "{299, 522}";
}
);
background = {
paths = (
{
closed = 1;
nodes = (
"407 -10 OFFCURVE",
"496 45 OFFCURVE",
"530 122 CURVE",
"454 143 LINE",
"432 91 OFFCURVE",
"369 56 OFFCURVE",
"305 56 CURVE SMOOTH",
"214 56 OFFCURVE",
"137 128 OFFCURVE",
"129 231 CURVE",
"562 231 LINE",
"563 237 OFFCURVE",
"564 251 OFFCURVE",
"564 265 CURVE SMOOTH",
"564 405 OFFCURVE",
"461 531 OFFCURVE",
"303 531 CURVE SMOOTH",
"146 531 OFFCURVE",
"36 408 OFFCURVE",
"36 261 CURVE SMOOTH",
"36 114 OFFCURVE",
"145 -10 OFFCURVE",
"302 -10 CURVE SMOOTH"
);
},
{
closed = 1;
nodes = (
"127 296 LINE",
"134 395 OFFCURVE",
"210 465 OFFCURVE",
"303 465 CURVE SMOOTH",
"396 465 OFFCURVE",
"472 396 OFFCURVE",
"481 296 CURVE"
);
}
);
};
layerId = UUID0;
paths = (
{
closed = 1;
nodes = (
"302 -10 LINE SMOOTH",
"407 -10 OFFCURVE",
"496 45 OFFCURVE",
"530 122 CURVE",
"454 143 LINE",
"432 91 OFFCURVE",
"369 56 OFFCURVE",
"305 56 CURVE SMOOTH",
"214 56 OFFCURVE",
"137 128 OFFCURVE",
"129 231 CURVE",
"562 231 LINE",
"563 237 OFFCURVE",
"564 251 OFFCURVE",
"564 265 CURVE SMOOTH",
"564 405 OFFCURVE",
"461 531 OFFCURVE",
"303 531 CURVE SMOOTH",
"146 531 OFFCURVE",
"36 408 OFFCURVE",
"36 261 CURVE SMOOTH",
"36 114 OFFCURVE",
"145 -10 OFFCURVE",
"302 -10 CURVE SMOOTH"
);
},
{
closed = 1;
nodes = (
"127 296 LINE",
"134 395 OFFCURVE",
"210 465 OFFCURVE",
"303 465 CURVE SMOOTH",
"396 465 OFFCURVE",
"472 396 OFFCURVE",
"481 296 CURVE"
);
}
);
width = 591;
}
);
leftKerningGroup = o;
rightKerningGroup = e;
unicode = 0065;
},
{
glyphname = eight;
lastChange = "2016-08-18 22:37:14 +0000";
layers = (
{
background = {
paths = (
{
closed = 1;
nodes = (
"549 288 OFFCURVE",
"487 352 OFFCURVE",
"415 380 CURVE",
"475 405 OFFCURVE",
"526 459 OFFCURVE",
"526 525 CURVE SMOOTH",
"526 645 OFFCURVE",
"406 710 OFFCURVE",
"299 710 CURVE SMOOTH",
"193 710 OFFCURVE",
"73 644 OFFCURVE",
"73 524 CURVE SMOOTH",
"73 458 OFFCURVE",
"123 405 OFFCURVE",
"182 380 CURVE",
"118 355 OFFCURVE",
"49 293 OFFCURVE",
"49 205 CURVE SMOOTH",
"49 85 OFFCURVE",
"155 -8 OFFCURVE",
"297 -8 CURVE SMOOTH",
"433 -8 OFFCURVE",
"549 74 OFFCURVE",
"549 201 CURVE SMOOTH"
);
},
{
closed = 1;
nodes = (
"460 126 OFFCURVE",
"379 71 OFFCURVE",
"300 71 CURVE SMOOTH",
"223 71 OFFCURVE",
"139 122 OFFCURVE",
"139 206 CURVE SMOOTH",
"139 289 OFFCURVE",
"218 343 OFFCURVE",
"298 343 CURVE SMOOTH",
"375 343 OFFCURVE",
"460 293 OFFCURVE",
"460 207 CURVE SMOOTH"
);
},
{
closed = 1;
nodes = (
"162 589 OFFCURVE",
"227 631 OFFCURVE",
"298 631 CURVE SMOOTH",
"370 631 OFFCURVE",
"436 590 OFFCURVE",
"436 523 CURVE SMOOTH",
"436 451 OFFCURVE",
"362 411 OFFCURVE",
"299 411 CURVE SMOOTH",
"236 411 OFFCURVE",
"162 450 OFFCURVE",
"162 521 CURVE SMOOTH"
);
}
);
};
layerId = UUID0;
paths = (
{
closed = 1;
nodes = (
"549 201 LINE SMOOTH",
"549 288 OFFCURVE",
"487 352 OFFCURVE",
"415 380 CURVE",
"475 405 OFFCURVE",
"526 459 OFFCURVE",
"526 525 CURVE SMOOTH",
"526 645 OFFCURVE",
"406 710 OFFCURVE",
"299 710 CURVE SMOOTH",
"193 710 OFFCURVE",
"73 644 OFFCURVE",
"73 524 CURVE SMOOTH",
"73 458 OFFCURVE",
"123 405 OFFCURVE",
"182 380 CURVE",
"118 355 OFFCURVE",
"49 293 OFFCURVE",
"49 205 CURVE SMOOTH",
"49 85 OFFCURVE",
"155 -8 OFFCURVE",
"297 -8 CURVE SMOOTH",
"433 -8 OFFCURVE",
"549 74 OFFCURVE",
"549 201 CURVE SMOOTH"
);
},
{
closed = 1;
nodes = (
"460 207 LINE SMOOTH",
"460 126 OFFCURVE",
"379 71 OFFCURVE",
"300 71 CURVE SMOOTH",
"223 71 OFFCURVE",
"139 122 OFFCURVE",
"139 206 CURVE SMOOTH",
"139 289 OFFCURVE",
"218 343 OFFCURVE",
"298 343 CURVE SMOOTH",
"375 343 OFFCURVE",
"460 293 OFFCURVE",
"460 207 CURVE SMOOTH"
);
},
{
closed = 1;
nodes = (
"162 521 LINE SMOOTH",
"162 589 OFFCURVE",
"227 631 OFFCURVE",
"298 631 CURVE SMOOTH",
"370 631 OFFCURVE",
"436 590 OFFCURVE",
"436 523 CURVE SMOOTH",
"436 451 OFFCURVE",
"362 411 OFFCURVE",
"299 411 CURVE SMOOTH",
"236 411 OFFCURVE",
"162 450 OFFCURVE",
"162 521 CURVE SMOOTH"
);
}
);
width = 598;
}
);
unicode = 0038;
},
{
glyphname = eight.lnum;
lastChange = "2016-08-18 22:37:14 +0000";
layers = (
{
background = {
paths = (
{
closed = 1;
nodes = (
"549 288 OFFCURVE",
"487 352 OFFCURVE",
"415 380 CURVE",
"475 405 OFFCURVE",
"526 459 OFFCURVE",
"526 525 CURVE SMOOTH",
"526 645 OFFCURVE",
"406 710 OFFCURVE",
"299 710 CURVE SMOOTH",
"193 710 OFFCURVE",
"73 644 OFFCURVE",
"73 524 CURVE SMOOTH",
"73 458 OFFCURVE",
"123 405 OFFCURVE",
"182 380 CURVE",
"118 355 OFFCURVE",
"49 293 OFFCURVE",
"49 205 CURVE SMOOTH",
"49 85 OFFCURVE",
"155 -8 OFFCURVE",
"297 -8 CURVE SMOOTH",
"433 -8 OFFCURVE",
"549 74 OFFCURVE",
"549 201 CURVE SMOOTH"
);
},
{
closed = 1;
nodes = (
"460 126 OFFCURVE",
"379 71 OFFCURVE",
"300 71 CURVE SMOOTH",
"223 71 OFFCURVE",
"139 122 OFFCURVE",
"139 206 CURVE SMOOTH",
"139 289 OFFCURVE",
"218 343 OFFCURVE",
"298 343 CURVE SMOOTH",
"375 343 OFFCURVE",
"460 293 OFFCURVE",
"460 207 CURVE SMOOTH"
);
},
{
closed = 1;
nodes = (
"162 589 OFFCURVE",
"227 631 OFFCURVE",
"298 631 CURVE SMOOTH",
"370 631 OFFCURVE",
"436 590 OFFCURVE",
"436 523 CURVE SMOOTH",
"436 451 OFFCURVE",
"362 411 OFFCURVE",
"299 411 CURVE SMOOTH",
"236 411 OFFCURVE",
"162 450 OFFCURVE",
"162 521 CURVE SMOOTH"
);
}
);
};
layerId = UUID0;
paths = (
{
closed = 1;
nodes = (
"549 201 LINE SMOOTH",
"549 288 OFFCURVE",
"487 352 OFFCURVE",
"415 380 CURVE",
"475 405 OFFCURVE",
"526 459 OFFCURVE",
"526 525 CURVE SMOOTH",
"526 645 OFFCURVE",
"406 710 OFFCURVE",
"299 710 CURVE SMOOTH",
"193 710 OFFCURVE",
"73 644 OFFCURVE",
"73 524 CURVE SMOOTH",
"73 458 OFFCURVE",
"123 405 OFFCURVE",
"182 380 CURVE",
"118 355 OFFCURVE",
"49 293 OFFCURVE",
"49 205 CURVE SMOOTH",
"49 85 OFFCURVE",
"155 -8 OFFCURVE",
"297 -8 CURVE SMOOTH",
"433 -8 OFFCURVE",
"549 74 OFFCURVE",
"549 201 CURVE SMOOTH"
);
},
{
closed = 1;
nodes = (
"460 207 LINE SMOOTH",
"460 126 OFFCURVE",
"379 71 OFFCURVE",
"300 71 CURVE SMOOTH",
"223 71 OFFCURVE",
"139 122 OFFCURVE",
"139 206 CURVE SMOOTH",
"139 289 OFFCURVE",
"218 343 OFFCURVE",
"298 343 CURVE SMOOTH",
"375 343 OFFCURVE",
"460 293 OFFCURVE",
"460 207 CURVE SMOOTH"
);
},
{
closed = 1;
nodes = (
"162 521 LINE SMOOTH",
"162 589 OFFCURVE",
"227 631 OFFCURVE",
"298 631 CURVE SMOOTH",
"370 631 OFFCURVE",
"436 590 OFFCURVE",
"436 523 CURVE SMOOTH",
"436 451 OFFCURVE",
"362 411 OFFCURVE",
"299 411 CURVE SMOOTH",
"236 411 OFFCURVE",
"162 450 OFFCURVE",
"162 521 CURVE SMOOTH"
);
}
);
width = 598;
}
);
},
{
glyphname = eightinferior;
lastChange = "2016-08-18 22:37:14 +0000";
layers = (
{
background = {
paths = (
{
closed = 1;
nodes = (
"368 85 OFFCURVE",
"329 119 OFFCURVE",
"277 138 CURVE",
"319 152 OFFCURVE",
"352 181 OFFCURVE",
"352 221 CURVE SMOOTH",
"352 286 OFFCURVE",
"274 326 OFFCURVE",
"202 326 CURVE SMOOTH",
"130 326 OFFCURVE",
"52 285 OFFCURVE",
"52 220 CURVE SMOOTH",
"52 179 OFFCURVE",
"87 152 OFFCURVE",
"126 138 CURVE",
"80 121 OFFCURVE",
"36 89 OFFCURVE",
"36 37 CURVE SMOOTH",
"36 -30 OFFCURVE",
"106 -85 OFFCURVE",
"201 -85 CURVE SMOOTH",
"291 -85 OFFCURVE",
"368 -36 OFFCURVE",
"368 35 CURVE SMOOTH"
);
},
{
closed = 1;
nodes = (
"312 -2 OFFCURVE",
"257 -30 OFFCURVE",
"203 -30 CURVE SMOOTH",
"151 -30 OFFCURVE",
"92 -4 OFFCURVE",
"92 40 CURVE SMOOTH",
"92 84 OFFCURVE",
"146 113 OFFCURVE",
"202 113 CURVE SMOOTH",
"254 113 OFFCURVE",
"312 86 OFFCURVE",
"312 41 CURVE SMOOTH"
);
},
{
closed = 1;
nodes = (
"108 251 OFFCURVE",
"152 273 OFFCURVE",
"202 273 CURVE SMOOTH",
"250 273 OFFCURVE",
"297 251 OFFCURVE",
"297 216 CURVE SMOOTH",
"297 180 OFFCURVE",
"246 158 OFFCURVE",
"202 158 CURVE SMOOTH",
"158 158 OFFCURVE",
"108 179 OFFCURVE",
"108 215 CURVE SMOOTH"
);
}
);
};
layerId = UUID0;
paths = (
{
closed = 1;
nodes = (
"368 35 LINE SMOOTH",
"368 85 OFFCURVE",
"329 119 OFFCURVE",
"277 138 CURVE",
"319 152 OFFCURVE",
"352 181 OFFCURVE",
"352 221 CURVE SMOOTH",
"352 286 OFFCURVE",
"274 326 OFFCURVE",
"202 326 CURVE SMOOTH",
"130 326 OFFCURVE",
"52 285 OFFCURVE",
"52 220 CURVE SMOOTH",
"52 179 OFFCURVE",
"87 152 OFFCURVE",
"126 138 CURVE",
"80 121 OFFCURVE",
"36 89 OFFCURVE",
"36 37 CURVE SMOOTH",
"36 -30 OFFCURVE",
"106 -85 OFFCURVE",
"201 -85 CURVE SMOOTH",
"291 -85 OFFCURVE",
"368 -36 OFFCURVE",
"368 35 CURVE SMOOTH"
);
},
{
closed = 1;
nodes = (
"312 41 LINE SMOOTH",
"312 -2 OFFCURVE",
"257 -30 OFFCURVE",
"203 -30 CURVE SMOOTH",
"151 -30 OFFCURVE",
"92 -4 OFFCURVE",
"92 40 CURVE SMOOTH",
"92 84 OFFCURVE",
"146 113 OFFCURVE",
"202 113 CURVE SMOOTH",
"254 113 OFFCURVE",
"312 86 OFFCURVE",
"312 41 CURVE SMOOTH"
);
},
{
closed = 1;
nodes = (
"108 215 LINE SMOOTH",
"108 251 OFFCURVE",
"152 273 OFFCURVE",
"202 273 CURVE SMOOTH",
"250 273 OFFCURVE",
"297 251 OFFCURVE",
"297 216 CURVE SMOOTH",
"297 180 OFFCURVE",
"246 158 OFFCURVE",
"202 158 CURVE SMOOTH",
"158 158 OFFCURVE",
"108 179 OFFCURVE",
"108 215 CURVE SMOOTH"
);
}
);
width = 405;
}
);
unicode = 2088;
},
{
glyphname = eightsuperior;
lastChange = "2016-08-18 22:37:14 +0000";
layers = (
{
background = {
paths = (
{
closed = 1;
nodes = (
"368 569 OFFCURVE",
"329 604 OFFCURVE",
"277 622 CURVE",
"319 636 OFFCURVE",
"352 665 OFFCURVE",
"352 705 CURVE SMOOTH",
"352 770 OFFCURVE",
"274 810 OFFCURVE",
"202 810 CURVE SMOOTH",
"130 810 OFFCURVE",
"52 769 OFFCURVE",
"52 704 CURVE SMOOTH",
"52 663 OFFCURVE",
"87 636 OFFCURVE",
"126 622 CURVE",
"80 605 OFFCURVE",
"36 573 OFFCURVE",
"36 521 CURVE SMOOTH",
"36 454 OFFCURVE",
"106 399 OFFCURVE",
"201 399 CURVE SMOOTH",
"291 399 OFFCURVE",
"368 448 OFFCURVE",
"368 519 CURVE SMOOTH"
);
},
{
closed = 1;
nodes = (
"312 482 OFFCURVE",
"257 454 OFFCURVE",
"203 454 CURVE SMOOTH",
"151 454 OFFCURVE",
"92 480 OFFCURVE",
"92 525 CURVE SMOOTH",
"92 568 OFFCURVE",
"146 597 OFFCURVE",
"202 597 CURVE SMOOTH",
"254 597 OFFCURVE",
"312 570 OFFCURVE",
"312 525 CURVE SMOOTH"
);
},
{
closed = 1;
nodes = (
"108 735 OFFCURVE",
"152 757 OFFCURVE",
"202 757 CURVE SMOOTH",
"250 757 OFFCURVE",
"297 736 OFFCURVE",
"297 700 CURVE SMOOTH",
"297 664 OFFCURVE",
"246 643 OFFCURVE",
"202 643 CURVE SMOOTH",
"158 643 OFFCURVE",
"108 663 OFFCURVE",
"108 700 CURVE SMOOTH"
);
}
);
};
layerId = UUID0;
paths = (
{
closed = 1;
nodes = (
"368 519 LINE SMOOTH",
"368 569 OFFCURVE",
"329 604 OFFCURVE",
"277 622 CURVE",
"319 636 OFFCURVE",
"352 665 OFFCURVE",
"352 705 CURVE SMOOTH",
"352 770 OFFCURVE",
"274 810 OFFCURVE",
"202 810 CURVE SMOOTH",
"130 810 OFFCURVE",
"52 769 OFFCURVE",
"52 704 CURVE SMOOTH",
"52 663 OFFCURVE",
"87 636 OFFCURVE",
"126 622 CURVE",
"80 605 OFFCURVE",
"36 573 OFFCURVE",
"36 521 CURVE SMOOTH",
"36 454 OFFCURVE",
"106 399 OFFCURVE",
"201 399 CURVE SMOOTH",
"291 399 OFFCURVE",
"368 448 OFFCURVE",
"368 519 CURVE SMOOTH"
);
},
{
closed = 1;
nodes = (
"312 525 LINE SMOOTH",
"312 482 OFFCURVE",
"257 454 OFFCURVE",
"203 454 CURVE SMOOTH",
"151 454 OFFCURVE",
"92 480 OFFCURVE",
"92 525 CURVE SMOOTH",
"92 568 OFFCURVE",
"146 597 OFFCURVE",
"202 597 CURVE SMOOTH",
"254 597 OFFCURVE",
"312 570 OFFCURVE",
"312 525 CURVE SMOOTH"
);
},
{
closed = 1;
nodes = (
"108 700 LINE SMOOTH",
"108 735 OFFCURVE",
"152 757 OFFCURVE",
"202 757 CURVE SMOOTH",
"250 757 OFFCURVE",
"297 736 OFFCURVE",
"297 700 CURVE SMOOTH",
"297 664 OFFCURVE",
"246 643 OFFCURVE",
"202 643 CURVE SMOOTH",
"158 643 OFFCURVE",
"108 663 OFFCURVE",
"108 700 CURVE SMOOTH"
);
}
);
width = 405;
}
);
unicode = 2078;
},
{
glyphname = ellipsis;
lastChange = "2016-08-18 22:37:14 +0000";
layers = (
{
background = {
paths = (
{
closed = 1;
nodes = (
"138 0 LINE",
"138 112 LINE",
"64 112 LINE",
"64 0 LINE"
);
},
{
closed = 1;
nodes = (
"288 0 LINE",
"288 112 LINE",
"215 112 LINE",
"215 0 LINE"
);
},
{
closed = 1;
nodes = (
"439 0 LINE",
"439 112 LINE",
"365 112 LINE",
"365 0 LINE"
);
}
);
};
layerId = UUID0;
paths = (
{
closed = 1;
nodes = (
"138 0 LINE",
"138 112 LINE",
"64 112 LINE",
"64 0 LINE"
);
},
{
closed = 1;
nodes = (
"288 0 LINE",
"288 112 LINE",
"215 112 LINE",
"215 0 LINE"
);
},
{
closed = 1;
nodes = (
"439 0 LINE",
"439 112 LINE",
"365 112 LINE",
"365 0 LINE"
);
}
);
width = 503;
}
);
leftKerningGroup = period;
unicode = 2026;
},
{
glyphname = emdash;
lastChange = "2016-08-18 22:37:14 +0000";
layers = (
{
background = {
paths = (
{
closed = 1;
nodes = (
"847 233 LINE",
"847 313 LINE",
"64 313 LINE",
"64 233 LINE"
);
}
);
};
layerId = UUID0;
paths = (
{
closed = 1;
nodes = (
"847 233 LINE",
"847 313 LINE",
"64 313 LINE",
"64 233 LINE"
);
}
);
width = 911;
}
);
leftKerningGroup = hyphen;
rightKerningGroup = hyphen;
unicode = 2014;
},
{
glyphname = endash;
lastChange = "2016-08-18 22:37:14 +0000";
layers = (
{
background = {
paths = (
{
closed = 1;
nodes = (
"518 233 LINE",
"518 313 LINE",
"64 313 LINE",
"64 233 LINE"
);
}
);
};
layerId = UUID0;
paths = (
{
closed = 1;
nodes = (
"518 233 LINE",
"518 313 LINE",
"64 313 LINE",
"64 233 LINE"
);
}
);
width = 582;
}
);
leftKerningGroup = hyphen;
rightKerningGroup = hyphen;
unicode = 2013;
},
{
glyphname = eng;
lastChange = "2016-08-18 22:37:14 +0000";
layers = (
{
background = {
paths = (
{
closed = 1;
nodes = (
"447 -186 OFFCURVE",
"524 -116 OFFCURVE",
"524 -17 CURVE SMOOTH",
"524 312 LINE SMOOTH",
"524 438 OFFCURVE",
"489 531 OFFCURVE",
"368 531 CURVE SMOOTH",
"276 531 OFFCURVE",
"192 483 OFFCURVE",
"151 410 CURVE",
"151 522 LINE",
"71 522 LINE",
"71 0 LINE",
"159 0 LINE",
"159 315 LINE",
"183 394 OFFCURVE",
"261 452 OFFCURVE",
"333 452 CURVE SMOOTH",
"402 452 OFFCURVE",
"436 403 OFFCURVE",
"436 292 CURVE SMOOTH",
"436 -23 LINE SMOOTH",
"436 -72 OFFCURVE",
"395 -108 OFFCURVE",
"352 -108 CURVE SMOOTH",
"328 -108 OFFCURVE",
"302 -102 OFFCURVE",
"283 -85 CURVE",
"242 -144 LINE",
"274 -173 OFFCURVE",
"316 -186 OFFCURVE",
"362 -186 CURVE SMOOTH"
);
}
);
};
layerId = UUID0;
paths = (
{
closed = 1;
nodes = (
"362 -186 LINE SMOOTH",
"447 -186 OFFCURVE",
"524 -116 OFFCURVE",
"524 -17 CURVE SMOOTH",
"524 312 LINE SMOOTH",
"524 438 OFFCURVE",
"489 531 OFFCURVE",
"368 531 CURVE SMOOTH",
"276 531 OFFCURVE",
"192 483 OFFCURVE",
"151 410 CURVE",
"151 522 LINE",
"71 522 LINE",
"71 0 LINE",
"159 0 LINE",
"159 315 LINE",
"183 394 OFFCURVE",
"261 452 OFFCURVE",
"333 452 CURVE SMOOTH",
"402 452 OFFCURVE",
"436 403 OFFCURVE",
"436 292 CURVE SMOOTH",
"436 -23 LINE SMOOTH",
"436 -72 OFFCURVE",
"395 -108 OFFCURVE",
"352 -108 CURVE SMOOTH",
"328 -108 OFFCURVE",
"302 -102 OFFCURVE",
"283 -85 CURVE",
"242 -144 LINE",
"274 -173 OFFCURVE",
"316 -186 OFFCURVE",
"362 -186 CURVE SMOOTH"
);
}
);
width = 590;
}
);
leftKerningGroup = n;
rightKerningGroup = n;
unicode = 014B;
},
{
glyphname = equal;
lastChange = "2016-08-18 22:37:14 +0000";
layers = (
{
background = {
paths = (
{
closed = 1;
nodes = (
"372 179 LINE",
"372 239 LINE",
"67 239 LINE",
"67 179 LINE"
);
},
{
closed = 1;
nodes = (
"372 313 LINE",
"372 373 LINE",
"67 373 LINE",
"67 313 LINE"
);
}
);
};
layerId = UUID0;
paths = (
{
closed = 1;
nodes = (
"372 179 LINE",
"372 239 LINE",
"67 239 LINE",
"67 179 LINE"
);
},
{
closed = 1;
nodes = (
"372 313 LINE",
"372 373 LINE",
"67 373 LINE",
"67 313 LINE"
);
}
);
width = 439;
}
);
unicode = 003D;
},
{
glyphname = eth;
lastChange = "2016-08-18 22:37:14 +0000";
layers = (
{
background = {
paths = (
{
closed = 1;
nodes = (
"566 423 OFFCURVE",
"503 612 OFFCURVE",
"301 730 CURVE",
"177 730 LINE",
"387 614 OFFCURVE",
"455 495 OFFCURVE",
"476 368 CURVE",
"440 431 OFFCURVE",
"366 473 OFFCURVE",
"283 473 CURVE SMOOTH",
"148 473 OFFCURVE",
"39 364 OFFCURVE",
"39 233 CURVE SMOOTH",
"39 97 OFFCURVE",
"156 -10 OFFCURVE",
"297 -10 CURVE SMOOTH",
"442 -10 OFFCURVE",
"566 104 OFFCURVE",
"566 290 CURVE SMOOTH"
);
},
{
closed = 1;
nodes = (
"129 326 OFFCURVE",
"206 401 OFFCURVE",
"304 401 CURVE SMOOTH",
"399 401 OFFCURVE",
"476 331 OFFCURVE",
"476 239 CURVE SMOOTH",
"476 146 OFFCURVE",
"399 66 OFFCURVE",
"300 66 CURVE SMOOTH",
"205 66 OFFCURVE",
"129 140 OFFCURVE",
"129 233 CURVE SMOOTH"
);
},
{
closed = 1;
nodes = (
"478 713 LINE",
"369 647 LINE",
"343 639 LINE",
"226 569 LINE",
"253 532 LINE",
"372 604 LINE",
"400 614 LINE",
"505 676 LINE"
);
}
);
};
layerId = UUID0;
paths = (
{
closed = 1;
nodes = (
"566 290 LINE SMOOTH",
"566 423 OFFCURVE",
"503 612 OFFCURVE",
"301 730 CURVE",
"177 730 LINE",
"387 614 OFFCURVE",
"455 495 OFFCURVE",
"476 368 CURVE",
"440 431 OFFCURVE",
"366 473 OFFCURVE",
"283 473 CURVE SMOOTH",
"148 473 OFFCURVE",
"39 364 OFFCURVE",
"39 233 CURVE SMOOTH",
"39 97 OFFCURVE",
"156 -10 OFFCURVE",
"297 -10 CURVE SMOOTH",
"442 -10 OFFCURVE",
"566 104 OFFCURVE",
"566 290 CURVE SMOOTH"
);
},
{
closed = 1;
nodes = (
"129 233 LINE SMOOTH",
"129 326 OFFCURVE",
"206 401 OFFCURVE",
"304 401 CURVE SMOOTH",
"399 401 OFFCURVE",
"476 331 OFFCURVE",
"476 239 CURVE SMOOTH",
"476 146 OFFCURVE",
"399 66 OFFCURVE",
"300 66 CURVE SMOOTH",
"205 66 OFFCURVE",
"129 140 OFFCURVE",
"129 233 CURVE SMOOTH"
);
},
{
closed = 1;
nodes = (
"478 713 LINE",
"369 647 LINE",
"343 639 LINE",
"226 569 LINE",
"253 532 LINE",
"372 604 LINE",
"400 614 LINE",
"505 676 LINE"
);
}
);
width = 606;
}
);
unicode = 00F0;
},
{
glyphname = exclam;
lastChange = "2016-08-18 22:37:14 +0000";
layers = (
{
background = {
paths = (
{
closed = 1;
nodes = (
"175 240 LINE",
"175 717 LINE",
"87 717 LINE",
"87 240 LINE"
);
},
{
closed = 1;
nodes = (
"175 0 LINE",
"175 124 LINE",
"87 124 LINE",
"87 0 LINE"
);
}
);
};
layerId = UUID0;
paths = (
{
closed = 1;
nodes = (
"175 240 LINE",
"175 717 LINE",
"87 717 LINE",
"87 240 LINE"
);
},
{
closed = 1;
nodes = (
"175 0 LINE",
"175 124 LINE",
"87 124 LINE",
"87 0 LINE"
);
}
);
width = 262;
}
);
unicode = 0021;
},
{
glyphname = exclamdown;
lastChange = "2016-08-18 22:37:14 +0000";
layers = (
{
background = {
paths = (
{
closed = 1;
nodes = (
"86 474 LINE",
"86 -3 LINE",
"174 -3 LINE",
"174 474 LINE"
);
},
{
closed = 1;
nodes = (
"86 714 LINE",
"86 590 LINE",
"174 590 LINE",
"174 714 LINE"
);
}
);
};
layerId = UUID0;
paths = (
{
closed = 1;
nodes = (
"86 474 LINE",
"86 -3 LINE",
"174 -3 LINE",
"174 474 LINE"
);
},
{
closed = 1;
nodes = (
"86 714 LINE",
"86 590 LINE",
"174 590 LINE",
"174 714 LINE"
);
}
);
width = 260;
}
);
unicode = 00A1;
},
{
glyphname = f;
lastChange = "2016-08-18 22:37:14 +0000";
layers = (
{
background = {
paths = (
{
closed = 1;
nodes = (
"187 0 LINE",
"187 453 LINE",
"326 453 LINE",
"326 522 LINE",
"187 522 LINE",
"187 536 LINE SMOOTH",
"187 619 OFFCURVE",
"219 665 OFFCURVE",
"277 665 CURVE SMOOTH",
"303 665 OFFCURVE",
"333 656 OFFCURVE",
"352 643 CURVE",
"374 708 LINE",
"342 728 OFFCURVE",
"300 740 OFFCURVE",
"259 740 CURVE SMOOTH",
"161 740 OFFCURVE",
"99 661 OFFCURVE",
"99 533 CURVE SMOOTH",
"99 522 LINE",
"28 522 LINE",
"28 453 LINE",
"99 453 LINE",
"99 0 LINE"
);
}
);
};
layerId = UUID0;
paths = (
{
closed = 1;
nodes = (
"187 0 LINE",
"187 453 LINE",
"326 453 LINE",
"326 522 LINE",
"187 522 LINE",
"187 536 LINE SMOOTH",
"187 619 OFFCURVE",
"219 665 OFFCURVE",
"277 665 CURVE SMOOTH",
"303 665 OFFCURVE",
"333 656 OFFCURVE",
"352 643 CURVE",
"374 708 LINE",
"342 728 OFFCURVE",
"300 740 OFFCURVE",
"259 740 CURVE SMOOTH",
"161 740 OFFCURVE",
"99 661 OFFCURVE",
"99 533 CURVE SMOOTH",
"99 522 LINE",
"28 522 LINE",
"28 453 LINE",
"99 453 LINE",
"99 0 LINE"
);
}
);
width = 343;
}
);
leftKerningGroup = f;
rightKerningGroup = f;
unicode = 0066;
},
{
glyphname = f_f;
lastChange = "2016-08-18 22:37:14 +0000";
layers = (
{
background = {
paths = (
{
closed = 1;
nodes = (
"569 664 OFFCURVE",
"588 653 OFFCURVE",
"604 643 CURVE",
"626 708 LINE",
"605 717 OFFCURVE",
"574 740 OFFCURVE",
"515 740 CURVE SMOOTH",
"453 740 OFFCURVE",
"410 714 OFFCURVE",
"381 675 CURVE",
"351 689 OFFCURVE",
"311 702 OFFCURVE",
"263 702 CURVE SMOOTH",
"156 702 OFFCURVE",
"101 618 OFFCURVE",
"99 526 CURVE SMOOTH",
"99 522 LINE",
"28 522 LINE",
"28 453 LINE",
"99 453 LINE",
"99 0 LINE",
"187 0 LINE",
"187 453 LINE",
"339 453 LINE",
"339 0 LINE",
"427 0 LINE",
"427 453 LINE",
"584 453 LINE",
"584 522 LINE",
"427 522 LINE",
"427 536 LINE SMOOTH",
"427 598 OFFCURVE",
"457 664 OFFCURVE",
"531 664 CURVE SMOOTH"
);
},
{
closed = 1;
nodes = (
"187 522 LINE",
"187 527 LINE SMOOTH",
"188 580 OFFCURVE",
"212 626 OFFCURVE",
"279 626 CURVE SMOOTH",
"302 626 OFFCURVE",
"334 622 OFFCURVE",
"355 608 CURVE",
"344 587 OFFCURVE",
"339 547 OFFCURVE",
"339 522 CURVE"
);
}
);
};
layerId = UUID0;
paths = (
{
closed = 1;
nodes = (
"531 664 LINE SMOOTH",
"569 664 OFFCURVE",
"588 653 OFFCURVE",
"604 643 CURVE",
"626 708 LINE",
"605 717 OFFCURVE",
"574 740 OFFCURVE",
"515 740 CURVE SMOOTH",
"453 740 OFFCURVE",
"410 714 OFFCURVE",
"381 675 CURVE",
"351 689 OFFCURVE",
"311 702 OFFCURVE",
"263 702 CURVE SMOOTH",
"156 702 OFFCURVE",
"101 618 OFFCURVE",
"99 526 CURVE SMOOTH",
"99 522 LINE",
"28 522 LINE",
"28 453 LINE",
"99 453 LINE",
"99 0 LINE",
"187 0 LINE",
"187 453 LINE",
"339 453 LINE",
"339 0 LINE",
"427 0 LINE",
"427 453 LINE",
"584 453 LINE",
"584 522 LINE",
"427 522 LINE",
"427 536 LINE SMOOTH",
"427 598 OFFCURVE",
"457 664 OFFCURVE",
"531 664 CURVE SMOOTH"
);
},
{
closed = 1;
nodes = (
"339 522 LINE",
"187 522 LINE",
"187 527 LINE SMOOTH",
"188 580 OFFCURVE",
"212 626 OFFCURVE",
"279 626 CURVE SMOOTH",
"302 626 OFFCURVE",
"334 622 OFFCURVE",
"355 608 CURVE",
"344 587 OFFCURVE",
"339 547 OFFCURVE",
"339 522 CURVE"
);
}
);
width = 601;
}
);
leftKerningGroup = f;
rightKerningGroup = f;
unicode = FB00;
},
{
glyphname = f_f_i;
lastChange = "2016-08-18 22:37:14 +0000";
layers = (
{
background = {
paths = (
{
closed = 1;
nodes = (
"99 0 LINE",
"187 0 LINE",
"187 453 LINE",
"339 453 LINE",
"339 0 LINE",
"427 0 LINE",
"427 453 LINE",
"606 453 LINE",
"606 0 LINE",
"694 0 LINE",
"694 522 LINE",
"427 522 LINE",
"427 536 LINE SMOOTH",
"427 598 OFFCURVE",
"459 664 OFFCURVE",
"539 664 CURVE SMOOTH",
"586 664 OFFCURVE",
"633 645 OFFCURVE",
"658 623 CURVE",
"696 688 LINE",
"660 711 OFFCURVE",
"601 740 OFFCURVE",
"531 740 CURVE SMOOTH",
"463 740 OFFCURVE",
"413 714 OFFCURVE",
"381 675 CURVE",
"351 689 OFFCURVE",
"311 702 OFFCURVE",
"263 702 CURVE SMOOTH",
"156 702 OFFCURVE",
"99 611 OFFCURVE",
"99 526 CURVE SMOOTH",
"99 522 LINE",
"28 522 LINE",
"28 453 LINE",
"99 453 LINE"
);
},
{
closed = 1;
nodes = (
"187 522 LINE",
"187 527 LINE SMOOTH",
"187 576 OFFCURVE",
"212 626 OFFCURVE",
"279 626 CURVE SMOOTH",
"302 626 OFFCURVE",
"334 622 OFFCURVE",
"355 608 CURVE",
"344 587 OFFCURVE",
"339 547 OFFCURVE",
"339 522 CURVE"
);
}
);
};
layerId = UUID0;
paths = (
{
closed = 1;
nodes = (
"99 0 LINE",
"187 0 LINE",
"187 453 LINE",
"339 453 LINE",
"339 0 LINE",
"427 0 LINE",
"427 453 LINE",
"606 453 LINE",
"606 0 LINE",
"694 0 LINE",
"694 522 LINE",
"427 522 LINE",
"427 536 LINE SMOOTH",
"427 598 OFFCURVE",
"459 664 OFFCURVE",
"539 664 CURVE SMOOTH",
"586 664 OFFCURVE",
"633 645 OFFCURVE",
"658 623 CURVE",
"696 688 LINE",
"660 711 OFFCURVE",
"601 740 OFFCURVE",
"531 740 CURVE SMOOTH",
"463 740 OFFCURVE",
"413 714 OFFCURVE",
"381 675 CURVE",
"351 689 OFFCURVE",
"311 702 OFFCURVE",
"263 702 CURVE SMOOTH",
"156 702 OFFCURVE",
"99 611 OFFCURVE",
"99 526 CURVE SMOOTH",
"99 522 LINE",
"28 522 LINE",
"28 453 LINE",
"99 453 LINE"
);
},
{
closed = 1;
nodes = (
"187 522 LINE",
"187 527 LINE SMOOTH",
"187 576 OFFCURVE",
"212 626 OFFCURVE",
"279 626 CURVE SMOOTH",
"302 626 OFFCURVE",
"334 622 OFFCURVE",
"355 608 CURVE",
"344 587 OFFCURVE",
"339 547 OFFCURVE",
"339 522 CURVE"
);
}
);
width = 765;
}
);
leftKerningGroup = f;
rightKerningGroup = i;
unicode = FB03;
},
{
glyphname = f_f_l;
lastChange = "2016-08-18 22:37:14 +0000";
layers = (
{
background = {
paths = (
{
closed = 1;
nodes = (
"797 -7 OFFCURVE",
"850 10 OFFCURVE",
"851 12 CURVE",
"837 84 LINE",
"835 84 OFFCURVE",
"802 72 OFFCURVE",
"777 72 CURVE SMOOTH",
"741 72 OFFCURVE",
"724 106 OFFCURVE",
"724 133 CURVE SMOOTH",
"724 572 LINE SMOOTH",
"724 670 OFFCURVE",
"661 740 OFFCURVE",
"534 740 CURVE SMOOTH",
"465 740 OFFCURVE",
"413 717 OFFCURVE",
"381 675 CURVE",
"351 689 OFFCURVE",
"317 702 OFFCURVE",
"268 702 CURVE SMOOTH",
"163 702 OFFCURVE",
"99 617 OFFCURVE",
"99 526 CURVE SMOOTH",
"99 522 LINE",
"28 522 LINE",
"28 453 LINE",
"99 453 LINE",
"99 0 LINE",
"187 0 LINE",
"187 453 LINE",
"342 453 LINE",
"342 0 LINE",
"430 0 LINE",
"430 453 LINE",
"532 453 LINE",
"532 522 LINE",
"430 522 LINE",
"430 526 LINE SMOOTH",
"430 601 OFFCURVE",
"459 664 OFFCURVE",
"535 664 CURVE SMOOTH",
"613 664 OFFCURVE",
"636 604 OFFCURVE",
"636 553 CURVE SMOOTH",
"636 93 LINE SMOOTH",
"636 39 OFFCURVE",
"678 -7 OFFCURVE",
"748 -7 CURVE SMOOTH"
);
},
{
closed = 1;
nodes = (
"187 522 LINE",
"187 529 LINE SMOOTH",
"187 575 OFFCURVE",
"220 626 OFFCURVE",
"285 626 CURVE SMOOTH",
"307 626 OFFCURVE",
"333 623 OFFCURVE",
"354 609 CURVE",
"345 590 OFFCURVE",
"342 550 OFFCURVE",
"342 522 CURVE"
);
}
);
};
layerId = UUID0;
paths = (
{
closed = 1;
nodes = (
"748 -7 LINE SMOOTH",
"797 -7 OFFCURVE",
"850 10 OFFCURVE",
"851 12 CURVE",
"837 84 LINE",
"835 84 OFFCURVE",
"802 72 OFFCURVE",
"777 72 CURVE SMOOTH",
"741 72 OFFCURVE",
"724 106 OFFCURVE",
"724 133 CURVE SMOOTH",
"724 572 LINE SMOOTH",
"724 670 OFFCURVE",
"661 740 OFFCURVE",
"534 740 CURVE SMOOTH",
"465 740 OFFCURVE",
"413 717 OFFCURVE",
"381 675 CURVE",
"351 689 OFFCURVE",
"317 702 OFFCURVE",
"268 702 CURVE SMOOTH",
"163 702 OFFCURVE",
"99 617 OFFCURVE",
"99 526 CURVE SMOOTH",
"99 522 LINE",
"28 522 LINE",
"28 453 LINE",
"99 453 LINE",
"99 0 LINE",
"187 0 LINE",
"187 453 LINE",
"342 453 LINE",
"342 0 LINE",
"430 0 LINE",
"430 453 LINE",
"532 453 LINE",
"532 522 LINE",
"430 522 LINE",
"430 526 LINE SMOOTH",
"430 601 OFFCURVE",
"459 664 OFFCURVE",
"535 664 CURVE SMOOTH",
"613 664 OFFCURVE",
"636 604 OFFCURVE",
"636 553 CURVE SMOOTH",
"636 93 LINE SMOOTH",
"636 39 OFFCURVE",
"678 -7 OFFCURVE",
"748 -7 CURVE SMOOTH"
);
},
{
closed = 1;
nodes = (
"187 522 LINE",
"187 529 LINE SMOOTH",
"187 575 OFFCURVE",
"220 626 OFFCURVE",
"285 626 CURVE SMOOTH",
"307 626 OFFCURVE",
"333 623 OFFCURVE",
"354 609 CURVE",
"345 590 OFFCURVE",
"342 550 OFFCURVE",
"342 522 CURVE"
);
}
);
width = 849;
}
);
leftKerningGroup = f;
rightKerningGroup = l;
unicode = FB04;
},
{
glyphname = f_i;
lastChange = "2016-08-18 22:37:14 +0000";
layers = (
{
background = {
paths = (
{
closed = 1;
nodes = (
"99 0 LINE",
"187 0 LINE",
"187 453 LINE",
"366 453 LINE",
"366 0 LINE",
"454 0 LINE",
"454 522 LINE",
"187 522 LINE",
"187 536 LINE SMOOTH",
"187 598 OFFCURVE",
"220 664 OFFCURVE",
"297 664 CURVE SMOOTH",
"346 664 OFFCURVE",
"392 646 OFFCURVE",
"418 623 CURVE",
"456 688 LINE",
"423 711 OFFCURVE",
"366 740 OFFCURVE",
"292 740 CURVE SMOOTH",
"162 740 OFFCURVE",
"99 636 OFFCURVE",
"99 533 CURVE SMOOTH",
"99 522 LINE",
"28 522 LINE",
"28 453 LINE",
"99 453 LINE"
);
}
);
};
layerId = UUID0;
paths = (
{
closed = 1;
nodes = (
"99 0 LINE",
"187 0 LINE",
"187 453 LINE",
"366 453 LINE",
"366 0 LINE",
"454 0 LINE",
"454 522 LINE",
"187 522 LINE",
"187 536 LINE SMOOTH",
"187 598 OFFCURVE",
"220 664 OFFCURVE",
"297 664 CURVE SMOOTH",
"346 664 OFFCURVE",
"392 646 OFFCURVE",
"418 623 CURVE",
"456 688 LINE",
"423 711 OFFCURVE",
"366 740 OFFCURVE",
"292 740 CURVE SMOOTH",
"162 740 OFFCURVE",
"99 636 OFFCURVE",
"99 533 CURVE SMOOTH",
"99 522 LINE",
"28 522 LINE",
"28 453 LINE",
"99 453 LINE"
);
}
);
width = 525;
}
);
leftKerningGroup = f;
rightKerningGroup = i;
unicode = FB01;
},
{
glyphname = f_l;
lastChange = "2016-08-18 22:37:14 +0000";
layers = (
{
background = {
paths = (
{
closed = 1;
nodes = (
"594 84 LINE",
"593 84 OFFCURVE",
"560 72 OFFCURVE",
"535 72 CURVE SMOOTH",
"499 72 OFFCURVE",
"482 106 OFFCURVE",
"482 133 CURVE SMOOTH",
"482 572 LINE SMOOTH",
"482 670 OFFCURVE",
"419 740 OFFCURVE",
"291 740 CURVE SMOOTH",
"165 740 OFFCURVE",
"99 661 OFFCURVE",
"99 540 CURVE SMOOTH",
"99 522 LINE",
"28 522 LINE",
"28 453 LINE",
"99 453 LINE",
"99 0 LINE",
"187 0 LINE",
"187 453 LINE",
"290 453 LINE",
"290 522 LINE",
"187 522 LINE",
"187 531 LINE SMOOTH",
"189 609 OFFCURVE",
"219 664 OFFCURVE",
"292 664 CURVE SMOOTH",
"371 664 OFFCURVE",
"394 604 OFFCURVE",
"394 553 CURVE SMOOTH",
"394 93 LINE SMOOTH",
"394 39 OFFCURVE",
"435 -7 OFFCURVE",
"505 -7 CURVE SMOOTH",
"555 -7 OFFCURVE",
"607 10 OFFCURVE",
"609 12 CURVE"
);
}
);
};
layerId = UUID0;
paths = (
{
closed = 1;
nodes = (
"594 84 LINE",
"593 84 OFFCURVE",
"560 72 OFFCURVE",
"535 72 CURVE SMOOTH",
"499 72 OFFCURVE",
"482 106 OFFCURVE",
"482 133 CURVE SMOOTH",
"482 572 LINE SMOOTH",
"482 670 OFFCURVE",
"419 740 OFFCURVE",
"291 740 CURVE SMOOTH",
"165 740 OFFCURVE",
"99 661 OFFCURVE",
"99 540 CURVE SMOOTH",
"99 522 LINE",
"28 522 LINE",
"28 453 LINE",
"99 453 LINE",
"99 0 LINE",
"187 0 LINE",
"187 453 LINE",
"290 453 LINE",
"290 522 LINE",
"187 522 LINE",
"187 531 LINE SMOOTH",
"189 609 OFFCURVE",
"219 664 OFFCURVE",
"292 664 CURVE SMOOTH",
"371 664 OFFCURVE",
"394 604 OFFCURVE",
"394 553 CURVE SMOOTH",
"394 93 LINE SMOOTH",
"394 39 OFFCURVE",
"435 -7 OFFCURVE",
"505 -7 CURVE SMOOTH",
"555 -7 OFFCURVE",
"607 10 OFFCURVE",
"609 12 CURVE"
);
}
);
width = 606;
}
);
leftKerningGroup = f;
rightKerningGroup = l;
unicode = FB02;
},
{
glyphname = five;
lastChange = "2016-08-18 22:37:14 +0000";
layers = (
{
background = {
paths = (
{
closed = 1;
nodes = (
"226 314 OFFCURVE",
"180 295 OFFCURVE",
"151 264 CURVE",
"194 490 LINE",
"474 490 LINE",
"474 571 LINE",
"129 571 LINE",
"129 571 OFFCURVE",
"55 193 OFFCURVE",
"49 164 CURVE",
"128 164 LINE",
"160 211 OFFCURVE",
"213 237 OFFCURVE",
"270 237 CURVE SMOOTH",
"356 237 OFFCURVE",
"423 175 OFFCURVE",
"423 86 CURVE SMOOTH",
"423 -7 OFFCURVE",
"354 -71 OFFCURVE",
"263 -71 CURVE SMOOTH",
"191 -71 OFFCURVE",
"125 -30 OFFCURVE",
"88 31 CURVE",
"33 -17 LINE",
"74 -97 OFFCURVE",
"161 -149 OFFCURVE",
"262 -149 CURVE SMOOTH",
"402 -149 OFFCURVE",
"513 -54 OFFCURVE",
"513 87 CURVE SMOOTH",
"513 221 OFFCURVE",
"412 314 OFFCURVE",
"281 314 CURVE SMOOTH"
);
}
);
};
layerId = UUID0;
paths = (
{
closed = 1;
nodes = (
"281 314 LINE SMOOTH",
"226 314 OFFCURVE",
"180 295 OFFCURVE",
"151 264 CURVE",
"194 490 LINE",
"474 490 LINE",
"474 571 LINE",
"129 571 LINE",
"129 571 OFFCURVE",
"55 193 OFFCURVE",
"49 164 CURVE",
"128 164 LINE",
"160 211 OFFCURVE",
"213 237 OFFCURVE",
"270 237 CURVE SMOOTH",
"356 237 OFFCURVE",
"423 175 OFFCURVE",
"423 86 CURVE SMOOTH",
"423 -7 OFFCURVE",
"354 -71 OFFCURVE",
"263 -71 CURVE SMOOTH",
"191 -71 OFFCURVE",
"125 -30 OFFCURVE",
"88 31 CURVE",
"33 -17 LINE",
"74 -97 OFFCURVE",
"161 -149 OFFCURVE",
"262 -149 CURVE SMOOTH",
"402 -149 OFFCURVE",
"513 -54 OFFCURVE",
"513 87 CURVE SMOOTH",
"513 221 OFFCURVE",
"412 314 OFFCURVE",
"281 314 CURVE SMOOTH"
);
}
);
width = 548;
}
);
unicode = 0035;
},
{
glyphname = five.lnum;
lastChange = "2016-08-18 22:37:14 +0000";
layers = (
{
background = {
paths = (
{
closed = 1;
nodes = (
"231 453 OFFCURVE",
"185 435 OFFCURVE",
"156 403 CURVE",
"199 629 LINE",
"479 629 LINE",
"479 710 LINE",
"134 710 LINE",
"134 710 OFFCURVE",
"60 333 OFFCURVE",
"54 304 CURVE",
"134 304 LINE",
"165 350 OFFCURVE",
"219 377 OFFCURVE",
"275 377 CURVE SMOOTH",
"361 377 OFFCURVE",
"428 314 OFFCURVE",
"428 225 CURVE SMOOTH",
"428 133 OFFCURVE",
"359 69 OFFCURVE",
"268 69 CURVE SMOOTH",
"196 69 OFFCURVE",
"130 109 OFFCURVE",
"93 171 CURVE",
"38 123 LINE",
"80 42 OFFCURVE",
"166 -10 OFFCURVE",
"267 -10 CURVE SMOOTH",
"408 -10 OFFCURVE",
"518 86 OFFCURVE",
"518 227 CURVE SMOOTH",
"518 360 OFFCURVE",
"417 453 OFFCURVE",
"286 453 CURVE SMOOTH"
);
}
);
};
layerId = UUID0;
paths = (
{
closed = 1;
nodes = (
"286 453 LINE SMOOTH",
"231 453 OFFCURVE",
"185 435 OFFCURVE",
"156 403 CURVE",
"199 629 LINE",
"479 629 LINE",
"479 710 LINE",
"134 710 LINE",
"134 710 OFFCURVE",
"60 333 OFFCURVE",
"54 304 CURVE",
"134 304 LINE",
"165 350 OFFCURVE",
"219 377 OFFCURVE",
"275 377 CURVE SMOOTH",
"361 377 OFFCURVE",
"428 314 OFFCURVE",
"428 225 CURVE SMOOTH",
"428 133 OFFCURVE",
"359 69 OFFCURVE",
"268 69 CURVE SMOOTH",
"196 69 OFFCURVE",
"130 109 OFFCURVE",
"93 171 CURVE",
"38 123 LINE",
"80 42 OFFCURVE",
"166 -10 OFFCURVE",
"267 -10 CURVE SMOOTH",
"408 -10 OFFCURVE",
"518 86 OFFCURVE",
"518 227 CURVE SMOOTH",
"518 360 OFFCURVE",
"417 453 OFFCURVE",
"286 453 CURVE SMOOTH"
);
}
);
width = 558;
}
);
},
{
glyphname = fivesuperior;
lastChange = "2016-08-18 22:37:14 +0000";
layers = (
{
background = {
paths = (
{
closed = 1;
nodes = (
"156 664 OFFCURVE",
"125 654 OFFCURVE",
"104 638 CURVE",
"134 755 LINE",
"322 755 LINE",
"322 810 LINE",
"93 810 LINE",
"86 768 OFFCURVE",
"50 630 OFFCURVE",
"39 574 CURVE",
"89 574 LINE",
"109 602 OFFCURVE",
"149 621 OFFCURVE",
"188 621 CURVE SMOOTH",
"238 621 OFFCURVE",
"292 592 OFFCURVE",
"292 536 CURVE SMOOTH",
"292 484 OFFCURVE",
"245 452 OFFCURVE",
"184 452 CURVE SMOOTH",
"132 452 OFFCURVE",
"89 473 OFFCURVE",
"64 507 CURVE",
"29 473 LINE",
"56 428 OFFCURVE",
"114 399 OFFCURVE",
"181 399 CURVE SMOOTH",
"275 399 OFFCURVE",
"349 454 OFFCURVE",
"349 535 CURVE SMOOTH",
"349 611 OFFCURVE",
"281 664 OFFCURVE",
"193 664 CURVE SMOOTH"
);
}
);
};
layerId = UUID0;
paths = (
{
closed = 1;
nodes = (
"193 664 LINE SMOOTH",
"156 664 OFFCURVE",
"125 654 OFFCURVE",
"104 638 CURVE",
"134 755 LINE",
"322 755 LINE",
"322 810 LINE",
"93 810 LINE",
"86 768 OFFCURVE",
"50 630 OFFCURVE",
"39 574 CURVE",
"89 574 LINE",
"109 602 OFFCURVE",
"149 621 OFFCURVE",
"188 621 CURVE SMOOTH",
"238 621 OFFCURVE",
"292 592 OFFCURVE",
"292 536 CURVE SMOOTH",
"292 484 OFFCURVE",
"245 452 OFFCURVE",
"184 452 CURVE SMOOTH",
"132 452 OFFCURVE",
"89 473 OFFCURVE",
"64 507 CURVE",
"29 473 LINE",
"56 428 OFFCURVE",
"114 399 OFFCURVE",
"181 399 CURVE SMOOTH",
"275 399 OFFCURVE",
"349 454 OFFCURVE",
"349 535 CURVE SMOOTH",
"349 611 OFFCURVE",
"281 664 OFFCURVE",
"193 664 CURVE SMOOTH"
);
}
);
width = 380;
}
);
unicode = 2075;
},
{
glyphname = fraction;
lastChange = "2016-08-18 22:37:14 +0000";
layers = (
{
background = {
paths = (
{
closed = 1;
nodes = (
"-170 -5 LINE",
"102 343 LINE",
"379 678 LINE",
"336 715 LINE",
"68 370 LINE",
"-212 33 LINE"
);
}
);
};
layerId = UUID0;
paths = (
{
closed = 1;
nodes = (
"-170 -5 LINE",
"102 343 LINE",
"379 678 LINE",
"336 715 LINE",
"68 370 LINE",
"-212 33 LINE"
);
}
);
width = 168;
}
);
unicode = 2044;
},
{
glyphname = fiveinferior;
lastChange = "2016-08-18 22:37:14 +0000";
layers = (
{
background = {
paths = (
{
closed = 1;
nodes = (
"156 180 OFFCURVE",
"125 170 OFFCURVE",
"104 154 CURVE",
"134 271 LINE",
"322 271 LINE",
"322 326 LINE",
"93 326 LINE",
"86 284 OFFCURVE",
"50 146 OFFCURVE",
"39 90 CURVE",
"89 90 LINE",
"109 118 OFFCURVE",
"149 137 OFFCURVE",
"188 137 CURVE SMOOTH",
"238 137 OFFCURVE",
"292 108 OFFCURVE",
"292 52 CURVE SMOOTH",
"292 0 OFFCURVE",
"245 -33 OFFCURVE",
"184 -33 CURVE SMOOTH",
"132 -33 OFFCURVE",
"89 -11 OFFCURVE",
"64 22 CURVE",
"29 -12 LINE",
"56 -56 OFFCURVE",
"114 -85 OFFCURVE",
"181 -85 CURVE SMOOTH",
"275 -85 OFFCURVE",
"349 -30 OFFCURVE",
"349 50 CURVE SMOOTH",
"349 127 OFFCURVE",
"281 180 OFFCURVE",
"193 180 CURVE SMOOTH"
);
}
);
};
layerId = UUID0;
paths = (
{
closed = 1;
nodes = (
"193 180 LINE SMOOTH",
"156 180 OFFCURVE",
"125 170 OFFCURVE",
"104 154 CURVE",
"134 271 LINE",
"322 271 LINE",
"322 326 LINE",
"93 326 LINE",
"86 284 OFFCURVE",
"50 146 OFFCURVE",
"39 90 CURVE",
"89 90 LINE",
"109 118 OFFCURVE",
"149 137 OFFCURVE",
"188 137 CURVE SMOOTH",
"238 137 OFFCURVE",
"292 108 OFFCURVE",
"292 52 CURVE SMOOTH",
"292 0 OFFCURVE",
"245 -33 OFFCURVE",
"184 -33 CURVE SMOOTH",
"132 -33 OFFCURVE",
"89 -11 OFFCURVE",
"64 22 CURVE",
"29 -12 LINE",
"56 -56 OFFCURVE",
"114 -85 OFFCURVE",
"181 -85 CURVE SMOOTH",
"275 -85 OFFCURVE",
"349 -30 OFFCURVE",
"349 50 CURVE SMOOTH",
"349 127 OFFCURVE",
"281 180 OFFCURVE",
"193 180 CURVE SMOOTH"
);
}
);
width = 380;
}
);
unicode = 2085;
},
{
glyphname = florin;
lastChange = "2016-08-18 22:37:14 +0000";
layers = (
{
background = {
paths = (
{
closed = 1;
nodes = (
"234 -186 OFFCURVE",
"312 -118 OFFCURVE",
"312 -21 CURVE SMOOTH",
"312 392 LINE",
"451 392 LINE",
"451 461 LINE",
"312 461 LINE",
"312 536 LINE SMOOTH",
"312 619 OFFCURVE",
"343 665 OFFCURVE",
"401 665 CURVE SMOOTH",
"428 665 OFFCURVE",
"458 656 OFFCURVE",
"477 643 CURVE",
"499 708 LINE",
"467 728 OFFCURVE",
"424 740 OFFCURVE",
"384 740 CURVE SMOOTH",
"286 740 OFFCURVE",
"224 661 OFFCURVE",
"224 533 CURVE SMOOTH",
"224 461 LINE",
"153 461 LINE",
"153 392 LINE",
"224 392 LINE",
"224 -23 LINE SMOOTH",
"224 -72 OFFCURVE",
"183 -108 OFFCURVE",
"140 -108 CURVE SMOOTH",
"116 -108 OFFCURVE",
"90 -102 OFFCURVE",
"71 -85 CURVE",
"30 -144 LINE",
"62 -173 OFFCURVE",
"105 -186 OFFCURVE",
"150 -186 CURVE SMOOTH"
);
}
);
};
layerId = UUID0;
paths = (
{
closed = 1;
nodes = (
"150 -186 LINE SMOOTH",
"234 -186 OFFCURVE",
"312 -118 OFFCURVE",
"312 -21 CURVE SMOOTH",
"312 392 LINE",
"451 392 LINE",
"451 461 LINE",
"312 461 LINE",
"312 536 LINE SMOOTH",
"312 619 OFFCURVE",
"343 665 OFFCURVE",
"401 665 CURVE SMOOTH",
"428 665 OFFCURVE",
"458 656 OFFCURVE",
"477 643 CURVE",
"499 708 LINE",
"467 728 OFFCURVE",
"424 740 OFFCURVE",
"384 740 CURVE SMOOTH",
"286 740 OFFCURVE",
"224 661 OFFCURVE",
"224 533 CURVE SMOOTH",
"224 461 LINE",
"153 461 LINE",
"153 392 LINE",
"224 392 LINE",
"224 -23 LINE SMOOTH",
"224 -72 OFFCURVE",
"183 -108 OFFCURVE",
"140 -108 CURVE SMOOTH",
"116 -108 OFFCURVE",
"90 -102 OFFCURVE",
"71 -85 CURVE",
"30 -144 LINE",
"62 -173 OFFCURVE",
"105 -186 OFFCURVE",
"150 -186 CURVE SMOOTH"
);
}
);
width = 534;
}
);
unicode = 0192;
},
{
glyphname = four;
lastChange = "2016-08-18 22:37:14 +0000";
layers = (
{
background = {
paths = (
{
closed = 1;
nodes = (
"433 -127 LINE",
"433 42 LINE",
"521 42 LINE",
"521 122 LINE",
"433 122 LINE",
"433 571 LINE",
"373 571 LINE",
"24 120 LINE",
"24 42 LINE",
"345 42 LINE",
"345 -127 LINE"
);
},
{
closed = 1;
nodes = (
"354 435 LINE",
"354 122 LINE",
"115 122 LINE"
);
}
);
};
layerId = UUID0;
paths = (
{
closed = 1;
nodes = (
"433 -127 LINE",
"433 42 LINE",
"521 42 LINE",
"521 122 LINE",
"433 122 LINE",
"433 571 LINE",
"373 571 LINE",
"24 120 LINE",
"24 42 LINE",
"345 42 LINE",
"345 -127 LINE"
);
},
{
closed = 1;
nodes = (
"354 435 LINE",
"354 122 LINE",
"115 122 LINE"
);
}
);
width = 558;
}
);
unicode = 0034;
},
{
glyphname = four.lnum;
lastChange = "2016-08-18 22:37:14 +0000";
layers = (
{
background = {
paths = (
{
closed = 1;
nodes = (
"449 0 LINE",
"449 181 LINE",
"537 181 LINE",
"537 261 LINE",
"449 261 LINE",
"449 710 LINE",
"388 710 LINE",
"27 260 LINE",
"27 181 LINE",
"361 181 LINE",
"361 0 LINE"
);
},
{
closed = 1;
nodes = (
"370 575 LINE",
"370 261 LINE",
"119 261 LINE"
);
}
);
};
layerId = UUID0;
paths = (
{
closed = 1;
nodes = (
"449 0 LINE",
"449 181 LINE",
"537 181 LINE",
"537 261 LINE",
"449 261 LINE",
"449 710 LINE",
"388 710 LINE",
"27 260 LINE",
"27 181 LINE",
"361 181 LINE",
"361 0 LINE"
);
},
{
closed = 1;
nodes = (
"370 575 LINE",
"370 261 LINE",
"119 261 LINE"
);
}
);
width = 577;
}
);
},
{
glyphname = fourinferior;
lastChange = "2016-08-18 22:37:14 +0000";
layers = (
{
background = {
paths = (
{
closed = 1;
nodes = (
"304 -80 LINE",
"304 20 LINE",
"363 20 LINE",
"363 74 LINE",
"304 74 LINE",
"304 326 LINE",
"266 326 LINE",
"23 73 LINE",
"23 20 LINE",
"249 20 LINE",
"249 -80 LINE"
);
},
{
closed = 1;
nodes = (
"251 254 LINE",
"251 74 LINE",
"80 74 LINE"
);
}
);
};
layerId = UUID0;
paths = (
{
closed = 1;
nodes = (
"304 -80 LINE",
"304 20 LINE",
"363 20 LINE",
"363 74 LINE",
"304 74 LINE",
"304 326 LINE",
"266 326 LINE",
"23 73 LINE",
"23 20 LINE",
"249 20 LINE",
"249 -80 LINE"
);
},
{
closed = 1;
nodes = (
"251 254 LINE",
"251 74 LINE",
"80 74 LINE"
);
}
);
width = 391;
}
);
unicode = 2084;
},
{
glyphname = foursuperior;
lastChange = "2016-08-18 22:37:14 +0000";
layers = (
{
background = {
paths = (
{
closed = 1;
nodes = (
"304 405 LINE",
"304 504 LINE",
"363 504 LINE",
"363 558 LINE",
"304 558 LINE",
"304 810 LINE",
"266 810 LINE",
"23 557 LINE",
"23 504 LINE",
"249 504 LINE",
"249 405 LINE"
);
},
{
closed = 1;
nodes = (
"251 738 LINE",
"251 558 LINE",
"80 558 LINE"
);
}
);
};
layerId = UUID0;
paths = (
{
closed = 1;
nodes = (
"304 405 LINE",
"304 504 LINE",
"363 504 LINE",
"363 558 LINE",
"304 558 LINE",
"304 810 LINE",
"266 810 LINE",
"23 557 LINE",
"23 504 LINE",
"249 504 LINE",
"249 405 LINE"
);
},
{
closed = 1;
nodes = (
"251 738 LINE",
"251 558 LINE",
"80 558 LINE"
);
}
);
width = 392;
}
);
unicode = 2074;
},
{
glyphname = g;
lastChange = "2016-08-18 22:37:14 +0000";
layers = (
{
anchors = (
{
name = top;
position = "{331, 522}";
}
);
background = {
paths = (
{
closed = 1;
nodes = (
"353 -6 OFFCURVE",
"426 34 OFFCURVE",
"465 98 CURVE",
"465 6 LINE SMOOTH",
"465 -103 OFFCURVE",
"383 -155 OFFCURVE",
"287 -155 CURVE SMOOTH",
"212 -155 OFFCURVE",
"142 -124 OFFCURVE",
"101 -63 CURVE",
"50 -108 LINE",
"99 -179 OFFCURVE",
"169 -223 OFFCURVE",
"287 -223 CURVE SMOOTH",
"435 -223 OFFCURVE",
"553 -142 OFFCURVE",
"553 6 CURVE SMOOTH",
"553 522 LINE",
"475 522 LINE",
"475 418 LINE",
"431 483 OFFCURVE",
"367 531 OFFCURVE",
"280 531 CURVE SMOOTH",
"137 531 OFFCURVE",
"38 407 OFFCURVE",
"38 260 CURVE SMOOTH",
"38 121 OFFCURVE",
"137 -6 OFFCURVE",
"279 -6 CURVE SMOOTH"
);
},
{
closed = 1;
nodes = (
"206 66 OFFCURVE",
"127 154 OFFCURVE",
"127 258 CURVE SMOOTH",
"127 355 OFFCURVE",
"192 455 OFFCURVE",
"298 455 CURVE SMOOTH",
"367 455 OFFCURVE",
"437 404 OFFCURVE",
"465 333 CURVE",
"465 183 LINE",
"451 124 OFFCURVE",
"380 66 OFFCURVE",
"306 66 CURVE SMOOTH"
);
}
);
};
layerId = UUID0;
paths = (
{
closed = 1;
nodes = (
"279 -6 LINE SMOOTH",
"353 -6 OFFCURVE",
"426 34 OFFCURVE",
"465 98 CURVE",
"465 6 LINE SMOOTH",
"465 -103 OFFCURVE",
"383 -155 OFFCURVE",
"287 -155 CURVE SMOOTH",
"212 -155 OFFCURVE",
"142 -124 OFFCURVE",
"101 -63 CURVE",
"50 -108 LINE",
"99 -179 OFFCURVE",
"169 -223 OFFCURVE",
"287 -223 CURVE SMOOTH",
"435 -223 OFFCURVE",
"553 -142 OFFCURVE",
"553 6 CURVE SMOOTH",
"553 522 LINE",
"475 522 LINE",
"475 418 LINE",
"431 483 OFFCURVE",
"367 531 OFFCURVE",
"280 531 CURVE SMOOTH",
"137 531 OFFCURVE",
"38 407 OFFCURVE",
"38 260 CURVE SMOOTH",
"38 121 OFFCURVE",
"137 -6 OFFCURVE",
"279 -6 CURVE SMOOTH"
);
},
{
closed = 1;
nodes = (
"306 66 LINE SMOOTH",
"206 66 OFFCURVE",
"127 154 OFFCURVE",
"127 258 CURVE SMOOTH",
"127 355 OFFCURVE",
"192 455 OFFCURVE",
"298 455 CURVE SMOOTH",
"367 455 OFFCURVE",
"437 404 OFFCURVE",
"465 333 CURVE",
"465 183 LINE",
"451 124 OFFCURVE",
"380 66 OFFCURVE",
"306 66 CURVE SMOOTH"
);
}
);
width = 624;
}
);
leftKerningGroup = d;
rightKerningGroup = a.alt;
unicode = 0067;
},
{
glyphname = germandbls;
lastChange = "2016-08-18 22:37:14 +0000";
layers = (
{
background = {
paths = (
{
closed = 1;
nodes = (
"241 -6 LINE",
"402 -1 OFFCURVE",
"518 71 OFFCURVE",
"518 208 CURVE SMOOTH",
"518 303 OFFCURVE",
"462 382 OFFCURVE",
"367 402 CURVE",
"422 417 OFFCURVE",
"467 482 OFFCURVE",
"467 553 CURVE SMOOTH",
"467 649 OFFCURVE",
"385 714 OFFCURVE",
"278 714 CURVE SMOOTH",
"158 714 OFFCURVE",
"71 633 OFFCURVE",
"71 517 CURVE SMOOTH",
"71 0 LINE",
"155 0 LINE",
"155 503 LINE SMOOTH",
"155 574 OFFCURVE",
"192 638 OFFCURVE",
"275 638 CURVE SMOOTH",
"332 638 OFFCURVE",
"383 607 OFFCURVE",
"383 540 CURVE SMOOTH",
"383 478 OFFCURVE",
"339 437 OFFCURVE",
"275 437 CURVE SMOOTH",
"257 437 LINE",
"257 357 LINE",
"276 357 LINE SMOOTH",
"366 357 OFFCURVE",
"427 301 OFFCURVE",
"427 215 CURVE SMOOTH",
"427 118 OFFCURVE",
"350 77 OFFCURVE",
"241 75 CURVE"
);
}
);
};
layerId = UUID0;
paths = (
{
closed = 1;
nodes = (
"241 -6 LINE",
"402 -1 OFFCURVE",
"518 71 OFFCURVE",
"518 208 CURVE SMOOTH",
"518 303 OFFCURVE",
"462 382 OFFCURVE",
"367 402 CURVE",
"422 417 OFFCURVE",
"467 482 OFFCURVE",
"467 553 CURVE SMOOTH",
"467 649 OFFCURVE",
"385 714 OFFCURVE",
"278 714 CURVE SMOOTH",
"158 714 OFFCURVE",
"71 633 OFFCURVE",
"71 517 CURVE SMOOTH",
"71 0 LINE",
"155 0 LINE",
"155 503 LINE SMOOTH",
"155 574 OFFCURVE",
"192 638 OFFCURVE",
"275 638 CURVE SMOOTH",
"332 638 OFFCURVE",
"383 607 OFFCURVE",
"383 540 CURVE SMOOTH",
"383 478 OFFCURVE",
"339 437 OFFCURVE",
"275 437 CURVE SMOOTH",
"257 437 LINE",
"257 357 LINE",
"276 357 LINE SMOOTH",
"366 357 OFFCURVE",
"427 301 OFFCURVE",
"427 215 CURVE SMOOTH",
"427 118 OFFCURVE",
"350 77 OFFCURVE",
"241 75 CURVE"
);
}
);
width = 553;
}
);
leftKerningGroup = h;
unicode = 00DF;
},
{
glyphname = greater;
lastChange = "2016-08-18 22:37:14 +0000";
layers = (
{
background = {
paths = (
{
closed = 1;
nodes = (
"477 280 LINE",
"57 533 LINE",
"57 439 LINE",
"349 259 LINE",
"57 82 LINE",
"57 -16 LINE",
"477 234 LINE"
);
}
);
};
layerId = UUID0;
paths = (
{
closed = 1;
nodes = (
"477 280 LINE",
"57 533 LINE",
"57 439 LINE",
"349 259 LINE",
"57 82 LINE",
"57 -16 LINE",
"477 234 LINE"
);
}
);
width = 510;
}
);
unicode = 003E;
},
{
glyphname = guillemotleft;
lastChange = "2016-08-18 22:37:14 +0000";
layers = (
{
background = {
paths = (
{
closed = 1;
nodes = (
"40 234 LINE",
"293 60 LINE",
"293 134 LINE",
"111 259 LINE",
"293 387 LINE",
"293 461 LINE",
"40 280 LINE"
);
},
{
closed = 1;
nodes = (
"282 234 LINE",
"535 60 LINE",
"535 134 LINE",
"353 259 LINE",
"535 387 LINE",
"535 461 LINE",
"282 280 LINE"
);
}
);
};
layerId = UUID0;
paths = (
{
closed = 1;
nodes = (
"40 234 LINE",
"293 60 LINE",
"293 134 LINE",
"111 259 LINE",
"293 387 LINE",
"293 461 LINE",
"40 280 LINE"
);
},
{
closed = 1;
nodes = (
"282 234 LINE",
"535 60 LINE",
"535 134 LINE",
"353 259 LINE",
"535 387 LINE",
"535 461 LINE",
"282 280 LINE"
);
}
);
width = 596;
}
);
leftKerningGroup = guilsinglleft;
rightKerningGroup = guilsinglleft;
unicode = 00AB;
},
{
glyphname = guillemotright;
lastChange = "2016-08-18 22:37:14 +0000";
layers = (
{
background = {
paths = (
{
closed = 1;
nodes = (
"556 280 LINE",
"303 461 LINE",
"303 387 LINE",
"485 259 LINE",
"303 134 LINE",
"303 60 LINE",
"556 234 LINE"
);
},
{
closed = 1;
nodes = (
"314 280 LINE",
"61 461 LINE",
"61 387 LINE",
"243 259 LINE",
"61 134 LINE",
"61 60 LINE",
"314 234 LINE"
);
}
);
};
layerId = UUID0;
paths = (
{
closed = 1;
nodes = (
"556 280 LINE",
"303 461 LINE",
"303 387 LINE",
"485 259 LINE",
"303 134 LINE",
"303 60 LINE",
"556 234 LINE"
);
},
{
closed = 1;
nodes = (
"314 280 LINE",
"61 461 LINE",
"61 387 LINE",
"243 259 LINE",
"61 134 LINE",
"61 60 LINE",
"314 234 LINE"
);
}
);
width = 596;
}
);
leftKerningGroup = guilsinglright;
rightKerningGroup = guilsinglright;
unicode = 00BB;
},
{
glyphname = guilsinglleft;
lastChange = "2016-08-18 22:37:14 +0000";
layers = (
{
background = {
paths = (
{
closed = 1;
nodes = (
"40 234 LINE",
"293 60 LINE",
"293 134 LINE",
"111 259 LINE",
"293 387 LINE",
"293 461 LINE",
"40 280 LINE"
);
}
);
};
layerId = UUID0;
paths = (
{
closed = 1;
nodes = (
"40 234 LINE",
"293 60 LINE",
"293 134 LINE",
"111 259 LINE",
"293 387 LINE",
"293 461 LINE",
"40 280 LINE"
);
}
);
width = 354;
}
);
leftKerningGroup = guilsinglleft;
rightKerningGroup = guilsinglleft;
unicode = 2039;
},
{
glyphname = guilsinglright;
lastChange = "2016-08-18 22:37:14 +0000";
layers = (
{
background = {
paths = (
{
closed = 1;
nodes = (
"314 280 LINE",
"61 461 LINE",
"61 387 LINE",
"243 259 LINE",
"61 134 LINE",
"61 60 LINE",
"314 234 LINE"
);
}
);
};
layerId = UUID0;
paths = (
{
closed = 1;
nodes = (
"314 280 LINE",
"61 461 LINE",
"61 387 LINE",
"243 259 LINE",
"61 134 LINE",
"61 60 LINE",
"314 234 LINE"
);
}
);
width = 354;
}
);
leftKerningGroup = guilsinglright;
rightKerningGroup = guilsinglright;
unicode = 203A;
},
{
glyphname = h;
lastChange = "2016-08-18 22:37:14 +0000";
layers = (
{
anchors = (
{
name = top;
position = "{335, 521}";
}
);
background = {
paths = (
{
closed = 1;
nodes = (
"524 312 LINE",
"524 436 OFFCURVE",
"483 531 OFFCURVE",
"359 531 CURVE SMOOTH",
"276 531 OFFCURVE",
"200 485 OFFCURVE",
"159 410 CURVE",
"159 730 LINE",
"71 730 LINE",
"71 0 LINE",
"159 0 LINE",
"159 315 LINE",
"182 394 OFFCURVE",
"257 452 OFFCURVE",
"326 452 CURVE SMOOTH",
"397 452 OFFCURVE",
"436 399 OFFCURVE",
"436 292 CURVE SMOOTH",
"436 0 LINE",
"524 0 LINE"
);
}
);
};
layerId = UUID0;
paths = (
{
closed = 1;
nodes = (
"524 312 LINE",
"524 436 OFFCURVE",
"483 531 OFFCURVE",
"359 531 CURVE SMOOTH",
"276 531 OFFCURVE",
"200 485 OFFCURVE",
"159 410 CURVE",
"159 730 LINE",
"71 730 LINE",
"71 0 LINE",
"159 0 LINE",
"159 315 LINE",
"182 394 OFFCURVE",
"257 452 OFFCURVE",
"326 452 CURVE SMOOTH",
"397 452 OFFCURVE",
"436 399 OFFCURVE",
"436 292 CURVE SMOOTH",
"436 0 LINE",
"524 0 LINE"
);
}
);
width = 590;
}
);
leftKerningGroup = h;
rightKerningGroup = h;
unicode = 0068;
},
{
glyphname = hbar;
lastChange = "2016-08-18 22:37:14 +0000";
layers = (
{
background = {
paths = (
{
closed = 1;
nodes = (
"281 611 LINE",
"281 667 LINE",
"15 667 LINE",
"15 611 LINE"
);
}
);
};
components = (
{
name = h;
}
);
layerId = UUID0;
paths = (
{
closed = 1;
nodes = (
"281 611 LINE",
"281 667 LINE",
"15 667 LINE",
"15 611 LINE"
);
}
);
width = 590;
}
);
leftKerningGroup = h;
rightKerningGroup = h;
unicode = 0127;
},
{
glyphname = hyphen;
lastChange = "2016-08-18 22:37:14 +0000";
layers = (
{
background = {
paths = (
{
closed = 1;
nodes = (
"359 233 LINE",
"359 313 LINE",
"64 313 LINE",
"64 233 LINE"
);
}
);
};
layerId = UUID0;
paths = (
{
closed = 1;
nodes = (
"359 233 LINE",
"359 313 LINE",
"64 313 LINE",
"64 233 LINE"
);
}
);
width = 423;
}
);
leftKerningGroup = hyphen;
rightKerningGroup = hyphen;
unicode = 002D;
},
{
glyphname = i;
lastChange = "2016-08-18 22:37:14 +0000";
layers = (
{
background = {
paths = (
{
closed = 1;
nodes = (
"159 0 LINE",
"159 522 LINE",
"71 522 LINE",
"71 0 LINE"
);
},
{
closed = 1;
nodes = (
"159 620 LINE",
"159 730 LINE",
"71 730 LINE",
"71 620 LINE"
);
}
);
};
layerId = UUID0;
paths = (
{
closed = 1;
nodes = (
"159 0 LINE",
"159 522 LINE",
"71 522 LINE",
"71 0 LINE"
);
},
{
closed = 1;
nodes = (
"159 620 LINE",
"159 730 LINE",
"71 730 LINE",
"71 620 LINE"
);
}
);
width = 230;
}
);
leftKerningGroup = i;
rightKerningGroup = i;
unicode = 0069;
},
{
glyphname = j;
lastChange = "2016-08-18 22:37:14 +0000";
layers = (
{
background = {
paths = (
{
closed = 1;
nodes = (
"89 -186 OFFCURVE",
"166 -116 OFFCURVE",
"166 -17 CURVE SMOOTH",
"166 522 LINE",
"78 522 LINE",
"78 -23 LINE SMOOTH",
"78 -72 OFFCURVE",
"37 -108 OFFCURVE",
"-6 -108 CURVE SMOOTH",
"-30 -108 OFFCURVE",
"-56 -102 OFFCURVE",
"-75 -85 CURVE",
"-116 -144 LINE",
"-84 -173 OFFCURVE",
"-42 -186 OFFCURVE",
"4 -186 CURVE SMOOTH"
);
},
{
closed = 1;
nodes = (
"166 620 LINE",
"166 730 LINE",
"78 730 LINE",
"78 620 LINE"
);
}
);
};
layerId = UUID0;
paths = (
{
closed = 1;
nodes = (
"4 -186 LINE SMOOTH",
"89 -186 OFFCURVE",
"166 -116 OFFCURVE",
"166 -17 CURVE SMOOTH",
"166 522 LINE",
"78 522 LINE",
"78 -23 LINE SMOOTH",
"78 -72 OFFCURVE",
"37 -108 OFFCURVE",
"-6 -108 CURVE SMOOTH",
"-30 -108 OFFCURVE",
"-56 -102 OFFCURVE",
"-75 -85 CURVE",
"-116 -144 LINE",
"-84 -173 OFFCURVE",
"-42 -186 OFFCURVE",
"4 -186 CURVE SMOOTH"
);
},
{
closed = 1;
nodes = (
"166 620 LINE",
"166 730 LINE",
"78 730 LINE",
"78 620 LINE"
);
}
);
width = 237;
}
);
leftKerningGroup = i;
rightKerningGroup = i;
unicode = 006A;
},
{
glyphname = j.alt;
lastChange = "2016-08-18 22:37:14 +0000";
layers = (
{
background = {
paths = (
{
closed = 1;
nodes = (
"71 -213 LINE",
"159 -213 LINE",
"159 517 LINE",
"71 517 LINE"
);
},
{
closed = 1;
nodes = (
"71 620 LINE",
"159 620 LINE",
"159 722 LINE",
"71 722 LINE"
);
}
);
};
layerId = UUID0;
paths = (
{
closed = 1;
nodes = (
"71 -213 LINE",
"159 -213 LINE",
"159 517 LINE",
"71 517 LINE"
);
},
{
closed = 1;
nodes = (
"71 620 LINE",
"159 620 LINE",
"159 722 LINE",
"71 722 LINE"
);
}
);
width = 230;
}
);
leftKerningGroup = i;
rightKerningGroup = i;
},
{
glyphname = k;
lastChange = "2016-08-18 22:37:14 +0000";
layers = (
{
anchors = (
{
name = bottom;
position = "{280, 0}";
}
);
background = {
paths = (
{
closed = 1;
nodes = (
"534 0 LINE",
"316 305 LINE",
"524 521 LINE",
"427 521 LINE",
"159 250 LINE",
"159 730 LINE",
"71 730 LINE",
"71 0 LINE",
"159 0 LINE",
"159 161 LINE",
"259 255 LINE",
"439 0 LINE"
);
}
);
};
layerId = UUID0;
paths = (
{
closed = 1;
nodes = (
"534 0 LINE",
"316 305 LINE",
"524 521 LINE",
"427 521 LINE",
"159 250 LINE",
"159 730 LINE",
"71 730 LINE",
"71 0 LINE",
"159 0 LINE",
"159 161 LINE",
"259 255 LINE",
"439 0 LINE"
);
}
);
width = 539;
}
);
leftKerningGroup = h;
rightKerningGroup = k;
unicode = 006B;
},
{
glyphname = kgreenlandic;
lastChange = "2016-08-18 22:37:14 +0000";
layers = (
{
background = {
paths = (
{
closed = 1;
nodes = (
"534 0 LINE",
"316 305 LINE",
"524 521 LINE",
"427 521 LINE",
"159 250 LINE",
"159 522 LINE",
"71 522 LINE",
"71 0 LINE",
"159 0 LINE",
"159 161 LINE",
"259 255 LINE",
"439 0 LINE"
);
}
);
};
layerId = UUID0;
paths = (
{
closed = 1;
nodes = (
"534 0 LINE",
"316 305 LINE",
"524 521 LINE",
"427 521 LINE",
"159 250 LINE",
"159 522 LINE",
"71 522 LINE",
"71 0 LINE",
"159 0 LINE",
"159 161 LINE",
"259 255 LINE",
"439 0 LINE"
);
}
);
width = 539;
}
);
unicode = 0138;
},
{
glyphname = l;
lastChange = "2016-08-18 22:37:14 +0000";
layers = (
{
anchors = (
{
name = bottom;
position = "{179, 0}";
},
{
name = top;
position = "{258, 521}";
}
);
background = {
paths = (
{
closed = 1;
nodes = (
"73 103 LINE",
"73 34 OFFCURVE",
"115 -7 OFFCURVE",
"183 -7 CURVE SMOOTH",
"214 -7 OFFCURVE",
"259 2 OFFCURVE",
"288 14 CURVE",
"274 85 LINE",
"257 78 OFFCURVE",
"235 73 OFFCURVE",
"220 73 CURVE SMOOTH",
"183 73 OFFCURVE",
"161 96 OFFCURVE",
"161 135 CURVE SMOOTH",
"161 730 LINE",
"73 730 LINE"
);
}
);
};
layerId = UUID0;
paths = (
{
closed = 1;
nodes = (
"73 103 LINE",
"73 34 OFFCURVE",
"115 -7 OFFCURVE",
"183 -7 CURVE SMOOTH",
"214 -7 OFFCURVE",
"259 2 OFFCURVE",
"288 14 CURVE",
"274 85 LINE",
"257 78 OFFCURVE",
"235 73 OFFCURVE",
"220 73 CURVE SMOOTH",
"183 73 OFFCURVE",
"161 96 OFFCURVE",
"161 135 CURVE SMOOTH",
"161 730 LINE",
"73 730 LINE"
);
}
);
width = 286;
}
);
leftKerningGroup = l;
rightKerningGroup = l;
unicode = 006C;
},
{
glyphname = l.alt;
lastChange = "2016-08-18 22:37:14 +0000";
layers = (
{
background = {
paths = (
{
closed = 1;
nodes = (
"76 0 LINE",
"107 0 OFFCURVE",
"164 0 OFFCURVE",
"164 0 CURVE",
"164 730 LINE",
"76 730 LINE"
);
}
);
};
layerId = UUID0;
paths = (
{
closed = 1;
nodes = (
"76 0 LINE",
"107 0 OFFCURVE",
"164 0 OFFCURVE",
"164 0 CURVE",
"164 730 LINE",
"76 730 LINE"
);
}
);
width = 240;
}
);
},
{
glyphname = less;
lastChange = "2016-08-18 22:37:14 +0000";
layers = (
{
background = {
paths = (
{
closed = 1;
nodes = (
"33 234 LINE",
"453 -16 LINE",
"453 82 LINE",
"161 259 LINE",
"453 439 LINE",
"453 533 LINE",
"33 280 LINE"
);
}
);
};
layerId = UUID0;
paths = (
{
closed = 1;
nodes = (
"33 234 LINE",
"453 -16 LINE",
"453 82 LINE",
"161 259 LINE",
"453 439 LINE",
"453 533 LINE",
"33 280 LINE"
);
}
);
width = 510;
}
);
unicode = 003C;
},
{
glyphname = logicalnot;
lastChange = "2016-08-18 22:37:14 +0000";
layers = (
{
background = {
paths = (
{
closed = 1;
nodes = (
"67 375 LINE",
"67 295 LINE",
"445 295 LINE",
"445 120 LINE",
"521 120 LINE",
"521 375 LINE"
);
}
);
};
layerId = UUID0;
paths = (
{
closed = 1;
nodes = (
"67 375 LINE",
"67 295 LINE",
"445 295 LINE",
"445 120 LINE",
"521 120 LINE",
"521 375 LINE"
);
}
);
width = 591;
}
);
unicode = 00AC;
},
{
glyphname = lslash;
lastChange = "2016-08-18 22:37:14 +0000";
layers = (
{
background = {
paths = (
{
closed = 1;
nodes = (
"297 473 LINE",
"270 522 LINE",
"8 332 LINE",
"34 283 LINE"
);
}
);
};
components = (
{
name = l;
transform = "{1, 0, 0, 1, 21, 0}";
}
);
layerId = UUID0;
paths = (
{
closed = 1;
nodes = (
"297 473 LINE",
"270 522 LINE",
"8 332 LINE",
"34 283 LINE"
);
}
);
width = 308;
}
);
leftKerningGroup = l;
rightKerningGroup = l;
unicode = 0142;
},
{
glyphname = m;
lastChange = "2016-08-18 22:37:14 +0000";
layers = (
{
background = {
paths = (
{
closed = 1;
nodes = (
"858 312 LINE",
"858 437 OFFCURVE",
"820 531 OFFCURVE",
"700 531 CURVE SMOOTH",
"615 531 OFFCURVE",
"547 487 OFFCURVE",
"501 404 CURVE",
"489 478 OFFCURVE",
"436 531 OFFCURVE",
"349 531 CURVE SMOOTH",
"264 531 OFFCURVE",
"193 487 OFFCURVE",
"151 410 CURVE",
"151 522 LINE",
"71 522 LINE",
"71 0 LINE",
"159 0 LINE",
"159 315 LINE",
"183 397 OFFCURVE",
"246 452 OFFCURVE",
"316 452 CURVE SMOOTH",
"385 452 OFFCURVE",
"420 403 OFFCURVE",
"420 292 CURVE SMOOTH",
"420 0 LINE",
"508 0 LINE",
"508 314 LINE",
"532 395 OFFCURVE",
"594 452 OFFCURVE",
"665 452 CURVE SMOOTH",
"734 452 OFFCURVE",
"770 401 OFFCURVE",
"770 292 CURVE SMOOTH",
"770 0 LINE",
"858 0 LINE"
);
}
);
};
layerId = UUID0;
paths = (
{
closed = 1;
nodes = (
"858 312 LINE",
"858 437 OFFCURVE",
"820 531 OFFCURVE",
"700 531 CURVE SMOOTH",
"615 531 OFFCURVE",
"547 487 OFFCURVE",
"501 404 CURVE",
"489 478 OFFCURVE",
"436 531 OFFCURVE",
"349 531 CURVE SMOOTH",
"264 531 OFFCURVE",
"193 487 OFFCURVE",
"151 410 CURVE",
"151 522 LINE",
"71 522 LINE",
"71 0 LINE",
"159 0 LINE",
"159 315 LINE",
"183 397 OFFCURVE",
"246 452 OFFCURVE",
"316 452 CURVE SMOOTH",
"385 452 OFFCURVE",
"420 403 OFFCURVE",
"420 292 CURVE SMOOTH",
"420 0 LINE",
"508 0 LINE",
"508 314 LINE",
"532 395 OFFCURVE",
"594 452 OFFCURVE",
"665 452 CURVE SMOOTH",
"734 452 OFFCURVE",
"770 401 OFFCURVE",
"770 292 CURVE SMOOTH",
"770 0 LINE",
"858 0 LINE"
);
}
);
width = 924;
}
);
leftKerningGroup = n;
rightKerningGroup = n;
unicode = 006D;
},
{
glyphname = minus;
lastChange = "2016-08-18 22:37:14 +0000";
layers = (
{
background = {
paths = (
{
closed = 1;
nodes = (
"470 269 LINE",
"470 341 LINE",
"67 341 LINE",
"67 269 LINE"
);
}
);
};
layerId = UUID0;
paths = (
{
closed = 1;
nodes = (
"470 269 LINE",
"470 341 LINE",
"67 341 LINE",
"67 269 LINE"
);
}
);
width = 537;
}
);
unicode = 2212;
},
{
glyphname = mu;
lastChange = "2016-08-18 22:37:14 +0000";
layers = (
{
background = {
paths = (
{
closed = 1;
nodes = (
"78 -212 LINE",
"166 -212 LINE",
"161 67 LINE",
"176 25 OFFCURVE",
"213 -10 OFFCURVE",
"274 -10 CURVE SMOOTH",
"353 -10 OFFCURVE",
"430 48 OFFCURVE",
"462 112 CURVE",
"462 57 LINE SMOOTH",
"462 26 OFFCURVE",
"488 -3 OFFCURVE",
"525 -3 CURVE SMOOTH",
"536 -3 OFFCURVE",
"546 -3 OFFCURVE",
"566 0 CURVE",
"566 76 LINE",
"546 77 OFFCURVE",
"538 86 OFFCURVE",
"538 108 CURVE SMOOTH",
"538 522 LINE",
"450 522 LINE",
"450 195 LINE",
"419 115 OFFCURVE",
"349 66 OFFCURVE",
"279 66 CURVE SMOOTH",
"203 66 OFFCURVE",
"166 119 OFFCURVE",
"166 226 CURVE SMOOTH",
"166 522 LINE",
"78 522 LINE"
);
}
);
};
layerId = UUID0;
paths = (
{
closed = 1;
nodes = (
"78 -212 LINE",
"161 -212 LINE",
"161 67 LINE",
"176 25 OFFCURVE",
"213 -10 OFFCURVE",
"274 -10 CURVE SMOOTH",
"353 -10 OFFCURVE",
"430 48 OFFCURVE",
"462 112 CURVE",
"462 57 LINE SMOOTH",
"462 26 OFFCURVE",
"488 -3 OFFCURVE",
"525 -3 CURVE SMOOTH",
"536 -3 OFFCURVE",
"546 -3 OFFCURVE",
"566 0 CURVE",
"566 76 LINE",
"546 77 OFFCURVE",
"538 86 OFFCURVE",
"538 108 CURVE SMOOTH",
"538 522 LINE",
"450 522 LINE",
"450 195 LINE",
"419 115 OFFCURVE",
"349 66 OFFCURVE",
"279 66 CURVE SMOOTH",
"203 66 OFFCURVE",
"166 119 OFFCURVE",
"166 226 CURVE SMOOTH",
"166 522 LINE",
"78 522 LINE"
);
}
);
width = 628;
}
);
unicode = 00B5;
},
{
glyphname = multiply;
lastChange = "2016-08-18 22:37:14 +0000";
layers = (
{
background = {
paths = (
{
closed = 1;
nodes = (
"288 273 LINE",
"401 387 LINE",
"346 443 LINE",
"232 329 LINE",
"119 442 LINE",
"63 387 LINE",
"176 273 LINE",
"61 158 LINE",
"116 102 LINE",
"232 218 LINE",
"348 102 LINE",
"404 157 LINE"
);
}
);
};
layerId = UUID0;
paths = (
{
closed = 1;
nodes = (
"288 273 LINE",
"401 387 LINE",
"346 443 LINE",
"232 329 LINE",
"119 442 LINE",
"63 387 LINE",
"176 273 LINE",
"61 158 LINE",
"116 102 LINE",
"232 218 LINE",
"348 102 LINE",
"404 157 LINE"
);
}
);
width = 464;
}
);
unicode = 00D7;
},
{
glyphname = n;
lastChange = "2016-08-18 22:37:14 +0000";
layers = (
{
anchors = (
{
name = bottom;
position = "{294, 0}";
},
{
name = top;
position = "{303, 522}";
}
);
background = {
paths = (
{
closed = 1;
nodes = (
"524 312 LINE",
"524 438 OFFCURVE",
"489 531 OFFCURVE",
"368 531 CURVE SMOOTH",
"276 531 OFFCURVE",
"192 483 OFFCURVE",
"151 410 CURVE",
"151 522 LINE",
"71 522 LINE",
"71 0 LINE",
"159 0 LINE",
"159 315 LINE",
"183 394 OFFCURVE",
"261 452 OFFCURVE",
"333 452 CURVE SMOOTH",
"402 452 OFFCURVE",
"436 403 OFFCURVE",
"436 292 CURVE SMOOTH",
"436 0 LINE",
"524 0 LINE"
);
}
);
};
layerId = UUID0;
paths = (
{
closed = 1;
nodes = (
"524 312 LINE",
"524 438 OFFCURVE",
"489 531 OFFCURVE",
"368 531 CURVE SMOOTH",
"276 531 OFFCURVE",
"192 483 OFFCURVE",
"151 410 CURVE",
"151 522 LINE",
"71 522 LINE",
"71 0 LINE",
"159 0 LINE",
"159 315 LINE",
"183 394 OFFCURVE",
"261 452 OFFCURVE",
"333 452 CURVE SMOOTH",
"402 452 OFFCURVE",
"436 403 OFFCURVE",
"436 292 CURVE SMOOTH",
"436 0 LINE",
"524 0 LINE"
);
}
);
width = 590;
}
);
leftKerningGroup = n;
rightKerningGroup = n;
unicode = 006E;
},
{
glyphname = nine;
lastChange = "2016-08-18 22:37:14 +0000";
layers = (
{
background = {
paths = (
{
closed = 1;
nodes = (
"36 462 OFFCURVE",
"147 571 OFFCURVE",
"290 571 CURVE SMOOTH",
"443 571 OFFCURVE",
"547 456 OFFCURVE",
"547 265 CURVE SMOOTH",
"547 -15 OFFCURVE",
"441 -154 OFFCURVE",
"281 -154 CURVE SMOOTH",
"189 -154 OFFCURVE",
"110 -107 OFFCURVE",
"67 -28 CURVE",
"121 25 LINE",
"150 -37 OFFCURVE",
"212 -77 OFFCURVE",
"282 -77 CURVE SMOOTH",
"391 -77 OFFCURVE",
"462 25 OFFCURVE",
"464 201 CURVE",
"435 132 OFFCURVE",
"364 87 OFFCURVE",
"281 87 CURVE SMOOTH",
"144 87 OFFCURVE",
"36 192 OFFCURVE",
"36 326 CURVE SMOOTH"
);
},
{
closed = 1;
nodes = (
"197 495 OFFCURVE",
"120 419 OFFCURVE",
"120 326 CURVE SMOOTH",
"120 234 OFFCURVE",
"197 158 OFFCURVE",
"289 158 CURVE SMOOTH",
"382 158 OFFCURVE",
"458 234 OFFCURVE",
"458 326 CURVE SMOOTH",
"458 418 OFFCURVE",
"381 495 OFFCURVE",
"289 495 CURVE SMOOTH"
);
}
);
};
layerId = UUID0;
paths = (
{
closed = 1;
nodes = (
"36 326 LINE SMOOTH",
"36 462 OFFCURVE",
"147 571 OFFCURVE",
"290 571 CURVE SMOOTH",
"443 571 OFFCURVE",
"547 456 OFFCURVE",
"547 265 CURVE SMOOTH",
"547 -15 OFFCURVE",
"441 -154 OFFCURVE",
"281 -154 CURVE SMOOTH",
"189 -154 OFFCURVE",
"110 -107 OFFCURVE",
"67 -28 CURVE",
"121 25 LINE",
"150 -37 OFFCURVE",
"212 -77 OFFCURVE",
"282 -77 CURVE SMOOTH",
"391 -77 OFFCURVE",
"462 25 OFFCURVE",
"464 201 CURVE",
"435 132 OFFCURVE",
"364 87 OFFCURVE",
"281 87 CURVE SMOOTH",
"144 87 OFFCURVE",
"36 192 OFFCURVE",
"36 326 CURVE SMOOTH"
);
},
{
closed = 1;
nodes = (
"289 495 LINE SMOOTH",
"197 495 OFFCURVE",
"120 419 OFFCURVE",
"120 326 CURVE SMOOTH",
"120 234 OFFCURVE",
"197 158 OFFCURVE",
"289 158 CURVE SMOOTH",
"382 158 OFFCURVE",
"458 234 OFFCURVE",
"458 326 CURVE SMOOTH",
"458 418 OFFCURVE",
"381 495 OFFCURVE",
"289 495 CURVE SMOOTH"
);
}
);
width = 589;
}
);
unicode = 0039;
},
{
glyphname = nine.lnum;
lastChange = "2016-08-18 22:37:14 +0000";
layers = (
{
background = {
paths = (
{
closed = 1;
nodes = (
"44 607 OFFCURVE",
"155 715 OFFCURVE",
"298 715 CURVE SMOOTH",
"451 715 OFFCURVE",
"555 601 OFFCURVE",
"555 410 CURVE SMOOTH",
"555 130 OFFCURVE",
"449 -10 OFFCURVE",
"289 -10 CURVE SMOOTH",
"197 -10 OFFCURVE",
"118 37 OFFCURVE",
"75 117 CURVE",
"129 170 LINE",
"158 108 OFFCURVE",
"220 68 OFFCURVE",
"290 68 CURVE SMOOTH",
"399 68 OFFCURVE",
"471 169 OFFCURVE",
"472 345 CURVE",
"443 276 OFFCURVE",
"372 231 OFFCURVE",
"289 231 CURVE SMOOTH",
"152 231 OFFCURVE",
"44 337 OFFCURVE",
"44 470 CURVE SMOOTH"
);
},
{
closed = 1;
nodes = (
"205 640 OFFCURVE",
"129 563 OFFCURVE",
"129 471 CURVE SMOOTH",
"129 379 OFFCURVE",
"206 303 OFFCURVE",
"298 303 CURVE SMOOTH",
"390 303 OFFCURVE",
"467 379 OFFCURVE",
"467 470 CURVE SMOOTH",
"467 562 OFFCURVE",
"389 640 OFFCURVE",
"297 640 CURVE SMOOTH"
);
}
);
};
layerId = UUID0;
paths = (
{
closed = 1;
nodes = (
"44 470 LINE SMOOTH",
"44 607 OFFCURVE",
"155 715 OFFCURVE",
"298 715 CURVE SMOOTH",
"451 715 OFFCURVE",
"555 601 OFFCURVE",
"555 410 CURVE SMOOTH",
"555 130 OFFCURVE",
"449 -10 OFFCURVE",
"289 -10 CURVE SMOOTH",
"197 -10 OFFCURVE",
"118 37 OFFCURVE",
"75 117 CURVE",
"129 170 LINE",
"158 108 OFFCURVE",
"220 68 OFFCURVE",
"290 68 CURVE SMOOTH",
"399 68 OFFCURVE",
"471 169 OFFCURVE",
"472 345 CURVE",
"443 276 OFFCURVE",
"372 231 OFFCURVE",
"289 231 CURVE SMOOTH",
"152 231 OFFCURVE",
"44 337 OFFCURVE",
"44 470 CURVE SMOOTH"
);
},
{
closed = 1;
nodes = (
"297 640 LINE SMOOTH",
"205 640 OFFCURVE",
"129 563 OFFCURVE",
"129 471 CURVE SMOOTH",
"129 379 OFFCURVE",
"206 303 OFFCURVE",
"298 303 CURVE SMOOTH",
"390 303 OFFCURVE",
"467 379 OFFCURVE",
"467 470 CURVE SMOOTH",
"467 562 OFFCURVE",
"389 640 OFFCURVE",
"297 640 CURVE SMOOTH"
);
}
);
width = 606;
}
);
},
{
glyphname = nineinferior;
lastChange = "2016-08-18 22:37:14 +0000";
layers = (
{
background = {
paths = (
{
closed = 1;
nodes = (
"32 267 OFFCURVE",
"106 329 OFFCURVE",
"201 329 CURVE SMOOTH",
"302 329 OFFCURVE",
"372 262 OFFCURVE",
"372 150 CURVE SMOOTH",
"372 -6 OFFCURVE",
"302 -85 OFFCURVE",
"194 -85 CURVE SMOOTH",
"134 -85 OFFCURVE",
"80 -60 OFFCURVE",
"53 -16 CURVE",
"87 21 LINE",
"106 -12 OFFCURVE",
"148 -33 OFFCURVE",
"196 -33 CURVE SMOOTH",
"269 -33 OFFCURVE",
"319 19 OFFCURVE",
"320 110 CURVE",
"300 75 OFFCURVE",
"248 52 OFFCURVE",
"197 52 CURVE SMOOTH",
"103 52 OFFCURVE",
"32 112 OFFCURVE",
"32 189 CURVE SMOOTH"
);
},
{
closed = 1;
nodes = (
"137 278 OFFCURVE",
"85 237 OFFCURVE",
"85 189 CURVE SMOOTH",
"85 141 OFFCURVE",
"138 101 OFFCURVE",
"201 101 CURVE SMOOTH",
"264 101 OFFCURVE",
"316 141 OFFCURVE",
"316 189 CURVE SMOOTH",
"316 237 OFFCURVE",
"263 278 OFFCURVE",
"200 278 CURVE SMOOTH"
);
}
);
};
layerId = UUID0;
paths = (
{
closed = 1;
nodes = (
"32 189 LINE SMOOTH",
"32 267 OFFCURVE",
"106 329 OFFCURVE",
"201 329 CURVE SMOOTH",
"302 329 OFFCURVE",
"372 262 OFFCURVE",
"372 150 CURVE SMOOTH",
"372 -6 OFFCURVE",
"302 -85 OFFCURVE",
"194 -85 CURVE SMOOTH",
"134 -85 OFFCURVE",
"80 -60 OFFCURVE",
"53 -16 CURVE",
"87 21 LINE",
"106 -12 OFFCURVE",
"148 -33 OFFCURVE",
"196 -33 CURVE SMOOTH",
"269 -33 OFFCURVE",
"319 19 OFFCURVE",
"320 110 CURVE",
"300 75 OFFCURVE",
"248 52 OFFCURVE",
"197 52 CURVE SMOOTH",
"103 52 OFFCURVE",
"32 112 OFFCURVE",
"32 189 CURVE SMOOTH"
);
},
{
closed = 1;
nodes = (
"200 278 LINE SMOOTH",
"137 278 OFFCURVE",
"85 237 OFFCURVE",
"85 189 CURVE SMOOTH",
"85 141 OFFCURVE",
"138 101 OFFCURVE",
"201 101 CURVE SMOOTH",
"264 101 OFFCURVE",
"316 141 OFFCURVE",
"316 189 CURVE SMOOTH",
"316 237 OFFCURVE",
"263 278 OFFCURVE",
"200 278 CURVE SMOOTH"
);
}
);
width = 411;
}
);
unicode = 2089;
},
{
glyphname = ninesuperior;
lastChange = "2016-08-18 22:37:14 +0000";
layers = (
{
background = {
paths = (
{
closed = 1;
nodes = (
"31 748 OFFCURVE",
"105 810 OFFCURVE",
"200 810 CURVE SMOOTH",
"301 810 OFFCURVE",
"371 743 OFFCURVE",
"371 631 CURVE SMOOTH",
"371 475 OFFCURVE",
"301 395 OFFCURVE",
"193 395 CURVE SMOOTH",
"133 395 OFFCURVE",
"79 421 OFFCURVE",
"52 465 CURVE",
"86 501 LINE",
"105 468 OFFCURVE",
"147 447 OFFCURVE",
"195 447 CURVE SMOOTH",
"268 447 OFFCURVE",
"318 500 OFFCURVE",
"319 591 CURVE",
"299 556 OFFCURVE",
"247 533 OFFCURVE",
"196 533 CURVE SMOOTH",
"102 533 OFFCURVE",
"31 593 OFFCURVE",
"31 669 CURVE SMOOTH"
);
},
{
closed = 1;
nodes = (
"136 759 OFFCURVE",
"84 718 OFFCURVE",
"84 670 CURVE SMOOTH",
"84 622 OFFCURVE",
"137 582 OFFCURVE",
"200 582 CURVE SMOOTH",
"263 582 OFFCURVE",
"315 622 OFFCURVE",
"315 669 CURVE SMOOTH",
"315 718 OFFCURVE",
"262 759 OFFCURVE",
"199 759 CURVE SMOOTH"
);
}
);
};
layerId = UUID0;
paths = (
{
closed = 1;
nodes = (
"31 669 LINE SMOOTH",
"31 748 OFFCURVE",
"105 810 OFFCURVE",
"200 810 CURVE SMOOTH",
"301 810 OFFCURVE",
"371 743 OFFCURVE",
"371 631 CURVE SMOOTH",
"371 475 OFFCURVE",
"301 395 OFFCURVE",
"193 395 CURVE SMOOTH",
"133 395 OFFCURVE",
"79 421 OFFCURVE",
"52 465 CURVE",
"86 501 LINE",
"105 468 OFFCURVE",
"147 447 OFFCURVE",
"195 447 CURVE SMOOTH",
"268 447 OFFCURVE",
"318 500 OFFCURVE",
"319 591 CURVE",
"299 556 OFFCURVE",
"247 533 OFFCURVE",
"196 533 CURVE SMOOTH",
"102 533 OFFCURVE",
"31 593 OFFCURVE",
"31 669 CURVE SMOOTH"
);
},
{
closed = 1;
nodes = (
"199 759 LINE SMOOTH",
"136 759 OFFCURVE",
"84 718 OFFCURVE",
"84 670 CURVE SMOOTH",
"84 622 OFFCURVE",
"137 582 OFFCURVE",
"200 582 CURVE SMOOTH",
"263 582 OFFCURVE",
"315 622 OFFCURVE",
"315 669 CURVE SMOOTH",
"315 718 OFFCURVE",
"262 759 OFFCURVE",
"199 759 CURVE SMOOTH"
);
}
);
width = 409;
}
);
unicode = 2079;
},
{
glyphname = numbersign;
lastChange = "2016-08-18 22:37:14 +0000";
layers = (
{
background = {
paths = (
{
closed = 1;
nodes = (
"655 511 LINE",
"537 511 LINE",
"586 710 LINE",
"513 710 LINE",
"465 511 LINE",
"297 511 LINE",
"346 710 LINE",
"273 710 LINE",
"225 511 LINE",
"81 511 LINE",
"81 447 LINE",
"209 447 LINE",
"166 269 LINE",
"37 269 LINE",
"37 201 LINE",
"150 201 LINE",
"100 0 LINE",
"173 0 LINE",
"222 201 LINE",
"390 201 LINE",
"340 0 LINE",
"413 0 LINE",
"462 201 LINE",
"611 201 LINE",
"611 269 LINE",
"478 269 LINE",
"521 447 LINE",
"655 447 LINE"
);
},
{
closed = 1;
nodes = (
"238 269 LINE",
"281 447 LINE",
"449 447 LINE",
"406 269 LINE"
);
}
);
};
layerId = UUID0;
paths = (
{
closed = 1;
nodes = (
"655 511 LINE",
"537 511 LINE",
"586 710 LINE",
"513 710 LINE",
"465 511 LINE",
"297 511 LINE",
"346 710 LINE",
"273 710 LINE",
"225 511 LINE",
"81 511 LINE",
"81 447 LINE",
"209 447 LINE",
"166 269 LINE",
"37 269 LINE",
"37 201 LINE",
"150 201 LINE",
"100 0 LINE",
"173 0 LINE",
"222 201 LINE",
"390 201 LINE",
"340 0 LINE",
"413 0 LINE",
"462 201 LINE",
"611 201 LINE",
"611 269 LINE",
"478 269 LINE",
"521 447 LINE",
"655 447 LINE"
);
},
{
closed = 1;
nodes = (
"238 269 LINE",
"281 447 LINE",
"449 447 LINE",
"406 269 LINE"
);
}
);
width = 692;
}
);
unicode = 0023;
},
{
glyphname = o;
lastChange = "2016-08-18 22:37:14 +0000";
layers = (
{
anchors = (
{
name = bottom;
position = "{299, 0}";
},
{
name = top;
position = "{299, 522}";
}
);
background = {
paths = (
{
closed = 1;
nodes = (
"456 -10 OFFCURVE",
"563 115 OFFCURVE",
"563 260 CURVE SMOOTH",
"563 406 OFFCURVE",
"455 531 OFFCURVE",
"299 531 CURVE SMOOTH",
"144 531 OFFCURVE",
"36 406 OFFCURVE",
"36 260 CURVE SMOOTH",
"36 115 OFFCURVE",
"142 -10 OFFCURVE",
"299 -10 CURVE SMOOTH"
);
},
{
closed = 1;
nodes = (
"126 368 OFFCURVE",
"204 455 OFFCURVE",
"299 455 CURVE SMOOTH",
"395 455 OFFCURVE",
"473 369 OFFCURVE",
"473 261 CURVE SMOOTH",
"473 152 OFFCURVE",
"395 66 OFFCURVE",
"299 66 CURVE SMOOTH",
"203 66 OFFCURVE",
"126 150 OFFCURVE",
"126 259 CURVE SMOOTH"
);
}
);
};
layerId = UUID0;
paths = (
{
closed = 1;
nodes = (
"299 -10 LINE SMOOTH",
"456 -10 OFFCURVE",
"563 115 OFFCURVE",
"563 260 CURVE SMOOTH",
"563 406 OFFCURVE",
"455 531 OFFCURVE",
"299 531 CURVE SMOOTH",
"144 531 OFFCURVE",
"36 406 OFFCURVE",
"36 260 CURVE SMOOTH",
"36 115 OFFCURVE",
"142 -10 OFFCURVE",
"299 -10 CURVE SMOOTH"
);
},
{
closed = 1;
nodes = (
"126 259 LINE SMOOTH",
"126 368 OFFCURVE",
"204 455 OFFCURVE",
"299 455 CURVE SMOOTH",
"395 455 OFFCURVE",
"473 369 OFFCURVE",
"473 261 CURVE SMOOTH",
"473 152 OFFCURVE",
"395 66 OFFCURVE",
"299 66 CURVE SMOOTH",
"203 66 OFFCURVE",
"126 150 OFFCURVE",
"126 259 CURVE SMOOTH"
);
}
);
width = 599;
}
);
leftKerningGroup = o;
rightKerningGroup = o;
unicode = 006F;
},
{
glyphname = oe;
lastChange = "2016-08-18 22:37:14 +0000";
layers = (
{
background = {
paths = (
{
closed = 1;
nodes = (
"392 -10 OFFCURVE",
"469 45 OFFCURVE",
"518 139 CURVE",
"567 48 OFFCURVE",
"650 -10 OFFCURVE",
"745 -10 CURVE SMOOTH",
"845 -10 OFFCURVE",
"937 43 OFFCURVE",
"973 122 CURVE",
"899 143 LINE",
"879 91 OFFCURVE",
"816 55 OFFCURVE",
"749 55 CURVE SMOOTH",
"653 55 OFFCURVE",
"574 132 OFFCURVE",
"566 231 CURVE",
"999 231 LINE",
"1000 237 OFFCURVE",
"1000 253 OFFCURVE",
"1000 261 CURVE SMOOTH",
"991 423 OFFCURVE",
"887 531 OFFCURVE",
"738 531 CURVE SMOOTH",
"636 531 OFFCURVE",
"558 476 OFFCURVE",
"517 379 CURVE",
"478 473 OFFCURVE",
"397 531 OFFCURVE",
"299 531 CURVE SMOOTH",
"150 531 OFFCURVE",
"36 413 OFFCURVE",
"36 259 CURVE SMOOTH",
"36 107 OFFCURVE",
"149 -10 OFFCURVE",
"298 -10 CURVE SMOOTH"
);
},
{
closed = 1;
nodes = (
"202 66 OFFCURVE",
"126 149 OFFCURVE",
"126 258 CURVE SMOOTH",
"126 368 OFFCURVE",
"203 455 OFFCURVE",
"300 455 CURVE SMOOTH",
"397 455 OFFCURVE",
"473 369 OFFCURVE",
"473 260 CURVE SMOOTH",
"473 151 OFFCURVE",
"397 66 OFFCURVE",
"299 66 CURVE SMOOTH"
);
},
{
closed = 1;
nodes = (
"564 288 LINE",
"570 391 OFFCURVE",
"642 465 OFFCURVE",
"736 465 CURVE SMOOTH",
"829 465 OFFCURVE",
"908 392 OFFCURVE",
"915 288 CURVE"
);
}
);
};
layerId = UUID0;
paths = (
{
closed = 1;
nodes = (
"298 -10 LINE SMOOTH",
"392 -10 OFFCURVE",
"469 45 OFFCURVE",
"518 139 CURVE",
"567 48 OFFCURVE",
"650 -10 OFFCURVE",
"745 -10 CURVE SMOOTH",
"845 -10 OFFCURVE",
"937 43 OFFCURVE",
"973 122 CURVE",
"899 143 LINE",
"879 91 OFFCURVE",
"816 55 OFFCURVE",
"749 55 CURVE SMOOTH",
"653 55 OFFCURVE",
"574 132 OFFCURVE",
"566 231 CURVE",
"999 231 LINE",
"1000 237 OFFCURVE",
"1000 253 OFFCURVE",
"1000 261 CURVE SMOOTH",
"991 423 OFFCURVE",
"887 531 OFFCURVE",
"738 531 CURVE SMOOTH",
"636 531 OFFCURVE",
"558 476 OFFCURVE",
"517 379 CURVE",
"478 473 OFFCURVE",
"397 531 OFFCURVE",
"299 531 CURVE SMOOTH",
"150 531 OFFCURVE",
"36 413 OFFCURVE",
"36 259 CURVE SMOOTH",
"36 107 OFFCURVE",
"149 -10 OFFCURVE",
"298 -10 CURVE SMOOTH"
);
},
{
closed = 1;
nodes = (
"299 66 LINE SMOOTH",
"202 66 OFFCURVE",
"126 149 OFFCURVE",
"126 258 CURVE SMOOTH",
"126 368 OFFCURVE",
"203 455 OFFCURVE",
"300 455 CURVE SMOOTH",
"397 455 OFFCURVE",
"473 369 OFFCURVE",
"473 260 CURVE SMOOTH",
"473 151 OFFCURVE",
"397 66 OFFCURVE",
"299 66 CURVE SMOOTH"
);
},
{
closed = 1;
nodes = (
"564 288 LINE",
"570 391 OFFCURVE",
"642 465 OFFCURVE",
"736 465 CURVE SMOOTH",
"829 465 OFFCURVE",
"908 392 OFFCURVE",
"915 288 CURVE"
);
}
);
width = 1028;
}
);
leftKerningGroup = o;
rightKerningGroup = e;
unicode = 0153;
},
{
glyphname = one;
lastChange = "2016-08-18 22:37:14 +0000";
layers = (
{
background = {
paths = (
{
closed = 1;
nodes = (
"299 80 LINE",
"299 571 LINE",
"209 571 LINE",
"201 556 OFFCURVE",
"104 476 OFFCURVE",
"46 476 CURVE",
"46 392 LINE",
"98 392 OFFCURVE",
"186 439 OFFCURVE",
"209 470 CURVE",
"209 80 LINE",
"67 80 LINE",
"67 0 LINE",
"426 0 LINE",
"426 80 LINE"
);
}
);
};
layerId = UUID0;
paths = (
{
closed = 1;
nodes = (
"299 80 LINE",
"299 571 LINE",
"209 571 LINE",
"201 556 OFFCURVE",
"104 476 OFFCURVE",
"46 476 CURVE",
"46 392 LINE",
"98 392 OFFCURVE",
"186 439 OFFCURVE",
"209 470 CURVE",
"209 80 LINE",
"67 80 LINE",
"67 0 LINE",
"426 0 LINE",
"426 80 LINE"
);
}
);
width = 450;
}
);
unicode = 0031;
},
{
glyphname = one.lnum;
lastChange = "2016-08-18 22:37:14 +0000";
layers = (
{
background = {
paths = (
{
closed = 1;
nodes = (
"292 80 LINE",
"292 718 LINE",
"202 718 LINE",
"200 714 OFFCURVE",
"114 621 OFFCURVE",
"43 621 CURVE",
"43 539 LINE",
"97 539 OFFCURVE",
"180 594 OFFCURVE",
"202 625 CURVE",
"202 80 LINE",
"66 80 LINE",
"66 0 LINE",
"419 0 LINE",
"419 80 LINE"
);
}
);
};
layerId = UUID0;
paths = (
{
closed = 1;
nodes = (
"292 80 LINE",
"292 718 LINE",
"202 718 LINE",
"200 714 OFFCURVE",
"114 621 OFFCURVE",
"43 621 CURVE",
"43 539 LINE",
"97 539 OFFCURVE",
"180 594 OFFCURVE",
"202 625 CURVE",
"202 80 LINE",
"66 80 LINE",
"66 0 LINE",
"419 0 LINE",
"419 80 LINE"
);
}
);
width = 441;
}
);
},
{
glyphname = onesuperior;
lastChange = "2016-08-18 22:37:14 +0000";
layers = (
{
background = {
paths = (
{
closed = 1;
nodes = (
"185 455 LINE",
"185 811 LINE",
"129 811 LINE",
"128 808 OFFCURVE",
"76 755 OFFCURVE",
"34 755 CURVE",
"34 700 LINE",
"66 700 OFFCURVE",
"115 732 OFFCURVE",
"129 749 CURVE",
"129 455 LINE",
"49 455 LINE",
"49 400 LINE",
"259 400 LINE",
"259 455 LINE"
);
}
);
};
layerId = UUID0;
paths = (
{
closed = 1;
nodes = (
"185 455 LINE",
"185 811 LINE",
"129 811 LINE",
"128 808 OFFCURVE",
"76 755 OFFCURVE",
"34 755 CURVE",
"34 700 LINE",
"66 700 OFFCURVE",
"115 732 OFFCURVE",
"129 749 CURVE",
"129 455 LINE",
"49 455 LINE",
"49 400 LINE",
"259 400 LINE",
"259 455 LINE"
);
}
);
width = 280;
}
);
unicode = 00B9;
},
{
glyphname = twoinferior;
lastChange = "2016-08-18 22:37:14 +0000";
layers = (
{
background = {
paths = (
{
closed = 1;
nodes = (
"360 -80 LINE",
"360 -26 LINE",
"122 -26 LINE",
"122 9 OFFCURVE",
"139 53 OFFCURVE",
"222 80 CURVE SMOOTH",
"276 97 OFFCURVE",
"359 123 OFFCURVE",
"359 207 CURVE SMOOTH",
"359 280 OFFCURVE",
"308 331 OFFCURVE",
"208 331 CURVE SMOOTH",
"109 331 OFFCURVE",
"52 281 OFFCURVE",
"38 263 CURVE",
"74 223 LINE",
"95 246 OFFCURVE",
"136 277 OFFCURVE",
"200 277 CURVE SMOOTH",
"264 277 OFFCURVE",
"297 248 OFFCURVE",
"297 208 CURVE SMOOTH",
"297 149 OFFCURVE",
"223 132 OFFCURVE",
"162 108 CURVE SMOOTH",
"73 73 OFFCURVE",
"34 25 OFFCURVE",
"34 -80 CURVE"
);
}
);
};
layerId = UUID0;
paths = (
{
closed = 1;
nodes = (
"360 -80 LINE",
"360 -26 LINE",
"122 -26 LINE",
"122 9 OFFCURVE",
"139 53 OFFCURVE",
"222 80 CURVE SMOOTH",
"276 97 OFFCURVE",
"359 123 OFFCURVE",
"359 207 CURVE SMOOTH",
"359 280 OFFCURVE",
"308 331 OFFCURVE",
"208 331 CURVE SMOOTH",
"109 331 OFFCURVE",
"52 281 OFFCURVE",
"38 263 CURVE",
"74 223 LINE",
"95 246 OFFCURVE",
"136 277 OFFCURVE",
"200 277 CURVE SMOOTH",
"264 277 OFFCURVE",
"297 248 OFFCURVE",
"297 208 CURVE SMOOTH",
"297 149 OFFCURVE",
"223 132 OFFCURVE",
"162 108 CURVE SMOOTH",
"73 73 OFFCURVE",
"34 25 OFFCURVE",
"34 -80 CURVE"
);
}
);
width = 400;
}
);
unicode = 2082;
},
{
glyphname = oneinferior;
lastChange = "2016-08-18 22:37:14 +0000";
layers = (
{
background = {
paths = (
{
closed = 1;
nodes = (
"196 -26 LINE",
"196 331 LINE",
"140 331 LINE",
"139 328 OFFCURVE",
"81 275 OFFCURVE",
"34 275 CURVE",
"34 220 LINE",
"70 220 OFFCURVE",
"125 251 OFFCURVE",
"140 269 CURVE",
"140 -26 LINE",
"49 -26 LINE",
"49 -80 LINE",
"281 -80 LINE",
"281 -26 LINE"
);
}
);
};
layerId = UUID0;
paths = (
{
closed = 1;
nodes = (
"196 -26 LINE",
"196 331 LINE",
"140 331 LINE",
"139 328 OFFCURVE",
"81 275 OFFCURVE",
"34 275 CURVE",
"34 220 LINE",
"70 220 OFFCURVE",
"125 251 OFFCURVE",
"140 269 CURVE",
"140 -26 LINE",
"49 -26 LINE",
"49 -80 LINE",
"281 -80 LINE",
"281 -26 LINE"
);
}
);
width = 301;
}
);
unicode = 2081;
},
{
glyphname = threeinferior;
lastChange = "2016-08-18 22:37:14 +0000";
layers = (
{
background = {
paths = (
{
closed = 1;
nodes = (
"278 -85 OFFCURVE",
"357 -46 OFFCURVE",
"357 27 CURVE SMOOTH",
"357 79 OFFCURVE",
"317 122 OFFCURVE",
"254 131 CURVE",
"313 143 OFFCURVE",
"346 173 OFFCURVE",
"346 220 CURVE SMOOTH",
"346 283 OFFCURVE",
"278 331 OFFCURVE",
"187 331 CURVE SMOOTH",
"123 331 OFFCURVE",
"61 308 OFFCURVE",
"35 269 CURVE",
"72 226 LINE",
"93 258 OFFCURVE",
"133 280 OFFCURVE",
"187 280 CURVE SMOOTH",
"239 280 OFFCURVE",
"287 256 OFFCURVE",
"287 216 CURVE SMOOTH",
"287 174 OFFCURVE",
"235 154 OFFCURVE",
"152 154 CURVE SMOOTH",
"129 154 LINE",
"129 104 LINE",
"152 104 LINE SMOOTH",
"243 104 OFFCURVE",
"301 79 OFFCURVE",
"301 35 CURVE SMOOTH",
"301 -5 OFFCURVE",
"251 -30 OFFCURVE",
"189 -30 CURVE SMOOTH",
"116 -30 OFFCURVE",
"68 10 OFFCURVE",
"64 38 CURVE",
"32 1 LINE",
"45 -53 OFFCURVE",
"107 -85 OFFCURVE",
"190 -85 CURVE SMOOTH"
);
}
);
};
layerId = UUID0;
paths = (
{
closed = 1;
nodes = (
"190 -85 LINE SMOOTH",
"278 -85 OFFCURVE",
"357 -46 OFFCURVE",
"357 27 CURVE SMOOTH",
"357 79 OFFCURVE",
"317 122 OFFCURVE",
"254 131 CURVE",
"313 143 OFFCURVE",
"346 173 OFFCURVE",
"346 220 CURVE SMOOTH",
"346 283 OFFCURVE",
"278 331 OFFCURVE",
"187 331 CURVE SMOOTH",
"123 331 OFFCURVE",
"61 308 OFFCURVE",
"35 269 CURVE",
"72 226 LINE",
"93 258 OFFCURVE",
"133 280 OFFCURVE",
"187 280 CURVE SMOOTH",
"239 280 OFFCURVE",
"287 256 OFFCURVE",
"287 216 CURVE SMOOTH",
"287 174 OFFCURVE",
"235 154 OFFCURVE",
"152 154 CURVE SMOOTH",
"129 154 LINE",
"129 104 LINE",
"152 104 LINE SMOOTH",
"243 104 OFFCURVE",
"301 79 OFFCURVE",
"301 35 CURVE SMOOTH",
"301 -5 OFFCURVE",
"251 -30 OFFCURVE",
"189 -30 CURVE SMOOTH",
"116 -30 OFFCURVE",
"68 10 OFFCURVE",
"64 38 CURVE",
"32 1 LINE",
"45 -53 OFFCURVE",
"107 -85 OFFCURVE",
"190 -85 CURVE SMOOTH"
);
}
);
width = 395;
}
);
unicode = 2083;
},
{
glyphname = ordfeminine;
lastChange = "2016-08-18 22:37:14 +0000";
layers = (
{
anchors = (
{
name = bottom;
position = "{448, 11}";
},
{
name = top;
position = "{255, 519}";
}
);
background = {
paths = (
{
closed = 1;
nodes = (
"219 344 OFFCURVE",
"269 367 OFFCURVE",
"302 409 CURVE",
"303 386 LINE SMOOTH",
"306 363 OFFCURVE",
"323 347 OFFCURVE",
"352 347 CURVE SMOOTH",
"362 347 OFFCURVE",
"370 348 OFFCURVE",
"383 350 CURVE",
"383 412 LINE",
"368 413 OFFCURVE",
"362 420 OFFCURVE",
"362 436 CURVE SMOOTH",
"362 567 LINE SMOOTH",
"362 660 OFFCURVE",
"304 711 OFFCURVE",
"208 711 CURVE SMOOTH",
"159 711 OFFCURVE",
"113 696 OFFCURVE",
"66 665 CURVE",
"89 620 LINE",
"129 647 OFFCURVE",
"165 661 OFFCURVE",
"202 661 CURVE SMOOTH",
"259 661 OFFCURVE",
"291 628 OFFCURVE",
"291 575 CURVE SMOOTH",
"291 550 LINE",
"265 561 OFFCURVE",
"230 567 OFFCURVE",
"195 567 CURVE SMOOTH",
"108 567 OFFCURVE",
"46 521 OFFCURVE",
"46 455 CURVE SMOOTH",
"46 392 OFFCURVE",
"98 344 OFFCURVE",
"165 344 CURVE SMOOTH"
);
},
{
closed = 1;
nodes = (
"144 397 OFFCURVE",
"113 425 OFFCURVE",
"113 461 CURVE SMOOTH",
"113 499 OFFCURVE",
"151 524 OFFCURVE",
"207 524 CURVE SMOOTH",
"235 524 OFFCURVE",
"266 520 OFFCURVE",
"291 509 CURVE",
"291 461 LINE SMOOTH",
"291 453 OFFCURVE",
"287 443 OFFCURVE",
"278 435 CURVE SMOOTH",
"260 412 OFFCURVE",
"223 397 OFFCURVE",
"185 397 CURVE SMOOTH"
);
}
);
};
layerId = UUID0;
paths = (
{
closed = 1;
nodes = (
"165 344 LINE SMOOTH",
"219 344 OFFCURVE",
"269 367 OFFCURVE",
"302 409 CURVE",
"303 386 LINE SMOOTH",
"306 363 OFFCURVE",
"323 347 OFFCURVE",
"352 347 CURVE SMOOTH",
"362 347 OFFCURVE",
"370 348 OFFCURVE",
"383 350 CURVE",
"383 412 LINE",
"368 413 OFFCURVE",
"362 420 OFFCURVE",
"362 436 CURVE SMOOTH",
"362 567 LINE SMOOTH",
"362 660 OFFCURVE",
"304 711 OFFCURVE",
"208 711 CURVE SMOOTH",
"159 711 OFFCURVE",
"113 696 OFFCURVE",
"66 665 CURVE",
"89 620 LINE",
"129 647 OFFCURVE",
"165 661 OFFCURVE",
"202 661 CURVE SMOOTH",
"259 661 OFFCURVE",
"291 628 OFFCURVE",
"291 575 CURVE SMOOTH",
"291 550 LINE",
"265 561 OFFCURVE",
"230 567 OFFCURVE",
"195 567 CURVE SMOOTH",
"108 567 OFFCURVE",
"46 521 OFFCURVE",
"46 455 CURVE SMOOTH",
"46 392 OFFCURVE",
"98 344 OFFCURVE",
"165 344 CURVE SMOOTH"
);
},
{
closed = 1;
nodes = (
"185 397 LINE SMOOTH",
"144 397 OFFCURVE",
"113 425 OFFCURVE",
"113 461 CURVE SMOOTH",
"113 499 OFFCURVE",
"151 524 OFFCURVE",
"207 524 CURVE SMOOTH",
"235 524 OFFCURVE",
"266 520 OFFCURVE",
"291 509 CURVE",
"291 461 LINE SMOOTH",
"291 453 OFFCURVE",
"287 443 OFFCURVE",
"278 435 CURVE SMOOTH",
"260 412 OFFCURVE",
"223 397 OFFCURVE",
"185 397 CURVE SMOOTH"
);
}
);
width = 438;
}
);
unicode = 00AA;
},
